<?xml version="1.0" encoding="utf-8"?>
<!-- Generator: Adobe Illustrator 23.1.1, SVG Export Plug-In . SVG Version: 6.00 Build 0)  -->
<svg version="1.1" id="Calque_1" xmlns="http://www.w3.org/2000/svg" xmlns:xlink="http://www.w3.org/1999/xlink" x="0px" y="0px"
	 viewBox="0 0 235.5 92.8" style="enable-background:new 0 0 235.5 92.8;" xml:space="preserve">
    <path
      class="st0"
      style="fill:#A0A09F;"
      d="M0,76.7l15.9-15.9c6.5,6.6,13.4,10.4,21.7,10.4c7.1,0,11.7-3.6,11.7-9.2v-0.3c0-5.8-5.3-9.4-14.8-9.4H23.8
		l-3.6-13.1l20.9-18.8H6.2V0H72v18.1L50.3,36.6c13,2.9,23.5,10.1,23.5,25.6v0.3c0,18.5-14.8,30.3-35.1,30.3
		C21.2,92.8,8.8,86.4,0,76.7z"
    />
    <polygon
      class="st0"
      style="fill:#A0A09F;"
      points="159.1,0 144.7,0 130.8,0 114.6,25.6 98.5,0 69.5,0 99.4,44.7 68.2,91 96.5,91 114.1,63.5 131.5,91
		149.1,91 160.4,91 235.5,91 235.5,0 	"
    />
    <g>
      <path
        class="st1"
        style="fill:#FFFFFF;"
        d="M159.3,70.1c-13.4,0-23.3-10.6-23.3-24c0-13.3,9.8-24.1,23.5-24.1c8.4,0,13.5,3,18.1,7.4l-3.6,3.8
			c-3.9-3.7-8.3-6.4-14.6-6.4c-10.3,0-18,8.3-18,19.1c0,10.8,7.8,19.2,18,19.2c6.4,0,10.6-2.5,15-6.7l3.5,3.4
			C173,66.8,167.7,70.1,159.3,70.1z"
      />
      <path
        class="st1"
        style="fill:#FFFFFF;"
        d="M219.1,34.5c0,6.1-3.7,9.2-7.4,10.8c5.5,1.7,10,4.8,10,11.3c0,8-6.7,12.7-16.9,12.7h-20.6V22.8H204
			C213.1,22.8,219.1,27.3,219.1,34.5z M213.8,35.2c0-4.6-3.7-7.6-10.3-7.6h-14.1v16h13.7C209.4,43.5,213.8,40.7,213.8,35.2z
			 M216.4,56.2c0-5.1-4.2-8-12.3-8h-14.7v16.4H205C212,64.6,216.4,61.5,216.4,56.2z"
      />
      </g>
</svg>
