<?xml version="1.0" encoding="utf-8"?>
<!-- Generator: Adobe Illustrator 23.1.1, SVG Export Plug-In . SVG Version: 6.00 Build 0)  -->
<svg version="1.1" id="Calque_1" xmlns="http://www.w3.org/2000/svg" xmlns:xlink="http://www.w3.org/1999/xlink" x="0px" y="0px"
	 viewBox="0 0 571.64 166.04" style="enable-background:new 0 0 571.64 166.04;" xml:space="preserve">
  <path
    class="cls-1"
    style="fill:#2bc2df;"
    d="M298.39,0A17.57,17.57,0,1,0,316,17.57,17.59,17.59,0,0,0,298.39,0Z"
    transform="translate(0 0)"
  />
  <rect class="cls-1" style="fill:#2bc2df;" x="283.3" y="46.68" width="29.99" height="119.31" />
  <path
    class="cls-1"
    style="fill:#2bc2df;"
    d="M403.47,43.61c-15,0-32.25,10.8-37.93,24.34V46.68H337.09V166h30V110.59c0-23.45,9-36.54,28.61-36.91L412.44,44.3A64.17,64.17,0,0,0,403.47,43.61Z"
    transform="translate(0 0)"
  />
  <path
    class="cls-1"
    style="fill:#2bc2df;"
    d="M524,43.69c-12.87,0-24.41,4.84-32.5,13.62l-0.42.45-0.41-.45c-8-8.78-19.48-13.62-32.36-13.62-27.58,0-47.6,20.11-47.6,47.81V166h29.52V90.86c0-11.63,7.1-19.14,18.08-19.14s18.09,7.51,18.09,19.14V166H506V90.86c0-11.63,7.1-19.14,18.09-19.14s18.09,7.51,18.09,19.14V166h29.51V91.5C571.64,63.8,551.62,43.69,524,43.69Z"
    transform="translate(0 0)"
  />
  <path
    class="cls-1"
    style="fill:#2bc2df;"
    d="M247,35.69c0-3.94.53-8.65,3.9-11.24,3.69-2.87,9.09-2.34,13.46-2.12l5.82-21.72-3.11-.16c-12.52-.67-25.69-1.6-36.67,5.66-9.31,6.15-13.45,16.74-13.45,27.61v13H181.18v-11c0-3.92.52-8.58,3.82-11.2,3.69-2.93,9.16-2.38,13.53-2.16l5.82-21.72-3.11-.16c-12.62-.68-25.92-1.6-36.91,5.86-9.12,6.18-13.16,16.68-13.16,27.42v13H137.65V68.37h13.53V166h30V68.37h35.76V166h30V68.37h20.77V46.68H247v-11Z"
    transform="translate(0 0)"
  />
  <path
    class="cls-1"
    style="fill:#2bc2df;"
    d="M122.43,166l0-105.36a17.32,17.32,0,0,0-15.32-17c-5.73-.37-11.82,1.73-15.41,6.38L0,166H22.6c9,0,16.18-4.69,21.61-11.7L95,90.07V166h27.45Z"
    transform="translate(0 0)"
  />
</svg>
