<?xml version="1.0" encoding="utf-8"?>
<!-- Generator: Adobe Illustrator 23.1.1, SVG Export Plug-In . SVG Version: 6.00 Build 0)  -->
<svg version="1.1" id="Calque_1" xmlns="http://www.w3.org/2000/svg" xmlns:xlink="http://www.w3.org/1999/xlink" x="0px" y="0px"
	 viewBox="0 0 408.1 290.7" style="enable-background:new 0 0 408.1 290.7;" xml:space="preserve">
<path
    d="M77.9,190.2c-2.1-1.1-9.9-4.6-24.3-4.6C21.5,185.6,0,207.1,0,239c0,31.4,19.8,51.7,50.6,51.7c12.9,0,22.6-2.6,27-4.9
	c0.6-0.3,0.9-1,0.7-1.6L75.8,274c-0.1-0.4-0.4-0.8-0.8-0.9c-0.4-0.2-0.8-0.2-1.2,0c-5.1,2.5-13,4-20.6,4c-23,0-36.8-14.4-36.8-38.4
	c0-24.3,14.4-39.5,37.5-39.5c9.9,0,16.4,2.5,19.4,4c0.4,0.2,0.8,0.2,1.2,0c0.4-0.2,0.7-0.5,0.8-0.9l3.3-10.4
	C78.8,191.2,78.5,190.5,77.9,190.2z"
  />
  <path
    d="M144.3,270.6V244c0-13.9-5-30.4-28.7-30.4c-8.9,0-18,2.4-24.4,6.4c-0.6,0.3-0.8,1-0.6,1.7l3,8.7c0.1,0.4,0.5,0.7,0.9,0.9
	c0.4,0.1,0.9,0.1,1.2-0.2c4.7-3.2,11.4-5.1,18-5.1l0.3,0c9.7,0,14.6,5,14.6,14.9v0.1c-27.8,0.2-43.1,10.1-43.1,27.9
	c0,10.9,8,21.9,23.3,21.9c8.4,0,16.1-3.3,21.3-9l0.7,6.1c0.1,0.7,0.7,1.3,1.4,1.3H144c0,0,0,0,0,0c0.8,0,1.4-0.6,1.4-1.4
	c0-0.2,0-0.3-0.1-0.4C144.7,282.9,144.3,277.2,144.3,270.6z M112.1,278.3c-6.7,0-10.7-4.1-10.7-10.9c0-9.7,9-14.6,26.8-14.6
	c0.2,0,0.5,0,0.7,0v11c0,0.9-0.1,2.3-0.5,3.7C126.7,272.4,121.4,278.3,112.1,278.3z"
  />
  <path
    d="M195.4,214l-0.3,0c-1.1-0.1-2.1-0.3-3.4-0.3c-7.9,0-15.1,4.5-19.2,11.8l-0.4-9c0-0.8-0.7-1.4-1.4-1.4h-11.4
	c-0.4,0-0.8,0.2-1,0.4c-0.3,0.3-0.4,0.7-0.4,1.1c0.4,6.1,0.6,12.9,0.6,22.1v49c0,0.8,0.6,1.4,1.4,1.4h13c0.8,0,1.4-0.6,1.4-1.4
	v-37.9c0-2.1,0.2-4.2,0.4-5.8c1.7-9.4,7.9-15.3,16.1-15.3c1.7,0,3,0,4.1,0.3c0.4,0.1,0.9,0,1.2-0.3c0.3-0.3,0.5-0.7,0.5-1.1v-12.2
	C196.6,214.7,196.1,214.1,195.4,214z"
  />
  <path
    d="M244.5,215.1h-17.2v-15.6c0-0.4-0.2-0.9-0.6-1.1c-0.4-0.3-0.8-0.3-1.3-0.2l-12.7,3.8c-0.6,0.2-1,0.7-1,1.4v11.8H202
	c-0.8,0-1.4,0.6-1.4,1.4v9.8c0,0.8,0.6,1.4,1.4,1.4h9.7v37.4c0,9.1,1.8,15.6,5.4,19.6c3.5,3.8,8.9,5.9,15.1,5.9
	c5.9,0,10.1-1.2,12-1.8c0.6-0.2,1-0.8,0.9-1.4l-0.6-9.8c0-0.4-0.2-0.8-0.6-1.1c-0.4-0.2-0.8-0.3-1.2-0.2c-1.6,0.5-3.4,0.8-7.1,0.8
	c-5.9,0-8.4-3.6-8.4-12.4v-37h17.2c0.8,0,1.4-0.6,1.4-1.4v-9.8C245.9,215.8,245.3,215.1,244.5,215.1z"
  />
  <path
    d="M312.3,270.6V244c0-13.9-5-30.4-28.7-30.4c-8.9,0-18,2.4-24.4,6.4c-0.6,0.3-0.8,1-0.6,1.7l3,8.7c0.1,0.4,0.5,0.7,0.9,0.9
	c0.4,0.1,0.9,0.1,1.2-0.2c4.7-3.2,11.4-5.1,18-5.1l0.3,0c9.7,0,14.6,5,14.6,14.9v0.1c-27.8,0.2-43.1,10.1-43.1,27.9
	c0,10.9,8,21.9,23.3,21.9c8.4,0,16.1-3.3,21.3-9l0.7,6.1c0.1,0.7,0.7,1.3,1.4,1.3h11.7c0,0,0,0,0,0c0.8,0,1.4-0.6,1.4-1.4
	c0-0.2,0-0.3-0.1-0.4C312.6,282.9,312.3,277.2,312.3,270.6z M280.1,278.3c-6.7,0-10.7-4.1-10.7-10.9c0-9.7,9-14.6,26.8-14.6
	c0.2,0,0.5,0,0.7,0v11c0,0.9-0.1,2.3-0.5,3.7C294.6,272.4,289.3,278.3,280.1,278.3z"
  />
  <path
    d="M358.1,230.2c-14.3-5.5-18.9-9.8-18.9-17.8c0-6.7,5.4-13.4,17.4-13.4c10,0,16.3,3.4,18.1,4.5c0.4,0.2,0.8,0.3,1.2,0.1
	c0.4-0.1,0.7-0.5,0.9-0.9l3.6-10.4c0.2-0.6,0-1.3-0.6-1.7c-2.6-1.5-10-5-22.6-5c-19.8,0-33.7,11.6-33.7,28.3
	c0,13.3,8.9,22.9,27.3,29.6c13,4.8,17.9,9.8,17.9,18.2c0,9.6-7.5,15.5-19.5,15.5c-7.9,0-15.9-2.3-22.2-6.2c-0.4-0.2-0.8-0.3-1.2-0.1
	c-0.4,0.2-0.7,0.5-0.9,0.9l-3.4,10.7c-0.2,0.6,0,1.3,0.6,1.6c5.9,3.9,16.9,6.7,26.2,6.7c26.7,0,36.2-16.2,36.2-30.1
	C384.3,246.4,376.5,237.3,358.1,230.2z"
  />
  <path
    d="M406.6,215.1h-13c-0.8,0-1.4,0.6-1.4,1.4v71.1c0,0.8,0.6,1.4,1.4,1.4h13c0.8,0,1.4-0.6,1.4-1.4v-71.1
	C408.1,215.8,407.4,215.1,406.6,215.1z"
  />
  <path
    d="M406.6,185.6h-13c-0.8,0-1.4,0.6-1.4,1.4v12.6c0,0.8,0.6,1.4,1.4,1.4h13c0.8,0,1.4-0.6,1.4-1.4V187
	C408.1,186.3,407.4,185.6,406.6,185.6z"
  />
  <path
    class="st0"
    style="fill:#F59C20;"
    d="M225.9,127.6v-26c0-13.5,4.5-17,14.5-16.5c12.3,0.6,54.5,9.6,54.5,43.5c0,35.1-62.3,47-94,47
	c-22.5,0-76.6-6-93-42c-2.5-5.5,3.3-7,7-2.5C134.4,155.1,225.9,168.1,225.9,127.6z"
  />
  <path
    class="st0"
    style="fill:#F59C20;"
    d="M179.8,96.6v26c0,13.5-4.5,17-14.5,16.5c-12.3-0.6-54.5-9.6-54.5-43.5c0-35.1,62.3-47,94-47
	c22.5,0,76.6,6,93,42c2.5,5.5-3.3,7-7,2.5C271.3,69.1,179.8,56.1,179.8,96.6z"
  />
  <ellipse class="st0" style="fill:#F59C20;" cx="203.6" cy="15.8" rx="25.5" ry="15.8" />
</svg>
