<?xml version="1.0" encoding="utf-8"?>
<!-- Generator: Adobe Illustrator 23.1.1, SVG Export Plug-In . SVG Version: 6.00 Build 0)  -->
<svg version="1.1" id="Calque_1" xmlns="http://www.w3.org/2000/svg" xmlns:xlink="http://www.w3.org/1999/xlink" x="0px" y="0px"
	 viewBox="0 0 53.3 39.3" style="enable-background:new 0 0 53.3 39.3;" xml:space="preserve">
<linearGradient
    id="SVGID_1_CB"
    gradientUnits="userSpaceOnUse"
    x1="-161.3284"
    y1="-149.2083"
    x2="-159.873"
    y2="-149.2083"
    gradientTransform="matrix(0 26.9963 -0.8337 0 -97.7272 4355.271)"
  >
    <stop offset="0" style="stop-color:#1A1F46" />
    <stop offset="0.3515" style="stop-color:#1A1F46" />
    <stop offset="0.4711" style="stop-color:#2B4A83" />
    <stop offset="0.5515" style="stop-color:#3564A8" />
    <stop offset="0.6082" style="stop-color:#3464A4" />
    <stop offset="0.662" style="stop-color:#326499" />
    <stop offset="0.7148" style="stop-color:#2F6386" />
    <stop offset="0.7669" style="stop-color:#2A636B" />
    <stop offset="0.8181" style="stop-color:#246248" />
    <stop offset="0.8485" style="stop-color:#206230" />
    <stop offset="1" style="stop-color:#206230" />
  </linearGradient>
  <rect fill="url(#SVGID_1_CB)" x="0" width="53.3" height="39.3" />
  <path
    fill="#fff"
    class="st1"
    d="M16.4,18.8h11.4c-0.1-2.3-0.7-4.6-2.4-6.1c-2.1-1.8-5.7-2.4-9-2.4c-3.4,0-7.1,0.7-9.2,2.6
C5.4,14.5,5,17.2,5,19.6c0,2.5,0.8,5.4,2.7,7.1c2.1,1.8,5.5,2.2,8.7,2.2c3.2,0,6.6-0.5,8.6-2.2c2.1-1.7,2.8-4.5,2.8-7.1c0,0,0,0,0,0
H16.4V18.8z"
  />
  <path fill="#fff" class="st1" d="M28.6,19.5v8.9h15.9v0c2.3-0.1,4.2-2,4.2-4.4c0-2.4-1.9-4.4-4.2-4.5v0H28.6z" />
  <path
    fill="#fff"
    class="st1"
    d="M48.4,14.7c0-2.3-1.8-4.1-4.1-4.1c-0.2,0-0.3,0-0.5,0H28.6v8.2h16C46.7,18.6,48.4,16.8,48.4,14.7z"
  />
</svg>
