<?xml version="1.0" encoding="utf-8"?>
<!-- Generator: Adobe Illustrator 23.1.1, SVG Export Plug-In . SVG Version: 6.00 Build 0)  -->
<svg version="1.1" id="Calque_1" xmlns="http://www.w3.org/2000/svg" xmlns:xlink="http://www.w3.org/1999/xlink" x="0px" y="0px"
	 viewBox="0 0 478.2 201.3" style="enable-background:new 0 0 478.2 201.3;" xml:space="preserve">
<path
    class="st0"
    style="fill:#88146A;"
    d="M43.2,201.3c-24,0-43.4-19.3-43.2-43c0.2-23.3,19.8-42.7,43.2-42.7c23.7,0,42.7,19.2,42.7,42.9
	C86,182.4,67.1,201.2,43.2,201.3z"
  />
  <path
    class="st1"
    style="fill:#E3007C;"
    d="M96.8,158.5c0-23.8,18.9-42.8,42.7-42.9c23.6,0,42.9,19.2,42.9,42.8c0,23.7-19,42.7-42.8,42.7
	C115.6,201.2,96.8,182.5,96.8,158.5z"
  />
  <path
    class="st2"
    style="fill:#757577;"
    d="M411.3,76.9c0,6.7,0,13.3,0,20c-0.1,10.5-5.1,17.8-15.1,20.9c-4.1,1.3-8.4,1.9-12.7,2.1
	c-7.3,0.3-14.6,0.1-22,0.1c-2.8,0-5.9,0.7-5.8-3.9c0.1-4,0.1-8,5.4-8.5c2.1-0.2,4.3-0.1,6.5-0.2c6.2-0.2,12.3-0.1,18.4-0.7
	c3-0.3,6.6-1.1,8.7-3c2-1.8,2.5-5.3,3.7-8.1c-2.2-0.7-4.3-2-6.5-2.1c-4.8-0.3-9.7,0-14.5-0.2c-17.3-0.6-27.2-9.9-28.3-27.2
	c-0.4-5.7-0.1-11.7,1-17.4c2.2-11.5,9-18.9,21-21.1c7.9-1.5,15.6-1.1,23.1,1.3c9.6,3,16.7,14,16.9,26
	C411.4,62.3,411.3,69.6,411.3,76.9C411.3,76.9,411.3,76.9,411.3,76.9z M399,67.5c-0.3-4.8-0.5-9.6-1.1-14.4
	c-0.8-6.3-4-11.3-10.4-12.5c-4.7-0.9-9.9-0.9-14.7,0c-5.1,1-9.2,4.5-9.8,10.1c-0.6,6.2-0.7,12.6-0.1,18.8c0.5,5.4,4.3,9.1,9.6,10.2
	c4.2,0.9,8.5,1.1,12.8,1.1C398.8,81,398.8,80.9,399,67.5z"
  />
  <path
    class="st2"
    style="fill:#757577;"
    d="M478.2,60.4c0,3.2,0,6.3,0,9.5c0,14.5-4.7,21.1-18.8,22.7c-8.7,1-17.9,0-26.6-1.5c-8.2-1.5-13.1-8.5-13.6-16.5
	c-0.5-7.6,4.1-14.9,12.1-17.6c5.1-1.7,10.7-2.2,16.1-3c4.1-0.6,8.4-0.4,12.3-1.6c2-0.6,4.5-3.5,4.7-5.5c0.1-2-2.2-5.9-3.8-6
	c-7.1-0.7-14.4-0.5-21.6-0.4c-0.7,0-1.8,0.7-2.1,1.3c-2.6,6-7.8,4.2-12.4,4.4c-3.1,0.2-3.6-1.2-2.9-4c2.2-8.4,9.5-14.3,20.8-14.9
	c7-0.4,14.3,0.3,21.3,1.7c9.6,1.9,14.1,7.8,14.5,17.6C478.3,51.1,478.1,55.7,478.2,60.4C478.2,60.4,478.2,60.4,478.2,60.4z
	 M463.9,65c-8.3,0.8-16.7,1.4-25,2.4c-3.6,0.5-6,2.7-5.7,6.9c0.3,4.2,3.1,5.9,6.5,6.3c4.6,0.5,9.3,0.6,13.9,0.3
	C464.1,80.2,466.9,75.9,463.9,65z"
  />
  <path
    class="st3"
    style="fill:#757477;"
    d="M279,60.1c-0.3-10.9,1.8-20.9,11.1-28c9.6-7.3,31.2-7,40.7,0.4c7.2,5.6,9.7,13.5,10.3,21.9
	c0.4,6.4-0.3,13-1.6,19.3c-2.1,10.3-8.8,16.6-19.1,18.6c-9.8,1.9-19.8,2.2-28.6-3.1C280.9,82.7,278.6,71.8,279,60.1z M328.1,60.1
	c0-16.6-8.7-23.7-24.4-19.9c-5.2,1.3-8.9,4.3-10.5,9.6c-2.1,7-2,14.1,0,21.1c1.3,4.5,4.3,7.3,8.7,8.9c15.1,5.3,25.9-2.3,26.1-18.1
	C328.1,61.1,328.1,60.6,328.1,60.1z"
  />
  <path
    class="st3"
    style="fill:#757477;"
    d="M128.6,60c-0.2,3.2-0.1,6.4-0.7,9.4c-3,16.1-11.7,23.4-28.2,23.8c-3.8,0.1-7.7,0.1-11.4-0.7
	c-14.3-3-21-11.7-22-29c-0.3-5.4,0.2-11,1.4-16.3C70.5,34.8,80,27.6,93.4,26.9c3.5-0.2,7.1-0.3,10.5,0.3
	C121.2,30.1,128.4,39.8,128.6,60z M79.3,60.1c-0.7,19.4,10.9,22.2,23.4,20.4c7.9-1.2,11.9-5.9,12.7-14.9c0.8-8.9,1.9-18.6-7.8-23.9
	C93.7,34,79.5,42.4,79.3,58.1C79.3,58.8,79.3,59.4,79.3,60.1z"
  />
  <path
    class="st2"
    style="fill:#757577;"
    d="M207.2,70.2c0.5-7.1,0.3-14.4,1.7-21.3c2.8-13.8,11.3-20.9,25.3-21.9c8.9-0.6,17.8-0.2,25.3,5.6
	c8.2,6.4,10.3,15.6,10.7,25.3c0.4,9.3,0.2,18.7,0,28c0,2.3,1.7,5.8-2.8,6.1c-4.1,0.3-8.2,0.2-9.9-4.7c-0.5-1.4-0.4-2.9-0.4-4.4
	c0-8.5,0.1-17-0.1-25.5c-0.1-6.8-1.6-13.2-8.6-16.1c-7.7-3.2-15.4-3-22.3,2.1c-5.2,3.9-5.5,10.1-5.6,15.9c-0.3,9.3-0.3,18.7,0,28
	c0.2,4.9-2.4,5-5.9,4.8c-3.4-0.2-7.3,1-7-4.8c0.3-5.6,0.1-11.3,0.1-17C207.5,70.2,207.4,70.2,207.2,70.2z"
  />
  <path
    class="st2"
    style="fill:#757577;"
    d="M58.6,48.2c-8.9,2.3-11.3,1.5-15.7-4.7c-5.5-7.8-21.3-6.7-26.1,2.3c-5.3,9.9-5.3,20.3,0.7,30
	c5.5,8.8,21.2,8.7,25.8-0.3c2.2-4.4,4.8-5.7,9.2-5.1c1.7,0.2,3.6,0,5.8,0c-0.7,6.4-2.7,11.6-6.9,15.7C40.8,96.5,18.4,96,8.2,85.2
	c-5.9-6.3-7.7-14.4-7.9-22.6C0.1,51,1.8,39.9,12,32.1c9.9-7.6,36.6-8.6,43.6,7.4C56.8,42.2,57.5,45.1,58.6,48.2z"
  />
  <path
    class="st2"
    style="fill:#757577;"
    d="M141,66.8c0-7-0.1-14,0-21c0-2.9-0.6-4.9-4.1-4.7c-4,0.2-3.5-2.9-3.3-5.3c0.3-2.6-1.8-6.6,3.1-7
	c2.8-0.2,4.3-1,4.3-4.1c-0.3-16.6,11.1-22.1,23.5-23.8c1-0.1,2-0.4,3-0.2c2.4,0.5,6.3-3.1,6.9,2.4c0.8,6.7-0.8,9.2-6.4,10.2
	c-2.8,0.5-5.6,0.9-8.2,1.8c-4.4,1.6-7.1,7.3-5.3,11.5c0.4,1,2.2,1.9,3.5,2c3.5,0.3,7,0,10.5,0.2c2.6,0.1,5.9-1.2,6,3.6
	c0.1,5.5-1.4,8.3-5.8,8.7c-2.8,0.3-5.7,0.3-8.5,0c-4.5-0.4-6.1,1.1-6,5.8c0.3,13.1,0,26.3,0.2,39.5c0.1,4.2-0.9,6-5.5,5.8
	c-7.8-0.3-7.8,0-7.8-7.9C141,78.5,141,72.6,141,66.8z"
  />
  <path
    class="st2"
    style="fill:#757577;"
    d="M184.1,60.6c0-8.7-0.1-17.3,0-26c0-2.3-1.3-5.6,3.1-5.9c5.9-0.5,9,0.9,9.9,5.1c0.2,1.1,0.1,2.3,0.1,3.5
	c0,16.5-0.1,32.9,0.1,49.4c0,4-1,6-5.3,5.4c-1.3-0.2-2.7-0.1-4,0c-3,0.3-4.1-1-4.1-4.1C184.1,78.9,184.1,69.7,184.1,60.6z"
  />
  <path
    class="st2"
    style="fill:#757577;"
    d="M183.1,15.1c0.2-3.7,4.2-7.2,7.9-7c3.7,0.2,7.3,4.2,7,7.8c-0.3,3.9-4,7.2-7.8,6.9
	C186.2,22.6,182.9,18.9,183.1,15.1z"
  />
</svg>
