<?xml version="1.0" encoding="utf-8"?>
<!-- Generator: Adobe Illustrator 23.1.1, SVG Export Plug-In . SVG Version: 6.00 Build 0)  -->
<svg version="1.1" id="Calque_1" xmlns="http://www.w3.org/2000/svg" xmlns:xlink="http://www.w3.org/1999/xlink" x="0px" y="0px"
	 viewBox="0 0 122.5 74.1" style="enable-background:new 0 0 122.5 74.1;" xml:space="preserve">
    <g>
    <linearGradient
      id="SVGID_1_facilypay"
      gradientUnits="userSpaceOnUse"
      x1="0.5856"
      y1="58.0099"
      x2="122.5856"
      y2="58.0099"
    >
      <stop offset="0" style="stop-color:#98BE15" />
      <stop offset="0.9888" style="stop-color:#449B2A" />
    </linearGradient>
    <rect x="0.6" y="50.5" class="st0" style="fill:url(#SVGID_1_facilypay);" width="122" height="15" />
    <path
      class="st1"
      style="fill:#B7B7B8;"
      d="M117.3,72.7l-110.7,0c-2.9,0-5.2-2.4-5.2-5.3V5.2c0-1.1,0.3-2.1,0.9-2.9C0.9,3.2,0,4.9,0,6.7l0,62.1
		c0,2.9,2.3,5.3,5.2,5.3h110.7c0,0,0,0,0,0c1.8,0,3.3-0.9,4.3-2.3C119.4,72.3,118.4,72.7,117.3,72.7
		C117.3,72.7,117.3,72.7,117.3,72.7z"
    />

    <linearGradient
      id="SVGID_2_facilypay"
      gradientUnits="userSpaceOnUse"
      x1="-120.4144"
      y1="-92.5216"
      x2="-119.4144"
      y2="-92.5216"
      gradientTransform="matrix(128.33 22.6533 22.8345 -127.3052 17562.5371 -9021.6875)"
    >
      <stop offset="0" style="stop-color:#BCCC05" />
      <stop offset="8.182079e-02" style="stop-color:#B7CA07" />
      <stop offset="0.6768" style="stop-color:#95BE14" />
      <stop offset="1" style="stop-color:#88B919" />
    </linearGradient>
    <path
      class="st2"
      style="fill:url(#SVGID_2_facilypay);"
      d="M35.7,40.1c0.4,0,0.7-0.1,1-0.1c1-0.9,1.5-2.3,1.8-3.7c0.4-2.2,0.3-4.7-2.4-4.7c-0.4,0-0.7,0.1-1,0.1
		c-1,0.9-1.5,2.4-1.8,3.7C32.8,37.7,33,40.1,35.7,40.1z"
    />

    <linearGradient
      id="SVGID_3_facilypay"
      gradientUnits="userSpaceOnUse"
      x1="-120.4144"
      y1="-92.5153"
      x2="-119.4144"
      y2="-92.5153"
      gradientTransform="matrix(128.33 22.6533 22.8345 -127.3052 17562.5371 -9021.6875)"
    >
      <stop offset="0" style="stop-color:#BCCC05" />
      <stop offset="8.182079e-02" style="stop-color:#B7CA07" />
      <stop offset="0.6768" style="stop-color:#95BE14" />
      <stop offset="1" style="stop-color:#88B919" />
    </linearGradient>
    <path
      class="st3"
      style="fill:url(#SVGID_3_facilypay);"
      d="M60.4,39l0.3-1.7c-1,0.4-2.1,0.7-3.2,0.9c-0.4,0.1-0.7,0.2-1.1,0.3c-0.2,0.3-0.4,0.6-0.5,1
		c-0.2,0.9,0.7,1.7,2.1,1.7c0.4,0,0.8-0.1,1.1-0.2C59.7,40.5,60.2,39.8,60.4,39z"
    />

    <linearGradient
      id="SVGID_4_facilypay"
      gradientUnits="userSpaceOnUse"
      x1="-120.4144"
      y1="-92.3636"
      x2="-119.4144"
      y2="-92.3636"
      gradientTransform="matrix(128.33 22.6533 22.8345 -127.3052 17562.5371 -9021.6875)"
    >
      <stop offset="0" style="stop-color:#BCCC05" />
      <stop offset="8.182079e-02" style="stop-color:#B7CA07" />
      <stop offset="0.6768" style="stop-color:#95BE14" />
      <stop offset="1" style="stop-color:#88B919" />
    </linearGradient>
    <polygon class="st4" style="fill:url(#SVGID_4_facilypay);" points="46.3,18.7 45.6,14.5 43.1,18.7 	" />

    <linearGradient
      id="SVGID_5_facilypay"
      gradientUnits="userSpaceOnUse"
      x1="-120.4144"
      y1="-92.4928"
      x2="-119.4144"
      y2="-92.4928"
      gradientTransform="matrix(128.33 22.6533 22.8345 -127.3052 17562.5371 -9021.6875)"
    >
      <stop offset="0" style="stop-color:#BCCC05" />
      <stop offset="8.182079e-02" style="stop-color:#B7CA07" />
      <stop offset="0.6768" style="stop-color:#95BE14" />
      <stop offset="1" style="stop-color:#88B919" />
    </linearGradient>
    <path
      class="st5"
      style="fill:url(#SVGID_5_facilypay);"
      d="M92.5,40.2c-1,0-1.9,0.8-1.9,1.9s0.8,1.9,1.9,1.9c1,0,1.9-0.8,1.9-1.9S93.6,40.2,92.5,40.2z"
    />

    <linearGradient
      id="SVGID_6_facilypay"
      gradientUnits="userSpaceOnUse"
      x1="-120.4144"
      y1="-92.4683"
      x2="-119.4144"
      y2="-92.4683"
      gradientTransform="matrix(128.33 22.6533 22.8345 -127.3052 17562.5371 -9021.6875)"
    >
      <stop offset="0" style="stop-color:#BCCC05" />
      <stop offset="8.182079e-02" style="stop-color:#B7CA07" />
      <stop offset="0.6768" style="stop-color:#95BE14" />
      <stop offset="1" style="stop-color:#88B919" />
    </linearGradient>
    <path
      class="st6"
      style="fill:url(#SVGID_6_facilypay);"
      d="M104.7,40.2c-0.9,0-1.6,0.7-1.7,1.4h3.4C106.2,40.9,105.6,40.2,104.7,40.2z"
    />

    <linearGradient
      id="SVGID_7_facilypay"
      gradientUnits="userSpaceOnUse"
      x1="-120.4144"
      y1="-92.4901"
      x2="-119.4144"
      y2="-92.4901"
      gradientTransform="matrix(128.33 22.6533 22.8345 -127.3052 17562.5371 -9021.6875)"
    >
      <stop offset="0" style="stop-color:#BCCC05" />
      <stop offset="8.182079e-02" style="stop-color:#B7CA07" />
      <stop offset="0.6768" style="stop-color:#95BE14" />
      <stop offset="1" style="stop-color:#88B919" />
    </linearGradient>
    <path
      class="st7"
      style="fill:url(#SVGID_7_facilypay);"
      d="M1.4,51.3l20.1,0l4.8-24.4h1.3l0.2-0.8h7.4l-0.3,1.6c0.4-0.3,0.8-0.5,1.3-0.7c1.1-0.8,2.5-1.4,5-1.4
		c5.7,0,7.4,5.2,6.5,9.9c-0.7,3.4-2.5,7.3-6.4,8.9c-1.5,1-3.3,1.6-5.5,1.6c-1.6,0-3-0.5-4-1.3l-1.2,6.1h-1.3l-0.1,0.3l38.7,0l1-5.2
		h1.3l0.2-0.8h1.8c0.5,0,1.1,0,1.6,0c0.1-0.2,0.2-0.4,0.3-0.8c0.2-0.9-1.4-7.8-1.6-8.9l-1.7-8.6h1.6l-0.2-0.8h8.2l0.9,9.1l4.2-8.3
		h1.1l0.4-0.8h7.9l-10,17.3c-0.9,1.7-2.1,3.8-3.5,5.2c-0.7,0.7-1.5,1.2-2.3,1.5c-0.8,0.5-1.5,0.9-2.4,1.1l46,0v-46
		c0-2.9-2.3-5.2-5.1-5.2H6.6c0,0,0,0,0,0C4.8,0,3.3,0.9,2.3,2.3C1.8,3.1,1.4,4.2,1.4,5.2v62.1c0,2.9,2.3,5.3,5.2,5.3l110.7,0
		c0,0,0,0,0,0c1.1,0,2-0.3,2.9-0.9c1.4-0.9,2.3-2.5,2.3-4.3v-2.4H1.4V51.3z M70.2,33l-1.5,7.7c-0.3,1.4-0.5,3,0.1,4.2h-1.7
		c0.1,0.3,0.1,0.5,0.3,0.8h-7.8c-0.1-0.4-0.1-1.1,0-1.6c-0.3,0.2-0.5,0.3-0.8,0.4c-1.8,1.2-3.9,1.6-6.1,1.6c-3.9,0-6.7-1.7-6-5.7
		c0.5-2.5,2.1-3.9,4-4.7c2.8-1.9,7.2-2,10-2.5c0.2,0,0.4-0.1,0.6-0.1c0.2-0.2,0.3-0.4,0.3-0.8c0.2-1.3-0.9-1.7-2.2-1.7
		c-0.5,0-0.9,0.1-1.3,0.1c-0.3,0.3-0.4,0.7-0.5,1h-1.1c-0.2,0.3-0.3,0.5-0.4,0.8h-7.1c0.6-2.6,2.3-4.1,4.3-5
		c2.3-1.6,5.6-1.9,8.6-1.9C71.7,25.6,70.9,29.4,70.2,33z M92.5,45c-1.6,0-2.9-1.3-2.9-2.9c0-1.6,1.3-2.9,2.9-2.9
		c1.6,0,2.9,1.3,2.9,2.9C95.4,43.7,94.2,45,92.5,45z M108.5,39.2l1.7,4.1l1.7-4.1h1.1l-2.2,5.4l-0.5,1.3l-0.3,0.7h-1.1l0.8-2.1
		l-2.3-5.4H108.5z M104.7,39.2c1.5,0,2.8,1.3,2.8,2.8c0,0.2,0,0.4,0,0.5h-4.5c0.2,1,1.1,1.5,1.8,1.5c0.6,0,1.1-0.2,1.4-0.6l0,0h1.1
		l0,0c-0.6,1.2-1.8,1.6-2.6,1.6c-0.8,0-1.5-0.3-2-0.9c-0.5-0.6-0.8-1.3-0.8-2C101.8,40.5,103.1,39.2,104.7,39.2z M100.9,40.3
		c0.2,0.4,0.3,0.8,0.3,1.4V45h-1.1v-3.2c0-1.1-0.5-1.6-1.5-1.6s-1.5,0.5-1.5,1.6V45H96v-3.3c0-0.6,0.1-1,0.3-1.4
		c0.3-0.4,0.9-1.2,2.2-1.2C99.9,39.2,100.6,39.9,100.9,40.3z M84.1,10h3.2l2.6,5.9l4.2-5.1h0.8l0.6-0.8h3.1l-7.6,8.8l-1.1,5.7h-1.3
		l-0.2,0.8h-2.7l1.1-5.7l-4.1-8.8h1.8L84.1,10z M76.3,10h2.7l-2.4,12.3h7.9l-0.4,2.2h-1.3l-0.2,0.8H72l2.9-14.5h1.3L76.3,10z
		 M70.8,10h2.7l-2.9,14.5h-1.3l-0.2,0.8h-2.7l2.9-14.5h1.3L70.8,10z M51.9,18c0.6-3,2.6-5.7,5.5-6.9c1.4-0.9,3.1-1.5,4.9-1.5
		c3.5,0,5.9,1.8,5.6,5h-1.4c0,0.3,0,0.5,0,0.8h-2.7c-0.1-1.7-1-2.9-3.3-2.9c-0.7,0-1.2,0.1-1.8,0.3c-1.4,1.1-2.2,2.7-2.6,4.5
		c-0.5,2.8,0.3,5.5,3.6,5.5c0.5,0,1-0.1,1.5-0.2c0.9-0.7,1.5-1.7,1.8-2.8h1.2c0.1-0.3,0.2-0.5,0.3-0.8h2.7c-0.6,2.4-2.3,4.3-4.6,5.2
		c-1.3,0.9-2.9,1.4-4.7,1.4C53.2,25.6,51.1,22.2,51.9,18z M45.8,10h2.9l3.1,14.5h-1.6l0.2,0.8h-2.9l-0.7-3.8h-5.2l-1.8,3.1h-1
		l-0.5,0.8h-2.8l8.8-14.5h1L45.8,10z M29,10.7h1.3l0.2-0.8h10.7l-0.4,2.2h-1.3l-0.2,0.8h-6.7L32,16h7L38.7,18h-1.3l-0.2,0.8h-5.7
		l-1.1,5.7h-1.3l-0.2,0.8h-2.7L29,10.7z"
    />

    <linearGradient
      id="SVGID_8_facilypay"
      gradientUnits="userSpaceOnUse"
      x1="-120.4144"
      y1="-92.3909"
      x2="-119.4144"
      y2="-92.3909"
      gradientTransform="matrix(128.33 22.6533 22.8345 -127.3052 17562.5371 -9021.6875)"
    >
      <stop offset="0" style="stop-color:#83B415" />
      <stop offset="0.5715" style="stop-color:#6CAC1E" />
      <stop offset="1" style="stop-color:#5FA723" />
    </linearGradient>
    <polygon class="st8" style="fill:url(#SVGID_8_facilypay);" points="31.5,18.8 37.2,18.8 37.4,18 31.6,18 	" />

    <linearGradient
      id="SVGID_9_facilypay"
      gradientUnits="userSpaceOnUse"
      x1="-120.4144"
      y1="-92.3439"
      x2="-119.4144"
      y2="-92.3439"
      gradientTransform="matrix(128.33 22.6533 22.8345 -127.3052 17562.5371 -9021.6875)"
    >
      <stop offset="0" style="stop-color:#83B415" />
      <stop offset="0.5715" style="stop-color:#6CAC1E" />
      <stop offset="1" style="stop-color:#5FA723" />
    </linearGradient>
    <polygon class="st9" style="fill:url(#SVGID_9_facilypay);" points="32.6,12.9 39.3,12.9 39.5,12.2 32.8,12.2 	" />

    <linearGradient
      id="SVGID_10_facilypay"
      gradientUnits="userSpaceOnUse"
      x1="-120.4144"
      y1="-92.396"
      x2="-119.4144"
      y2="-92.396"
      gradientTransform="matrix(128.33 22.6533 22.8345 -127.3052 17562.5371 -9021.6875)"
    >
      <stop offset="0" style="stop-color:#83B415" />
      <stop offset="0.5715" style="stop-color:#6CAC1E" />
      <stop offset="1" style="stop-color:#5FA723" />
    </linearGradient>
    <polygon
      class="st10"
      style="fill:url(#SVGID_10_facilypay);"
      points="29.1,24.5 27.6,24.5 30.3,10.7 29,10.7 26.2,25.3 28.9,25.3 	"
    />

    <linearGradient
      id="SVGID_11_facilypay"
      gradientUnits="userSpaceOnUse"
      x1="-120.4144"
      y1="-92.3796"
      x2="-119.4144"
      y2="-92.3796"
      gradientTransform="matrix(128.33 22.6533 22.8345 -127.3052 17562.5371 -9021.6875)"
    >
      <stop offset="0" style="stop-color:#83B415" />
      <stop offset="0.5715" style="stop-color:#6CAC1E" />
      <stop offset="1" style="stop-color:#5FA723" />
    </linearGradient>
    <polygon
      class="st11"
      style="fill:url(#SVGID_11_facilypay);"
      points="35.5,25.3 38.4,25.3 38.8,24.5 37,24.5 45.3,10.7 44.4,10.7 	"
    />

    <linearGradient
      id="SVGID_12_facilypay"
      gradientUnits="userSpaceOnUse"
      x1="-120.4144"
      y1="-92.3529"
      x2="-119.4144"
      y2="-92.3529"
      gradientTransform="matrix(128.33 22.6533 22.8345 -127.3052 17562.5371 -9021.6875)"
    >
      <stop offset="0" style="stop-color:#83B415" />
      <stop offset="0.5715" style="stop-color:#6CAC1E" />
      <stop offset="1" style="stop-color:#5FA723" />
    </linearGradient>
    <polygon
      class="st12"
      style="fill:url(#SVGID_12_facilypay);"
      points="47.9,18.7 46.8,12.5 46.7,12.5 45.6,14.5 46.3,18.7 	"
    />

    <linearGradient
      id="SVGID_13_facilypay"
      gradientUnits="userSpaceOnUse"
      x1="-120.4144"
      y1="-92.4073"
      x2="-119.4144"
      y2="-92.4073"
      gradientTransform="matrix(128.33 22.6533 22.8345 -127.3052 17562.5371 -9021.6875)"
    >
      <stop offset="0" style="stop-color:#83B415" />
      <stop offset="0.5715" style="stop-color:#6CAC1E" />
      <stop offset="1" style="stop-color:#5FA723" />
    </linearGradient>
    <polygon
      class="st13"
      style="fill:url(#SVGID_13_facilypay);"
      points="48.2,20.7 42,20.7 41.6,21.4 46.8,21.4 47.5,25.3 50.4,25.3 50.2,24.5 48.9,24.5 	"
    />

    <linearGradient
      id="SVGID_14_facilypay"
      gradientUnits="userSpaceOnUse"
      x1="-120.4144"
      y1="-92.3596"
      x2="-119.4144"
      y2="-92.3596"
      gradientTransform="matrix(128.33 22.6533 22.8345 -127.3052 17562.5371 -9021.6875)"
    >
      <stop offset="0" style="stop-color:#83B415" />
      <stop offset="0.5715" style="stop-color:#6CAC1E" />
      <stop offset="1" style="stop-color:#5FA723" />
    </linearGradient>
    <path
      class="st14"
      style="fill:url(#SVGID_14_facilypay);"
      d="M57.9,25.6c1.7,0,3.3-0.5,4.7-1.4c-1,0.4-2.1,0.7-3.2,0.7c-4.7,0-6.8-3.5-6-7.6c0.5-2.5,1.9-4.7,4-6.1
		c-2.9,1.2-4.9,3.9-5.5,6.9C51.1,22.2,53.2,25.6,57.9,25.6z"
    />

    <linearGradient
      id="SVGID_15_facilypay"
      gradientUnits="userSpaceOnUse"
      x1="-120.4144"
      y1="-92.3734"
      x2="-119.4144"
      y2="-92.3734"
      gradientTransform="matrix(128.33 22.6533 22.8345 -127.3052 17562.5371 -9021.6875)"
    >
      <stop offset="0" style="stop-color:#83B415" />
      <stop offset="0.5715" style="stop-color:#6CAC1E" />
      <stop offset="1" style="stop-color:#5FA723" />
    </linearGradient>
    <path
      class="st15"
      style="fill:url(#SVGID_15_facilypay);"
      d="M64.2,19.7H63c-0.3,1.1-1,2.1-1.8,2.8C62.6,22.1,63.6,21,64.2,19.7z"
    />

    <linearGradient
      id="SVGID_16_facilypay"
      gradientUnits="userSpaceOnUse"
      x1="-120.4144"
      y1="-92.315"
      x2="-119.4144"
      y2="-92.315"
      gradientTransform="matrix(128.33 22.6533 22.8345 -127.3052 17562.5371 -9021.6875)"
    >
      <stop offset="0" style="stop-color:#83B415" />
      <stop offset="0.5715" style="stop-color:#6CAC1E" />
      <stop offset="1" style="stop-color:#5FA723" />
    </linearGradient>
    <path
      class="st16"
      style="fill:url(#SVGID_16_facilypay);"
      d="M61.9,11.7c-1.3,0-2.4,0.4-3.2,1.1c0.5-0.2,1.1-0.3,1.8-0.3c2.3,0,3.2,1.2,3.3,2.9h2.7c0-0.3,0-0.5,0-0.8
		h-1.3C65.1,12.9,64.2,11.7,61.9,11.7z"
    />

    <linearGradient
      id="SVGID_17_facilypay"
      gradientUnits="userSpaceOnUse"
      x1="-120.4144"
      y1="-92.3417"
      x2="-119.4144"
      y2="-92.3417"
      gradientTransform="matrix(128.33 22.6533 22.8345 -127.3052 17562.5371 -9021.6875)"
    >
      <stop offset="0" style="stop-color:#83B415" />
      <stop offset="0.5715" style="stop-color:#6CAC1E" />
      <stop offset="1" style="stop-color:#5FA723" />
    </linearGradient>
    <polygon
      class="st17"
      style="fill:url(#SVGID_17_facilypay);"
      points="66.5,25.3 69.2,25.3 69.4,24.5 68,24.5 70.7,10.7 69.4,10.7 	"
    />

    <linearGradient
      id="SVGID_18_facilypay"
      gradientUnits="userSpaceOnUse"
      x1="-120.4144"
      y1="-92.3343"
      x2="-119.4144"
      y2="-92.3343"
      gradientTransform="matrix(128.33 22.6533 22.8345 -127.3052 17562.5371 -9021.6875)"
    >
      <stop offset="0" style="stop-color:#83B415" />
      <stop offset="0.5715" style="stop-color:#6CAC1E" />
      <stop offset="1" style="stop-color:#5FA723" />
    </linearGradient>
    <polygon
      class="st18"
      style="fill:url(#SVGID_18_facilypay);"
      points="72,25.3 82.7,25.3 82.8,24.5 73.5,24.5 76.2,10.7 74.9,10.7 	"
    />

    <linearGradient
      id="SVGID_19_facilypay"
      gradientUnits="userSpaceOnUse"
      x1="-120.4144"
      y1="-92.2761"
      x2="-119.4144"
      y2="-92.2761"
      gradientTransform="matrix(128.33 22.6533 22.8345 -127.3052 17562.5371 -9021.6875)"
    >
      <stop offset="0" style="stop-color:#83B415" />
      <stop offset="0.5715" style="stop-color:#6CAC1E" />
      <stop offset="1" style="stop-color:#5FA723" />
    </linearGradient>
    <polygon class="st19" style="fill:url(#SVGID_19_facilypay);" points="94.8,10.7 94,10.7 89.8,15.8 90.1,16.5 	" />

    <linearGradient
      id="SVGID_20_facilypay"
      gradientUnits="userSpaceOnUse"
      x1="-120.4144"
      y1="-92.3196"
      x2="-119.4144"
      y2="-92.3196"
      gradientTransform="matrix(128.33 22.6533 22.8345 -127.3052 17562.5371 -9021.6875)"
    >
      <stop offset="0" style="stop-color:#83B415" />
      <stop offset="0.5715" style="stop-color:#6CAC1E" />
      <stop offset="1" style="stop-color:#5FA723" />
    </linearGradient>
    <polygon
      class="st20"
      style="fill:url(#SVGID_20_facilypay);"
      points="86.8,19.6 85.6,25.3 88.4,25.3 88.5,24.5 87.1,24.5 88.2,18.8 84.5,10.7 82.6,10.7 	"
    />

    <linearGradient
      id="SVGID_21_facilypay"
      gradientUnits="userSpaceOnUse"
      x1="-120.4144"
      y1="-92.5613"
      x2="-119.4144"
      y2="-92.5613"
      gradientTransform="matrix(128.33 22.6533 22.8345 -127.3052 17562.5371 -9021.6875)"
    >
      <stop offset="0" style="stop-color:#83B415" />
      <stop offset="0.5715" style="stop-color:#6CAC1E" />
      <stop offset="1" style="stop-color:#5FA723" />
    </linearGradient>
    <polygon
      class="st21"
      style="fill:url(#SVGID_21_facilypay);"
      points="22.9,50.9 27.6,26.9 26.3,26.9 21.5,51.3 29.2,51.3 29.2,50.9 	"
    />

    <linearGradient
      id="SVGID_22_facilypay"
      gradientUnits="userSpaceOnUse"
      x1="-120.4144"
      y1="-92.4593"
      x2="-119.4144"
      y2="-92.4593"
      gradientTransform="matrix(128.33 22.6533 22.8345 -127.3052 17562.5371 -9021.6875)"
    >
      <stop offset="0" style="stop-color:#83B415" />
      <stop offset="0.5715" style="stop-color:#6CAC1E" />
      <stop offset="1" style="stop-color:#5FA723" />
    </linearGradient>
    <path
      class="st22"
      style="fill:url(#SVGID_22_facilypay);"
      d="M34.8,28.2c0.4-0.4,0.8-0.8,1.3-1.1c-0.5,0.2-0.9,0.4-1.3,0.7L34.8,28.2L34.8,28.2z"
    />

    <linearGradient
      id="SVGID_23_facilypay"
      gradientUnits="userSpaceOnUse"
      x1="-120.4144"
      y1="-92.5163"
      x2="-119.4144"
      y2="-92.5163"
      gradientTransform="matrix(128.33 22.6533 22.8345 -127.3052 17562.5371 -9021.6875)"
    >
      <stop offset="0" style="stop-color:#83B415" />
      <stop offset="0.5715" style="stop-color:#6CAC1E" />
      <stop offset="1" style="stop-color:#5FA723" />
    </linearGradient>
    <path
      class="st23"
      style="fill:url(#SVGID_23_facilypay);"
      d="M38.5,36.3c-0.3,1.4-0.8,2.8-1.8,3.7c2-0.5,2.9-2.6,3.2-4.5c0.4-2.2,0.3-4.7-2.4-4.7c-1,0-1.9,0.4-2.5,0.9
		c0.3-0.1,0.7-0.1,1-0.1C38.8,31.6,39,34,38.5,36.3z"
    />

    <linearGradient
      id="SVGID_24_facilypay"
      gradientUnits="userSpaceOnUse"
      x1="-120.4144"
      y1="-92.59"
      x2="-119.4144"
      y2="-92.59"
      gradientTransform="matrix(128.33 22.6533 22.8345 -127.3052 17562.5371 -9021.6875)"
    >
      <stop offset="0" style="stop-color:#83B415" />
      <stop offset="0.5715" style="stop-color:#6CAC1E" />
      <stop offset="1" style="stop-color:#5FA723" />
    </linearGradient>
    <path
      class="st24"
      style="fill:url(#SVGID_24_facilypay);"
      d="M32.2,42.8L32.2,42.8l-0.5,2c1,0.8,2.4,1.3,4,1.3c2.3,0,4.1-0.6,5.5-1.6c-1.2,0.5-2.5,0.8-4.1,0.8
		C34.9,45.3,33,44.4,32.2,42.8z"
    />

    <linearGradient
      id="SVGID_25_facilypay"
      gradientUnits="userSpaceOnUse"
      x1="-120.4144"
      y1="-92.5098"
      x2="-119.4144"
      y2="-92.5098"
      gradientTransform="matrix(128.33 22.6533 22.8345 -127.3052 17562.5371 -9021.6875)"
    >
      <stop offset="0" style="stop-color:#83B415" />
      <stop offset="0.5715" style="stop-color:#6CAC1E" />
      <stop offset="1" style="stop-color:#5FA723" />
    </linearGradient>
    <path
      class="st25"
      style="fill:url(#SVGID_25_facilypay);"
      d="M56.5,38.4c0.3-0.1,0.7-0.2,1.1-0.3c1.1-0.2,2.2-0.5,3.2-0.9L60.4,39c-0.2,0.9-0.6,1.5-1.2,2
		c1.2-0.3,2.2-1.3,2.6-2.8l0.3-1.7c-1,0.4-2.1,0.7-3.2,0.9C57.8,37.6,57,37.9,56.5,38.4z"
    />

    <linearGradient
      id="SVGID_26_facilypay"
      gradientUnits="userSpaceOnUse"
      x1="-120.4144"
      y1="-92.4542"
      x2="-119.4144"
      y2="-92.4542"
      gradientTransform="matrix(128.33 22.6533 22.8345 -127.3052 17562.5371 -9021.6875)"
    >
      <stop offset="0" style="stop-color:#83B415" />
      <stop offset="0.5715" style="stop-color:#6CAC1E" />
      <stop offset="1" style="stop-color:#5FA723" />
    </linearGradient>
    <path
      class="st26"
      style="fill:url(#SVGID_26_facilypay);"
      d="M63.1,31.6c0.2-1.3-0.9-1.7-2.2-1.7c-1.4,0-2.3,0.4-2.7,0.9c0.4-0.1,0.8-0.1,1.3-0.1c1.2,0,2.4,0.5,2.2,1.7
		c-0.1,0.3-0.2,0.6-0.3,0.8C62.2,32.9,62.9,32.6,63.1,31.6z"
    />

    <linearGradient
      id="SVGID_27_facilypay"
      gradientUnits="userSpaceOnUse"
      x1="-120.4144"
      y1="-92.4568"
      x2="-119.4144"
      y2="-92.4568"
      gradientTransform="matrix(128.33 22.6533 22.8345 -127.3052 17562.5371 -9021.6875)"
    >
      <stop offset="0" style="stop-color:#83B415" />
      <stop offset="0.5715" style="stop-color:#6CAC1E" />
      <stop offset="1" style="stop-color:#5FA723" />
    </linearGradient>
    <path
      class="st27"
      style="fill:url(#SVGID_27_facilypay);"
      d="M53.5,27.6c-2.1,0.9-3.7,2.4-4.3,5h7.1c0.1-0.2,0.2-0.5,0.4-0.8h-6C51.1,29.8,52.1,28.5,53.5,27.6z"
    />

    <linearGradient
      id="SVGID_28_facilypay"
      gradientUnits="userSpaceOnUse"
      x1="-120.4144"
      y1="-92.5535"
      x2="-119.4144"
      y2="-92.5535"
      gradientTransform="matrix(128.33 22.6533 22.8345 -127.3052 17562.5371 -9021.6875)"
    >
      <stop offset="0" style="stop-color:#83B415" />
      <stop offset="0.5715" style="stop-color:#6CAC1E" />
      <stop offset="1" style="stop-color:#5FA723" />
    </linearGradient>
    <path
      class="st28"
      style="fill:url(#SVGID_28_facilypay);"
      d="M61.1,43.1L61.1,43.1c-0.5,0.4-1,0.7-1.5,1c-0.1,0.5-0.1,1.1,0,1.6h7.8c-0.1-0.2-0.2-0.5-0.3-0.8H61
		C60.9,44.3,60.9,43.6,61.1,43.1z"
    />

    <linearGradient
      id="SVGID_29_facilypay"
      gradientUnits="userSpaceOnUse"
      x1="-120.4144"
      y1="-92.5395"
      x2="-119.4144"
      y2="-92.5395"
      gradientTransform="matrix(128.33 22.6533 22.8345 -127.3052 17562.5371 -9021.6875)"
    >
      <stop offset="0" style="stop-color:#83B415" />
      <stop offset="0.5715" style="stop-color:#6CAC1E" />
      <stop offset="1" style="stop-color:#5FA723" />
    </linearGradient>
    <path
      class="st29"
      style="fill:url(#SVGID_29_facilypay);"
      d="M48.1,39.7c0.4-1.8,1.3-3.1,2.6-3.9c-2,0.8-3.5,2.2-4,4.7c-0.8,3.9,2.1,5.7,6,5.7c2.1,0,4.3-0.4,6.1-1.6
		c-1.5,0.6-3,0.8-4.6,0.8C50.2,45.3,47.4,43.6,48.1,39.7z"
    />

    <linearGradient
      id="SVGID_30_facilypay"
      gradientUnits="userSpaceOnUse"
      x1="-120.4144"
      y1="-92.473"
      x2="-119.4144"
      y2="-92.473"
      gradientTransform="matrix(128.33 22.6533 22.8345 -127.3052 17562.5371 -9021.6875)"
    >
      <stop offset="0" style="stop-color:#83B415" />
      <stop offset="0.5715" style="stop-color:#6CAC1E" />
      <stop offset="1" style="stop-color:#5FA723" />
    </linearGradient>
    <path
      class="st30"
      style="fill:url(#SVGID_30_facilypay);"
      d="M75.5,43.6c0.2-0.9-1.4-7.8-1.6-8.9l-1.6-7.8h-1.6l1.7,8.6c0.2,1.1,1.8,8,1.6,8.9c-0.1,0.3-0.2,0.6-0.3,0.8
		c0.3,0,0.5-0.1,0.7-0.2C75,44.8,75.3,44.5,75.5,43.6z"
    />

    <linearGradient
      id="SVGID_31_facilypay"
      gradientUnits="userSpaceOnUse"
      x1="-120.4144"
      y1="-92.4267"
      x2="-119.4144"
      y2="-92.4267"
      gradientTransform="matrix(128.33 22.6533 22.8345 -127.3052 17562.5371 -9021.6875)"
    >
      <stop offset="0" style="stop-color:#83B415" />
      <stop offset="0.5715" style="stop-color:#6CAC1E" />
      <stop offset="1" style="stop-color:#5FA723" />
    </linearGradient>
    <polygon
      class="st31"
      style="fill:url(#SVGID_31_facilypay);"
      points="81.5,36.9 86.5,26.9 85.4,26.9 81.3,35.2 81.4,36.9 	"
    />

    <linearGradient
      id="SVGID_32_facilypay"
      gradientUnits="userSpaceOnUse"
      x1="-120.4144"
      y1="-92.5742"
      x2="-119.4144"
      y2="-92.5742"
      gradientTransform="matrix(128.33 22.6533 22.8345 -127.3052 17562.5371 -9021.6875)"
    >
      <stop offset="0" style="stop-color:#83B415" />
      <stop offset="0.5715" style="stop-color:#6CAC1E" />
      <stop offset="1" style="stop-color:#5FA723" />
    </linearGradient>
    <path
      class="st32"
      style="fill:url(#SVGID_32_facilypay);"
      d="M72.7,50.9h-3.5l1-4.9h-1.3l-1,5.2l8.7,0c0.8-0.2,1.6-0.6,2.4-1.1C76.9,50.9,74.8,50.9,72.7,50.9z"
    />
    <polygon class="st33" fill="#FFFFFF" points="39.5,12.2 40.8,12.2 41.2,10 30.5,10 30.3,10.7 39.8,10.7 	" />
    <polygon class="st33" fill="#FFFFFF" points="29.1,24.5 30.4,24.5 31.5,18.8 30.2,18.8 	" />
    <polygon
      class="st33"
      fill="#FFFFFF"
      points="30.6,16.7 37.6,16.7 37.4,18 38.7,18 39.1,16 32,16 32.6,12.9 31.3,12.9 	"
    />
    <polygon
      class="st33"
      fill="#FFFFFF"
      points="29.1,24.5 30.2,18.8 31.5,18.8 31.6,18 37.4,18 37.6,16.7 30.6,16.7 31.3,12.9 32.6,12.9 32.8,12.2
		39.5,12.2 39.8,10.7 30.3,10.7 27.6,24.5 	"
    />
    <polygon class="st33" fill="#FFFFFF" points="50.2,24.5 51.9,24.5 48.7,10 45.8,10 45.3,10.7 47.3,10.7 	" />
    <polygon
      class="st33"
      fill="#FFFFFF"
      points="46.3,18.7 43.1,18.7 45.6,14.5 45.3,13.2 45.3,13.2 41.7,19.5 46.4,19.5 	"
    />
    <polygon class="st33" fill="#FFFFFF" points="38.8,24.5 39.8,24.5 41.6,21.4 40.6,21.4 	" />
    <path
      class="st33"
      fill="#FFFFFF"
      d="M38.8,24.5l1.8-3.1h1l0.5-0.8h6.2l0.7,3.8h1.3l-3-13.8h-1.9L37,24.5H38.8z M45.3,13.2L45.3,13.2l0.3,1.2
		l1.2-2h0.1l1.1,6.2h-1.6l0.1,0.8h-4.7L45.3,13.2z"
    />
    <path
      class="st33"
      fill="#FFFFFF"
      d="M62.6,24.2c2.2-0.9,3.9-2.8,4.6-5.2h-2.7c-0.1,0.3-0.2,0.5-0.3,0.8h1.5C65.2,21.6,64.1,23.1,62.6,24.2z"
    />
    <path
      class="st33"
      fill="#FFFFFF"
      d="M54.7,18c-0.5,2.8,0.3,5.5,3.6,5.5c1.2,0,2.1-0.4,2.9-1c-0.5,0.1-0.9,0.2-1.5,0.2c-3.3,0-4.2-2.8-3.6-5.5
		c0.3-1.7,1.2-3.4,2.6-4.5C56.4,13.6,55.1,15.8,54.7,18z"
    />
    <path
      class="st33"
      fill="#FFFFFF"
      d="M66.5,14.6H68c0.3-3.1-2.1-4.9-5.6-5c-1.9,0-3.5,0.6-4.9,1.5c1.1-0.4,2.2-0.7,3.5-0.7
		C64.1,10.4,66.4,11.9,66.5,14.6z"
    />
    <path
      class="st33"
      fill="#FFFFFF"
      d="M53.4,17.2c-0.8,4.2,1.3,7.6,6,7.6c1.2,0,2.2-0.2,3.2-0.7c1.5-1,2.6-2.6,3.1-4.4h-1.5c-0.6,1.3-1.6,2.3-3,2.8
		c-0.8,0.6-1.8,1-2.9,1c-3.3,0-4.2-2.8-3.6-5.5c0.4-2.2,1.8-4.5,4-5.2c0.9-0.7,1.9-1.1,3.2-1.1c2.3,0,3.2,1.2,3.3,2.9h1.3
		c-0.2-2.6-2.4-4.2-5.6-4.2c-1.3,0-2.4,0.3-3.5,0.7C55.3,12.5,53.9,14.7,53.4,17.2z"
    />
    <polygon class="st33" fill="#FFFFFF" points="69.4,24.5 70.7,24.5 73.6,10 70.8,10 70.7,10.7 72.1,10.7 	" />
    <polygon class="st33" fill="#FFFFFF" points="69.4,24.5 72.1,10.7 70.7,10.7 68,24.5 	" />
    <polygon
      class="st33"
      fill="#FFFFFF"
      points="75.2,23.1 83.1,23.1 82.8,24.5 84.1,24.5 84.5,22.3 76.6,22.3 79.1,10 76.3,10 76.2,10.7 77.6,10.7
		"
    />
    <polygon class="st33" fill="#FFFFFF" points="82.8,24.5 83.1,23.1 75.2,23.1 77.6,10.7 76.2,10.7 73.5,24.5 	" />
    <polygon
      class="st33"
      fill="#FFFFFF"
      points="89.5,19.6 88.5,24.5 89.8,24.5 90.9,18.8 98.5,10 95.4,10 94.8,10.7 97,10.7 	"
    />
    <polygon class="st33" fill="#FFFFFF" points="88.6,17.3 89.8,15.8 87.3,10 84.1,10 84.5,10.7 85.8,10.7 	" />
    <polygon
      class="st33"
      fill="#FFFFFF"
      points="87.1,24.5 88.5,24.5 89.5,19.6 97,10.7 94.8,10.7 90.1,16.5 89.8,15.8 88.6,17.3 85.8,10.7
		84.5,10.7 88.2,18.8 	"
    />
    <path class="st33" fill="#FFFFFF" d="M30.7,43.6L30.7,43.6l-1.5,7.3h1.3l1.2-6.1C31.3,44.4,31,44,30.7,43.6z" />
    <path class="st33" fill="#FFFFFF" d="M33.3,29L33.3,29c0.5-0.4,1-0.9,1.5-1.3l0.3-1.6h-7.4l-0.2,0.8h6.1L33.3,29z" />
    <path
      class="st33"
      fill="#FFFFFF"
      d="M34.3,40.9c1.1,0,1.9-0.4,2.5-0.9c-0.3,0.1-0.7,0.1-1,0.1c-2.7,0-2.9-2.4-2.5-4.6c0.3-1.4,0.8-2.8,1.8-3.7
		c-2,0.5-2.9,2.6-3.3,4.5C31.4,38.5,31.5,40.9,34.3,40.9z"
    />
    <path
      class="st33"
      fill="#FFFFFF"
      d="M46.2,36.4c-0.6,2.9-2,6.3-4.9,8.2c3.9-1.6,5.7-5.6,6.4-8.9c0.9-4.7-0.8-9.9-6.5-9.9c-2.5,0-4,0.6-5,1.4
		c0.9-0.4,2-0.6,3.6-0.6C45.4,26.4,47.1,31.7,46.2,36.4z"
    />
    <path
      class="st33"
      fill="#FFFFFF"
      d="M29.2,50.9l1.4-7.3h0.1c0.2,0.5,0.6,0.9,1,1.2l0.4-2h0.1c0.8,1.6,2.7,2.5,5,2.5c1.6,0,2.9-0.3,4.1-0.8
		c2.9-1.9,4.3-5.2,4.9-8.2c0.9-4.7-0.8-9.9-6.5-9.9c-1.6,0-2.7,0.2-3.6,0.6c-0.5,0.4-0.9,0.8-1.3,1.1h-0.1l0.1-0.5
		c-0.6,0.4-1,0.8-1.5,1.3h-0.1l0.4-2.1h-6.1l-4.7,24H29.2z M31.8,36.3c0.4-1.9,1.3-4,3.3-4.5c0.6-0.6,1.4-0.9,2.5-0.9
		c2.7,0,2.9,2.4,2.4,4.7c-0.4,1.9-1.2,4-3.2,4.5c-0.6,0.6-1.4,0.9-2.5,0.9C31.5,40.9,31.4,38.5,31.8,36.3z"
    />
    <path
      class="st33"
      fill="#FFFFFF"
      d="M61.3,33.1c-0.2,0-0.4,0.1-0.6,0.1c-2.8,0.5-7.2,0.5-10,2.5c2.7-1.2,6.2-1.3,8.6-1.7
		C60.1,33.9,60.9,33.7,61.3,33.1z"
    />
    <path class="st33" fill="#FFFFFF" d="M56.6,31.8h1.1c0.1-0.3,0.2-0.7,0.5-1C57.4,31,56.9,31.4,56.6,31.8z" />
    <path
      class="st33"
      fill="#FFFFFF"
      d="M59.5,43.9c-0.3,0.2-0.5,0.4-0.8,0.6c0.3-0.1,0.6-0.3,0.8-0.4C59.6,44,59.6,43.9,59.5,43.9L59.5,43.9z"
    />
    <path
      class="st33"
      fill="#FFFFFF"
      d="M62.1,25.6c-3,0-6.3,0.4-8.6,1.9c2.2-0.9,4.8-1.2,7.2-1.2c9.6,0,8.8,3.7,8.1,7.3l-1.5,7.7
		c-0.2,1.1-0.4,2.3-0.2,3.4h1.7c-0.6-1.2-0.4-2.8-0.1-4.2l1.5-7.7C70.9,29.4,71.7,25.6,62.1,25.6z"
    />
    <path
      class="st33"
      fill="#FFFFFF"
      d="M56,39.4c0.1-0.4,0.2-0.7,0.5-1c-1.1,0.3-1.7,0.8-1.9,1.8c-0.2,0.9,0.7,1.7,2.1,1.7c1,0,1.9-0.3,2.6-0.9
		c-0.4,0.1-0.8,0.2-1.1,0.2C56.7,41.1,55.8,40.2,56,39.4z"
    />
    <path
      class="st33"
      fill="#FFFFFF"
      d="M67.2,41.5l1.5-7.7c0.7-3.6,1.5-7.3-8.1-7.3c-2.4,0-5,0.2-7.2,1.2c-1.4,0.9-2.4,2.3-2.9,4.2h6
		c0.3-0.4,0.8-0.8,1.6-1c0.5-0.5,1.3-0.9,2.7-0.9c1.2,0,2.4,0.5,2.2,1.7c-0.2,1-0.9,1.3-1.8,1.5c-0.5,0.6-1.3,0.8-2.1,0.9
		c-2.4,0.4-5.8,0.5-8.6,1.7c-1.3,0.9-2.2,2.1-2.6,3.9c-0.8,3.9,2.1,5.7,6,5.7c1.6,0,3.2-0.2,4.6-0.8c0.3-0.2,0.5-0.4,0.8-0.6h0.1
		c0,0.1,0,0.1,0,0.2c0.5-0.3,1-0.6,1.4-1h0.1c-0.1,0.5-0.2,1.3-0.1,1.8h6.1C66.8,43.8,67,42.6,67.2,41.5z M61.8,38.2
		c-0.4,1.5-1.4,2.4-2.6,2.8c-0.7,0.6-1.6,0.9-2.6,0.9c-1.4,0-2.2-0.9-2.1-1.7c0.2-1,0.8-1.4,1.9-1.8c0.5-0.5,1.3-0.8,2.5-1
		c1.1-0.2,2.2-0.5,3.2-0.9L61.8,38.2z"
    />
    <polygon
      class="st33"
      fill="#FFFFFF"
      points="80,37.7 80.1,37.7 81.3,35.2 80.3,26.1 72.2,26.1 72.3,26.9 78.9,26.9 	"
    />
    <path
      class="st33"
      fill="#FFFFFF"
      d="M71.6,46c0.5,0,1.1,0,1.4-0.2c0.3-0.1,0.5-0.3,0.7-0.6c-0.5,0.1-1.1,0-1.6,0h-1.8L70.2,46h0.5
		C70.9,46,71.3,46,71.6,46z"
    />
    <path
      class="st33"
      fill="#FFFFFF"
      d="M83.3,44.2c-0.9,1.7-2.1,3.8-3.5,5.2c-0.3,0.3-0.6,0.5-0.9,0.7c0.8-0.3,1.6-0.8,2.3-1.5
		c1.5-1.4,2.6-3.5,3.5-5.2l10-17.3h-7.9l-0.4,0.8h6.9L83.3,44.2z"
    />
    <path
      class="st33"
      fill="#FFFFFF"
      d="M72.7,50.9c2.1,0,4.2,0,6.2-0.8c0.3-0.2,0.6-0.4,0.9-0.7c1.5-1.4,2.6-3.5,3.5-5.2l10-17.3h-6.9l-5,10h-0.1
		l-0.2-1.6l-1.2,2.4H80l-1.1-10.8h-6.6l1.6,7.8c0.2,1.1,1.8,8,1.6,8.9c-0.2,0.8-0.5,1.2-1,1.4c-0.2,0.1-0.5,0.1-0.7,0.2
		c-0.2,0.3-0.4,0.5-0.7,0.6C72.6,46,72.1,46,71.6,46c-0.3,0-0.6,0-0.9,0h-0.5l-1,4.9H72.7z"
    />
    <polygon class="st33" fill="#FFFFFF" points="116.5,62.8 119.3,58.1 116.5,53.5 	" />
    <path
      class="st33"
      fill="#FFFFFF"
      d="M99.8,55.4c1,0,1.7,0.5,1.9,1.4h2.4c-0.1-2.2-2.2-3.5-4.2-3.5c-2.8,0-4.6,2.1-4.6,4.8c0,2.7,1.8,4.8,4.6,4.8
		c2.3,0,4.1-1.4,4.2-3.8h-2.4c-0.1,1.1-0.7,1.7-1.9,1.7c-1.5,0-2.1-1.4-2.1-2.7C97.7,56.8,98.3,55.4,99.8,55.4z"
    />
    <path
      class="st33"
      fill="#FFFFFF"
      d="M111.3,57.7c0.7-0.4,1.2-1,1.2-1.9c0-1.9-1.7-2.3-3.3-2.3h-4.3v9.2h4.4c2,0,3.6-0.7,3.6-2.9
		C112.9,58.8,112.3,58,111.3,57.7z M107.3,55.4h1.9c0.5,0,1,0.2,1,0.9c0,0.7-0.6,0.9-1,0.9h-1.9V55.4z M109.2,60.8h-1.9v-2.1h1.9
		c0.7,0,1.3,0.3,1.3,1.1C110.5,60.5,109.9,60.8,109.2,60.8z"
    />
    <path
      class="st33"
      fill="#FFFFFF"
      d="M45.4,61.2V58c0-1.5-1.2-1.7-2.3-1.7c-1.4,0-2.6,0.5-2.7,2.1h1c0-0.9,0.7-1.2,1.6-1.2c0.7,0,1.4,0.1,1.4,1
		c0,0.8-1,0.7-2.1,0.9c-1.1,0.2-2.1,0.5-2.1,1.9c0,1.2,0.9,1.8,2.1,1.8c0.9,0,1.6-0.3,2.2-1c0,0.7,0.3,1,0.9,1
		c0.3,0,0.6-0.1,0.7-0.2v-0.8c-0.1,0-0.2,0.1-0.3,0.1C45.4,61.9,45.4,61.7,45.4,61.2z M44.4,60.5c0,0.6-0.6,1.4-1.9,1.4
		c-0.6,0-1.2-0.2-1.2-0.9c0-0.8,0.6-1,1.3-1.1c0.7-0.1,1.5-0.1,1.9-0.4V60.5z"
    />
    <polygon
      class="st33"
      fill="#FFFFFF"
      points="49,61.6 49,61.6 47.3,56.4 46.1,56.4 48.4,62.7 49.5,62.7 51.8,56.4 50.7,56.4 	"
    />
    <path
      class="st33"
      fill="#FFFFFF"
      d="M55.1,56.3c-1.7,0-2.9,1.4-2.9,3.3c0.1,1.9,1,3.3,3,3.3c1.4,0,2.4-0.8,2.7-2.1h-1c-0.2,0.8-0.8,1.2-1.6,1.2
		c-1.4,0-2-1-2-2.1h4.7C58,58.3,57.3,56.3,55.1,56.3z M53.2,58.9c0.1-1,0.7-1.8,1.8-1.8c1,0,1.8,0.8,1.8,1.8H53.2z"
    />
    <path
      class="st33"
      fill="#FFFFFF"
      d="M61.2,61.9c-1.3,0-1.8-1.1-1.8-2.3c0-1.3,0.5-2.4,2-2.4c0.8,0,1.4,0.5,1.5,1.2H64c-0.1-1.5-1.3-2.2-2.7-2.2
		c-2,0-3,1.5-3,3.4c0,1.9,1,3.2,2.9,3.2c1.6,0,2.5-0.9,2.8-2.4H63C62.8,61.3,62.2,61.9,61.2,61.9z"
    />
    <polygon
      class="st33"
      fill="#FFFFFF"
      points="69.3,61.6 69.3,61.6 67.6,56.4 66.4,56.4 68.7,62.7 69.8,62.7 72.1,56.4 71,56.4 	"
    />
    <path
      class="st33"
      fill="#FFFFFF"
      d="M75.5,56.3c-2,0-3,1.4-3,3.3c0,1.8,1.1,3.3,3,3.3s3-1.4,3-3.3C78.5,57.7,77.5,56.3,75.5,56.3z M75.5,61.9
		c-1.1,0-1.9-0.8-1.9-2.4c0-1.5,0.9-2.4,1.9-2.4s1.9,0.8,1.9,2.4C77.4,61.1,76.5,61.9,75.5,61.9z"
    />
    <path
      class="st33"
      fill="#FFFFFF"
      d="M80.8,54.5h-1v1.9h-1.1v0.9h1.1v4c0,1.1,0.4,1.4,1.5,1.4h0.8v-0.9h-0.5c-0.6,0-0.8-0.1-0.8-0.6v-3.9h1.2v-0.9
		h-1.2V54.5z"
    />
    <path
      class="st33"
      fill="#FFFFFF"
      d="M86.2,56.3c-1.1,0-1.8,0.5-2.3,1.5h0v-1.3h-1v6.3h1v-2.8c0-1.6,0.6-2.5,2.3-2.5V56.3z"
    />
    <path
      class="st33"
      fill="#FFFFFF"
      d="M89,56.3c-1.7,0-2.9,1.4-2.9,3.3c0.1,1.9,1,3.3,3,3.3c1.4,0,2.4-0.8,2.7-2.1h-1c-0.2,0.8-0.8,1.2-1.6,1.2
		c-1.4,0-2-1-1.9-2.1h4.7C91.9,58.3,91.3,56.3,89,56.3z M87.2,58.9c0.1-1,0.7-1.8,1.8-1.8c1,0,1.8,0.8,1.8,1.8H87.2z"
    />
    <path
      class="st33"
      fill="#FFFFFF"
      d="M104.6,45c0.9,0,2.1-0.4,2.6-1.6l0,0h-1.1l0,0c-0.3,0.4-0.9,0.6-1.4,0.6c-0.7,0-1.6-0.5-1.8-1.5h4.5
		c0-0.1,0-0.3,0-0.5c0-1.6-1.3-2.8-2.8-2.8c-1.6,0-2.8,1.3-2.8,2.9c0,0.8,0.3,1.5,0.8,2C103.2,44.7,103.9,45,104.6,45z M104.7,40.2
		c0.9,0,1.6,0.7,1.7,1.4h-3.4C103.1,40.9,103.7,40.2,104.7,40.2z"
    />
    <path
      class="st33"
      fill="#FFFFFF"
      d="M92.5,39.2c-1.6,0-2.9,1.3-2.9,2.9c0,1.6,1.3,2.9,2.9,2.9c1.6,0,2.9-1.3,2.9-2.9
		C95.4,40.5,94.2,39.2,92.5,39.2z M92.5,44c-1,0-1.9-0.8-1.9-1.9s0.8-1.9,1.9-1.9c1,0,1.9,0.8,1.9,1.9S93.6,44,92.5,44z"
    />
    <path
      class="st33"
      fill="#FFFFFF"
      d="M96.4,40.3c-0.2,0.4-0.3,0.8-0.3,1.4V45h1.1v-3.2c0-1.1,0.5-1.6,1.5-1.6s1.5,0.5,1.5,1.6V45h1.1v-3.3
		c0-0.6-0.1-1-0.3-1.4c-0.3-0.4-0.9-1.2-2.2-1.2C97.3,39.2,96.7,39.9,96.4,40.3z"
    />
    <polygon
      class="st33"
      fill="#FFFFFF"
      points="108.8,46.7 109.9,46.7 110.2,45.9 110.7,44.6 112.9,39.2 111.8,39.2 110.2,43.2 108.5,39.2
		107.4,39.2 109.6,44.6 	"
    />
  </g>
</svg>
