<?xml version="1.0" encoding="utf-8"?>
<!-- Generator: Adobe Illustrator 23.1.1, SVG Export Plug-In . SVG Version: 6.00 Build 0)  -->
<svg version="1.1" id="Calque_1" xmlns="http://www.w3.org/2000/svg" xmlns:xlink="http://www.w3.org/1999/xlink" x="0px" y="0px"
	 viewBox="0 0 885.8 380.9" style="enable-background:new 0 0 885.8 380.9;" xml:space="preserve">
<path
    id="_92653320"
    class="st0"
    style="fill:#000268;"
    d="M0,68.3C0,30.6,30.8,0,68.7,0h748.5c37.9,0,68.7,30.6,68.7,68.3v244.2
	c0,37.7-30.7,68.3-68.7,68.3H68.7C30.8,380.9,0,350.3,0,312.6V68.3L0,68.3z"
  />
  <path
    id="_92186184"
    class="st1"
    style="fill:#FFFFFF;"
    d="M28.2,70.7v239.6c0,23.6,19.2,42.7,42.9,42.7h392.1V28H71.1C47.4,28,28.2,47.1,28.2,70.7
	L28.2,70.7z M564.6,189.3c0,15.3-7.5,25.7-20,25.7c-11,0-20.2-10.5-20.2-24.5c0-14.3,8.1-25,20.2-25
	C557.4,165.6,564.6,176.6,564.6,189.3z M491.2,276.8h33.1v-52h0.4c6.3,11.4,18.8,15.6,30.3,15.6c28.5,0,43.7-23.5,43.7-51.8
	c0-23.2-14.5-48.3-41-48.3c-15.1,0-29,6.1-35.7,19.5h-0.4v-17.3h-30.5V276.8z M643.9,207.8c0-9.2,8.8-12.7,20-12.7
	c5,0,9.7,0.3,14,0.5c0,11.2-7.9,22.6-20.4,22.6C649.8,218.3,643.9,214.5,643.9,207.8z M710.7,238.2c-1.5-7.5-1.8-15.1-1.8-22.6
	v-35.7c0-29.2-21.1-39.7-45.6-39.7c-14.1,0-26.5,2-38.2,6.8l0.6,22.4c9.2-5.2,19.8-7.2,30.5-7.2c11.9,0,21.7,3.5,21.9,16.6
	c-4.2-0.7-10.1-1.3-15.4-1.3c-17.6,0-49.4,3.5-49.4,32.7c0,20.8,16.9,30.1,35.8,30.1c13.6,0,22.8-5.3,30.3-17.3h0.4
	c0,5,0.5,9.9,0.7,15.1H710.7z M725.5,276.8c6.8,1.5,13.6,2.2,20.6,2.2c30.3,0,37.5-23.4,46.9-47.4l35.1-89.1H795l-19.7,62.5H775
	l-20.6-62.5h-35.6l38.8,98c-2.4,8.5-8.6,13.2-16.7,13.2c-4.6,0-8.6-0.6-13.1-2L725.5,276.8z"
  />
  <path
    id="_47303032"
    class="st2"
    style="fill:#FF0007;"
    d="M109,189.5c0-13.1,6.4-23.9,18.8-23.9c14.9,0,21.1,11.9,21.1,22.6c0,14.7-9.4,24.6-21.1,24.6
	C117.8,212.8,109,204.4,109,189.5z M180.9,142.4h-30v17.3h-0.3c-7-11.8-18.4-19.5-32.5-19.5c-29.8,0-43.2,21.3-43.2,49.8
	c0,28.3,16.4,48.2,42.6,48.2c13.3,0,24.3-5.2,32.2-16.4h0.4v5.2c0,18.7-10.3,27.7-29.4,27.7c-13.8,0-22.3-2.9-32.4-7.9l-1.7,26.1
	c7.7,2.8,20.8,6.1,36.6,6.1c38.6,0,57.7-12.7,57.7-52V142.4z M236.8,102.5h-33.1v24.3h33.1V102.5z M203.7,238.2h33.1v-95.8h-33.1
	V238.2z M328.9,141.3c-3.3-0.5-7.4-1.1-11.2-1.1c-14.3,0-22.6,7.7-28.3,19.9H289v-17.6h-30.1v95.8H292v-40.4c0-18.8,8.7-30,24.1-30
	c3.9,0,7.5,0,11.2,1.1L328.9,141.3z M385.9,217.2c-15.3,0-21.5-12.7-21.5-26.8c0-14.3,6.2-27,21.5-27c15.3,0,21.5,12.7,21.5,27
	C407.4,204.5,401.1,217.2,385.9,217.2z M385.9,240.4c31.6,0,55.7-18.4,55.7-50c0-31.8-24.1-50.2-55.7-50.2
	c-31.6,0-55.7,18.4-55.7,50.2C330.2,222,354.2,240.4,385.9,240.4z"
  />
</svg>
