<?xml version="1.0" encoding="utf-8"?>
<!-- Generator: Adobe Illustrator 23.1.1, SVG Export Plug-In . SVG Version: 6.00 Build 0)  -->
<svg version="1.1" id="Calque_1" xmlns="http://www.w3.org/2000/svg" xmlns:xlink="http://www.w3.org/1999/xlink" x="0px" y="0px"
	 viewBox="0 0 1844.3 1598.2" style="enable-background:new 0 0 1844.3 1598.2;" xml:space="preserve">
  <g>
    <path
      d="M0,0h951.2c645.6,0,893.1,352.6,893.1,797.3c0,533.3-345.6,800.9-893.1,800.9H0V0z M92.2,92.2v1413.8h859
			c518.6,0,800.8-241.7,800.8-708.7c0-480-305.9-705.1-800.8-705.1L92.2,92.2L92.2,92.2z"
    />
    <rect x="207.5" y="901.3" width="275" height="489.4" />
    <circle cx="344.9" cy="654.7" r="170.9" />
    <path
      class="st0"
      style="fill:#D50072;"
      d="M1059.1,734.6v79.2H863.2v-318h189.7v79.2H942.4v36.8h104.5v79.2H942.4v43.5L1059.1,734.6z M1093.4,813.9
			l95.9-318.2H1302l95.9,318.2h-82.5l-18-61.5h-103.6l-18,61.5H1093.4z M1217,673.2h57.3l-26.3-89.9h-4.8L1217,673.2L1217,673.2z
			 M1437.7,495.8h79.3v238.9h117.3c-32.2-433.4-373.1-527.1-683-527.1H620.9V496h48.9c89.1,0,144.5,60.4,144.5,157.7
			c0,100.4-54,160.3-144.5,160.3h-48.9v577h330.3c503.7,0,679.1-233.9,685.3-577h-198.9V495.8z M620.9,575.2v159.5h48.9
			c33.9,0,65.3-9.8,65.3-81c0-69.5-34.9-78.5-65.3-78.5H620.9z"
    />
  </g>
</svg>
