<?xml version="1.0" encoding="utf-8"?>
<!-- Generator: Adobe Illustrator 23.1.1, SVG Export Plug-In . SVG Version: 6.00 Build 0)  -->
<svg version="1.1" id="Calque_1" xmlns="http://www.w3.org/2000/svg" xmlns:xlink="http://www.w3.org/1999/xlink" x="0px" y="0px"
	 viewBox="0 0 408.3 83.3" style="enable-background:new 0 0 408.3 83.3;" xml:space="preserve">
  <path
    class="st0"
    style="fill:#0356A2;"
    d="M33.1,14.2c2.3-0.9,4.9-1.3,7.3-1.3c4.9,0,9,1.5,12,4.5c3.2,3,4.9,7.3,5.4,12.5c0.4,3.7,0,7.9-1.1,12.1
	c-0.9,4.3-2.4,8-4.5,11.2c-2.2,3.9-5.2,6.9-9,9c-3,1.9-6.3,2.8-10.1,3.2v-7.5c1.3-0.4,2.6-0.9,3.7-1.5c2.4-1.5,4.5-3.7,6.2-6.7
	c1.7-3,3-6.2,3.9-9.7c0.9-3.6,1.1-6.9,0.9-10.1c-0.4-3.4-1.5-6-3.4-8c-2.1-2.1-4.7-3-7.7-3c-1.3,0-2.6,0.2-3.7,0.6
	C33.1,19.4,33.1,14.2,33.1,14.2z M0,83.3l12.9-56.6c0.4-2.2,0.7-4.3,1.1-6.5c0.2-2.2,0.4-4.3,0.6-6.5h9l-0.8,7.7
	c2.8-2.8,5.6-5,8.4-6.4c0.6-0.4,1.3-0.6,1.9-0.7v5.2c-1.3,0.4-2.6,1.1-3.9,1.9c-2.4,1.7-4.5,4.1-6,7.1c-1.7,3-3,6.5-3.9,10.5
	c-0.9,4.1-1.1,7.3-0.9,9.9c0.2,3,1.3,5.2,3.2,7.1c1.9,1.7,4.3,2.6,7.3,2.6c1.5,0,3-0.2,4.3-0.6v7.5c-0.6,0-1.1,0-1.7,0
	c-3.5,0-6.3-0.7-9-2.1c-2.4-1.3-4.7-3.4-6.5-6l-6,26L0,83.3L0,83.3L0,83.3z"
  />
  <path
    class="st0"
    style="fill:#0356A2;"
    d="M272.8,21.7c-1.1,0-2.1,0.2-3.2,0.4v-7.3c0.6-0.2,0.9-0.4,1.3-0.6c2.6-1.3,5.6-1.9,8.8-1.9
	c4.9,0,8.8,1.5,11.6,4.3c2.8,2.8,4.5,6.9,4.9,12.3c0.9,10.1-0.9,18.7-5.8,25.6c-4.7,7.1-11,10.7-18.9,10.7c-0.6,0-1.3-0.2-1.9-0.2
	v-9.7c1.1-0.2,2.2-0.7,3.2-1.5c1.7-1.3,3-3.2,4.3-5.8c1.3-2.8,2.4-6,3.2-9.3c0.7-3.4,0.9-6.2,0.7-8.6c-0.2-2.8-1.1-4.9-2.4-6.2
	C277.1,22.4,275.2,21.7,272.8,21.7z M269.6,22.1c-3,0.9-5.6,3.4-7.7,6.9c-3,5-4.1,10.7-3.5,16.8c0.4,3.2,1.1,5.6,2.8,7.3
	c1.5,1.7,3.6,2.6,6.2,2.6c0.8,0,1.5-0.2,2.3-0.4V65c-2.8-0.2-5.2-0.9-7.3-2.1c-2.6-1.3-4.7-3.6-6.2-6.4l-6,26.7h-15.5l12-54.2
	c1.5-6.9,2.4-12.1,2.8-15.5h14l-0.4,6.2c2.2-2.1,4.3-3.7,6.5-5L269.6,22.1L269.6,22.1L269.6,22.1z"
  />
  <path
    class="st0"
    style="fill:#0356A2;"
    d="M331.1,40.2c-0.4-0.2-0.7-0.2-1.1-0.2c-0.6,0-0.9,0-1.7,0c-2.4,0-4.7,0.2-6.5,0.7v-8.2c2.1-0.2,4.5-0.2,6.9-0.2
	c1.1,0,2.1,0,2.6,0c0.6,0,1.1,0,1.7,0c0.4-1.9,0.7-3.2,0.7-4.3c0.2-0.9,0.2-1.7,0.2-2.4c-0.2-1.5-0.7-2.6-1.9-3.4
	c-0.9-0.7-2.4-1.1-4.3-1.1c-2.2,0-3.9,0.6-5,1.5c-0.4,0.4-0.7,0.6-0.9,1.1V13.3c1.9-0.4,3.9-0.4,6-0.4c6.5,0,11.4,0.9,15,3.2
	c3.4,2.2,5.2,5.4,5.6,9.7c0.2,1.3,0.2,2.6,0,4.1c-0.2,1.3-0.6,3-0.9,4.7l-3.9,17.2c-0.6,2.1-0.7,4.1-1.1,6.4
	c-0.2,2.2-0.2,4.3-0.2,6.5h-14.2c0-1.1,0-2.2,0-3.6s0.2-2.4,0.2-3.7c-1.9,2.6-4.1,4.7-6.3,5.8v-7.9c1.5-0.7,3-1.9,4.5-3.6
	C328.7,48.8,330.4,44.8,331.1,40.2z M321.8,40.7c-2.1,0.6-3.7,1.3-5.2,2.4c-3.2,2.1-4.5,4.7-4.1,7.7c0,1.7,0.6,3,1.7,3.9
	c0.9,0.9,2.2,1.3,3.9,1.3c1.3,0,2.6-0.2,3.7-0.7v7.9l-0.4,0.2c-2.4,1.3-5,2.1-8.2,2.1c-4.5,0-8-1.3-10.8-3.7
	c-2.8-2.4-4.3-5.6-4.7-9.7c-0.6-6.4,1.9-11.2,7.1-14.6c4.1-2.6,9.7-4.3,17-4.9L321.8,40.7L321.8,40.7z M321.8,13.3v10.5
	c-0.7,0.9-1.1,2.2-1.5,3.7h-14.8c0.4-4.7,2.6-8.2,6.3-10.8C314.7,15,317.8,13.8,321.8,13.3z"
  />
  <polygon
    class="st0"
    style="fill:#0356A2;"
    points="350.9,83.2 363.3,64.5 354.3,13.3 369.6,13.3 373.9,48.4 393.7,13.3 408.3,13.3 376.5,66.5 367.4,83.2
	"
  />
  <path
    class="st0"
    style="fill:#0356A2;"
    d="M87.1,18.5c-1.3,0-2.4,0.2-3.7,0.6v-6.5c1.5-0.2,3.2-0.2,4.9-0.2c6,0,10.7,1.5,14.2,4.3c3.7,3,5.6,7.1,6.2,12.3
	c0.4,4.1,0,8.6-1.3,13.3c-1.1,4.7-2.8,8.8-5,12.1c-2.6,3.9-5.6,6.7-9.3,8.4c-2.6,1.3-5.8,2.1-9.5,2.4v-6.5c1.5-0.4,3-0.9,4.1-1.7
	c2.2-1.3,4.1-3.4,5.8-6.2c1.9-3.2,3.2-6.7,4.1-10.7c0.9-4.1,1.3-7.5,1.1-10.5c-0.4-3.9-1.5-6.7-3.4-8.4
	C93.2,19.4,90.6,18.5,87.1,18.5z M83.3,19.1c-1.3,0.4-2.8,0.9-4.1,1.7c-2.2,1.7-4.3,3.9-6,6.9c-1.7,2.8-3,6.2-3.9,10.3
	c-0.9,4.1-1.1,7.7-0.9,10.7c0.2,3.4,1.5,5.8,3.4,7.7c2.1,1.9,4.7,2.8,8,2.8c1.3,0,2.4-0.2,3.6-0.4v6.5c-1.3,0-2.8,0.2-4.3,0.2
	c-6,0-10.8-1.5-14.4-4.7c-3.7-3-5.8-7.3-6.2-12.7c-0.4-4.5,0-9,1.5-13.8c1.3-4.9,3.2-9,5.8-12.5c2.4-3.2,5.4-5.4,9.2-7.1
	c2.4-0.9,5.4-1.7,8.4-2L83.3,19.1L83.3,19.1L83.3,19.1z"
  />
  <path
    class="st0"
    style="fill:#0356A2;"
    d="M118.8,47.8c-0.4,0.9-0.6,1.7-0.6,2.4c-0.2,0.7-0.2,1.3,0,1.9c0.2,2.1,0.9,3.6,2.4,4.5c1.5,1.1,3.6,1.5,6.5,1.5
	c3.9,0,6.9-0.8,9.2-2.2c2.2-1.7,3.2-3.7,3-6.2c0-1.5-0.8-2.8-2.1-3.9c-1.3-1.1-3.9-2.6-8-4.5c-5.2-2.4-9-4.7-11-6.7
	c-2.2-1.9-3.4-4.3-3.5-6.9c-0.4-4.5,1.3-8,4.9-11c3.7-2.8,8.8-4.3,15.1-4.3c5.8,0,10.1,0.9,12.9,2.6c3,1.7,4.5,4.1,4.9,7.7
	c0,0.6,0,1.1,0,1.9c0,0.6,0,1.5-0.2,2.8h-9.2c0-0.6,0-1.1,0-1.5c0-0.4,0-0.9,0-1.3c-0.2-1.9-0.9-3.4-2.4-4.3
	c-1.3-0.9-3.4-1.5-6.2-1.5c-3.2,0-5.6,0.8-7.3,2.1c-1.9,1.3-2.6,3.2-2.4,5.4c0.2,1.3,0.8,2.6,2.1,3.5c1.1,1.1,3.9,2.6,8.2,4.7
	c6,2.8,10.1,5.2,11.8,7.1c1.7,1.9,2.8,4.3,3,7.1c0.4,4.7-1.5,8.8-6,12c-4.3,3.2-10.1,4.9-17.2,4.9c-5.6,0-9.9-1.1-13.3-3
	c-3.2-2.1-4.9-4.9-5.2-8.6c-0.2-0.8-0.2-1.7,0-2.8c0.2-0.9,0.4-2.1,0.6-3.2L118.8,47.8L118.8,47.8L118.8,47.8z"
  />
  <path
    class="st0"
    style="fill:#0356A2;"
    d="M180.3,64.7c-1.9,0.2-3.5,0.4-5,0.6c-1.5,0-3,0.2-4.3,0.2c-3.7,0-6.5-0.6-8.2-1.9c-1.9-1.1-2.8-3.2-3-6
	c-0.2-0.9,0-2.6,0.2-4.7c0.2-2.2,0.7-4.5,1.1-6.9l5.8-25.4h-9.3l1.7-6.5h9.2L171,2.4l9.9-2.4l-3,14h11l-1.5,6.5h-11l-5.6,26.5
	c-0.6,2-0.9,3.5-0.9,4.5c-0.2,1.1-0.4,1.9-0.2,2.4c0,1.5,0.6,2.4,1.5,3c0.9,0.7,2.6,1.1,4.9,1.1c0.7,0,1.9-0.2,3-0.4
	c0.9,0,2.1-0.4,3-0.6L180.3,64.7z"
  />
  <path
    class="st0"
    style="fill:#0356A2;"
    d="M212.6,33.3h12.7c0.2-1.7,0.4-3,0.4-3.9c0.2-0.9,0.2-1.7,0-2.4c-0.2-2.8-1.3-4.9-3.2-6.4
	c-2.1-1.5-4.7-2.4-8-2.4c-0.6,0-1.3,0.2-1.9,0.2v-6.2c0.8,0,1.3,0,2.1,0c6.5,0,11.6,1.3,15,3.7c3.2,2.4,5.2,6.4,5.6,11.8
	c0.2,1.9,0.2,3.9,0,6c0,2.1-0.4,4.3-0.9,6.5h-21.7L212.6,33.3L212.6,33.3z M212.6,65v-7.7c1.1-0.4,2.2-0.9,3.2-1.5
	c2.2-1.5,3.9-3.7,4.9-6.5h11c-1.3,5-4.1,9-8.4,11.8C220.3,63.2,216.8,64.5,212.6,65z M199.6,33.3h13.1v6.9h-14.8
	c-0.6,1.5-0.7,2.8-0.9,4.3c-0.2,1.3-0.2,2.6-0.2,3.7c0.4,3.2,1.5,5.6,3.4,7.3c2.1,1.7,4.7,2.6,8.2,2.6c1.5,0,3-0.2,4.3-0.8V65
	c-1.7,0.2-3.6,0.4-5.4,0.4c-6,0-10.6-1.5-14.2-4.3c-3.4-2.8-5.4-6.9-5.8-12.1c-0.4-3.9,0-8.4,1.3-13.5c1.1-4.9,3-9.1,5-12.7
	c2.2-3.4,5.2-6.2,8.8-7.8c3-1.7,6.4-2.4,10.3-2.8v6.2c-3,0.4-5.6,1.5-7.7,3.7C202.4,24.5,200.5,28.2,199.6,33.3z"
  />
</svg>
