<?xml version="1.0" encoding="utf-8"?>
<!-- Generator: Adobe Illustrator 23.1.1, SVG Export Plug-In . SVG Version: 6.00 Build 0)  -->
<svg version="1.1" id="Calque_1" xmlns="http://www.w3.org/2000/svg" xmlns:xlink="http://www.w3.org/1999/xlink" x="0px" y="0px"
	 viewBox="0 0 301.7 108.6" style="enable-background:new 0 0 301.7 108.6;" xml:space="preserve">
  <g>
    <path
      class="st0"
      fill="#004899"
      d="M0.1,98.7l3.1-0.3c0.2,1,0.6,1.8,1.1,2.3c0.6,0.5,1.3,0.7,2.3,0.7s1.8-0.2,2.3-0.7c0.5-0.4,0.8-0.9,0.8-1.5
		c0-0.4-0.1-0.7-0.3-1s-0.6-0.5-1.1-0.7c-0.4-0.1-1.2-0.4-2.5-0.7c-1.7-0.4-2.9-0.9-3.6-1.6c-1-0.9-1.4-1.9-1.4-3.2
		c0-0.8,0.2-1.5,0.7-2.2s1.1-1.2,2-1.6s1.9-0.5,3.1-0.5c2,0,3.5,0.4,4.5,1.3s1.5,2,1.6,3.5l-3.2,0.1c-0.1-0.8-0.4-1.4-0.9-1.7
		c-0.4-0.4-1.1-0.5-2-0.5S5,90.6,4.4,91c-0.3,0.2-0.5,0.6-0.5,1s0.2,0.7,0.5,1c0.4,0.3,1.4,0.7,2.9,1c1.5,0.4,2.7,0.7,3.4,1.1
		c0.7,0.4,1.3,0.9,1.7,1.6c0.4,0.7,0.6,1.5,0.6,2.5c0,0.9-0.3,1.8-0.8,2.5c-0.5,0.8-1.2,1.4-2.1,1.8s-2.1,0.6-3.4,0.6
		c-2,0-3.5-0.5-4.6-1.4C0.9,101.9,0.3,100.5,0.1,98.7z"
    />
    <path class="st0" fill="#004899" d="M16.2,90.9v-2.8h3v2.8H16.2z M16.2,103.9V92.5h3v11.4H16.2z" />
    <path
      class="st0"
      fill="#004899"
      d="M33.4,103.9h-3v-5.8c0-1.2-0.1-2-0.2-2.4c-0.1-0.4-0.3-0.6-0.6-0.8c-0.3-0.2-0.6-0.3-1-0.3
		c-0.5,0-1,0.1-1.4,0.4c-0.4,0.3-0.7,0.7-0.9,1.1c-0.2,0.5-0.2,1.3-0.2,2.6v5.2h-3V92.5h2.8v1.7c1-1.3,2.2-2,3.8-2
		c0.7,0,1.3,0.1,1.8,0.4c0.6,0.2,1,0.5,1.3,0.9s0.5,0.8,0.6,1.3s0.2,1.2,0.2,2v7.1H33.4z"
    />
    <path
      class="st0"
      fill="#004899"
      d="M36.8,104.6l3.4,0.4c0.1,0.4,0.2,0.7,0.4,0.9c0.3,0.2,0.7,0.3,1.4,0.3c0.8,0,1.4-0.1,1.8-0.4
		c0.3-0.2,0.5-0.4,0.6-0.8c0.1-0.3,0.1-0.7,0.1-1.4v-1.7c-0.9,1.2-2,1.8-3.4,1.8c-1.5,0-2.7-0.6-3.6-1.9c-0.7-1-1.1-2.3-1.1-3.8
		c0-1.9,0.5-3.4,1.4-4.4s2.1-1.5,3.4-1.5c1.4,0,2.6,0.6,3.5,1.9v-1.5h2.8v10.3c0,1.3-0.1,2.4-0.3,3c-0.2,0.7-0.5,1.2-0.9,1.6
		s-0.9,0.7-1.6,0.9c-0.7,0.2-1.5,0.3-2.5,0.3c-1.9,0-3.3-0.3-4.1-1s-1.2-1.5-1.2-2.5C36.8,104.9,36.8,104.8,36.8,104.6z M39.5,98
		c0,1.2,0.2,2.1,0.7,2.7s1,0.8,1.7,0.8s1.3-0.3,1.9-0.9c0.5-0.6,0.8-1.4,0.8-2.6s-0.2-2.1-0.7-2.6c-0.5-0.6-1.1-0.9-1.8-0.9
		s-1.3,0.3-1.8,0.8C39.7,95.9,39.5,96.8,39.5,98z"
    />
    <path class="st0" fill="#004899" d="M51.2,103.9V88.1h3v15.7h-3V103.9z" />
    <path
      class="st0"
      fill="#004899"
      d="M64.6,100.3l3,0.5c-0.4,1.1-1,1.9-1.8,2.5s-1.9,0.9-3.1,0.9c-2,0-3.5-0.7-4.4-2c-0.8-1-1.1-2.4-1.1-3.9
		c0-1.9,0.5-3.4,1.5-4.5s2.2-1.6,3.8-1.6c1.7,0,3,0.6,4,1.7s1.5,2.9,1.4,5.2h-7.6c0,0.9,0.3,1.6,0.7,2.1c0.5,0.5,1.1,0.7,1.8,0.7
		c0.5,0,0.9-0.1,1.2-0.4C64.2,101.3,64.4,100.9,64.6,100.3z M64.7,97.2c0-0.9-0.2-1.6-0.7-2c-0.4-0.5-1-0.7-1.6-0.7
		c-0.7,0-1.2,0.2-1.6,0.7s-0.6,1.2-0.6,2H64.7z"
    />
    <path
      class="st0"
      fill="#004899"
      d="M77.7,103.9V88.1h11.7v2.7h-8.5v3.5h7.9V97h-7.9v4.3h8.8v2.7L77.7,103.9L77.7,103.9z"
    />
    <path
      class="st0"
      fill="#004899"
      d="M100.5,103.9v-1.7c-0.4,0.6-1,1.1-1.6,1.5c-0.7,0.4-1.4,0.5-2.1,0.5c-0.8,0-1.5-0.2-2.1-0.5
		c-0.6-0.3-1.1-0.8-1.3-1.4c-0.3-0.6-0.4-1.5-0.4-2.5v-7.3h3v5.2c0,1.6,0.1,2.6,0.2,3c0.1,0.4,0.3,0.6,0.6,0.9
		c0.3,0.2,0.7,0.3,1.1,0.3c0.5,0,1-0.1,1.4-0.4c0.4-0.3,0.7-0.6,0.8-1.1c0.2-0.4,0.2-1.4,0.2-3.1v-4.8h3v11.4H100.5z"
    />
    <path
      class="st0"
      fill="#004899"
      d="M109.9,103.9h-3V92.5h2.8v1.6c0.5-0.8,0.9-1.3,1.3-1.5c0.4-0.3,0.8-0.4,1.3-0.4c0.7,0,1.4,0.2,2,0.6l-0.9,2.6
		c-0.5-0.3-1-0.5-1.4-0.5c-0.4,0-0.8,0.1-1.1,0.3c-0.3,0.2-0.5,0.7-0.7,1.3c-0.2,0.6-0.3,1.9-0.3,3.8
		C109.9,100.3,109.9,103.9,109.9,103.9z"
    />
    <path
      class="st0"
      fill="#004899"
      d="M115.5,98c0-1,0.2-2,0.7-2.9s1.2-1.7,2.1-2.2c0.9-0.5,1.9-0.7,3-0.7c1.7,0,3.1,0.6,4.2,1.7
		c1.1,1.1,1.7,2.5,1.7,4.3c0,1.7-0.6,3.2-1.7,4.3c-1.1,1.1-2.5,1.7-4.2,1.7c-1,0-2-0.2-3-0.7c-0.9-0.5-1.7-1.2-2.2-2.1
		C115.8,100.5,115.5,99.4,115.5,98z M118.6,98.2c0,1.1,0.3,2,0.8,2.6s1.2,0.9,2,0.9s1.5-0.3,2-0.9s0.8-1.5,0.8-2.6s-0.3-2-0.8-2.6
		s-1.2-0.9-2-0.9s-1.5,0.3-2,0.9S118.6,97.1,118.6,98.2z"
    />
    <path
      class="st0"
      fill="#004899"
      d="M137.2,103.9V88.1h5.1c1.9,0,3.2,0.1,3.8,0.2c0.9,0.2,1.7,0.8,2.3,1.5c0.6,0.8,0.9,1.8,0.9,3.1
		c0,1-0.2,1.8-0.5,2.4c-0.4,0.7-0.8,1.2-1.3,1.6s-1.1,0.6-1.6,0.7c-0.8,0.2-1.9,0.2-3.3,0.2h-2.1v5.9h-3.3V103.9z M140.4,90.8v4.5
		h1.7c1.2,0,2.1-0.1,2.5-0.2c0.4-0.2,0.8-0.4,1-0.8s0.4-0.8,0.4-1.2c0-0.6-0.2-1.1-0.5-1.4c-0.3-0.4-0.8-0.6-1.3-0.7
		c-0.4-0.1-1.1-0.1-2.3-0.1h-1.5V90.8z"
    />
    <path
      class="st0"
      fill="#004899"
      d="M154.7,96l-2.7-0.5c0.3-1.1,0.8-1.9,1.6-2.5c0.8-0.5,1.9-0.8,3.4-0.8c1.3,0,2.4,0.2,3,0.5
		c0.7,0.3,1.1,0.7,1.4,1.2c0.3,0.5,0.4,1.4,0.4,2.7v3.5c0,1,0,1.7,0.1,2.2s0.3,1,0.5,1.5h-3c-0.1-0.2-0.2-0.5-0.3-0.9
		c0-0.2-0.1-0.3-0.1-0.3c-0.5,0.5-1.1,0.9-1.7,1.1c-0.6,0.3-1.2,0.4-1.9,0.4c-1.2,0-2.1-0.3-2.8-1s-1-1.4-1-2.4
		c0-0.6,0.2-1.2,0.5-1.7s0.7-0.9,1.3-1.2c0.6-0.3,1.4-0.5,2.4-0.7c1.4-0.3,2.4-0.5,2.9-0.7v-0.3c0-0.6-0.1-1-0.4-1.3
		c-0.3-0.2-0.8-0.4-1.6-0.4c-0.5,0-1,0.1-1.3,0.3C155.1,95.1,154.9,95.4,154.7,96z M158.8,98.4c-0.4,0.1-1,0.3-1.8,0.5
		s-1.4,0.4-1.6,0.5c-0.4,0.3-0.6,0.6-0.6,1.1c0,0.4,0.2,0.8,0.5,1.1c0.3,0.3,0.7,0.5,1.2,0.5s1.1-0.2,1.6-0.5c0.4-0.3,0.6-0.6,0.7-1
		c0.1-0.3,0.1-0.8,0.1-1.5L158.8,98.4L158.8,98.4z"
    />
    <path
      class="st0"
      fill="#004899"
      d="M163.9,92.5h3.2l2.7,8.1l2.7-8.1h3.1l-4,11l-0.7,2c-0.3,0.7-0.5,1.2-0.8,1.5c-0.2,0.4-0.5,0.6-0.8,0.9
		c-0.3,0.2-0.7,0.4-1.2,0.5s-1,0.2-1.5,0.2c-0.6,0-1.2-0.1-1.7-0.2l-0.3-2.4c0.5,0.1,0.9,0.1,1.3,0.1c0.7,0,1.2-0.2,1.6-0.6
		c0.3-0.4,0.6-0.9,0.8-1.6L163.9,92.5z"
    />
    <path
      class="st0"
      fill="#004899"
      d="M178,92.5h2.8v1.6c1-1.2,2.2-1.8,3.6-1.8c0.7,0,1.4,0.2,1.9,0.5s1,0.8,1.3,1.4c0.5-0.6,1-1.1,1.6-1.4
		s1.2-0.5,1.9-0.5c0.8,0,1.5,0.2,2.1,0.5s1,0.8,1.3,1.5c0.2,0.5,0.3,1.3,0.3,2.4v7.3h-3v-6.5c0-1.1-0.1-1.9-0.3-2.2
		c-0.3-0.4-0.7-0.6-1.3-0.6c-0.4,0-0.8,0.1-1.2,0.4s-0.6,0.6-0.8,1.1s-0.2,1.3-0.2,2.4v5.5h-3v-6.3c0-1.1-0.1-1.8-0.2-2.2
		c-0.1-0.3-0.3-0.6-0.5-0.7c-0.2-0.2-0.5-0.2-0.9-0.2c-0.5,0-0.9,0.1-1.3,0.4c-0.4,0.3-0.6,0.6-0.8,1.1s-0.2,1.3-0.2,2.4v5.6h-3
		V92.5H178z"
    />
    <path
      class="st0"
      fill="#004899"
      d="M205.1,100.3l3,0.5c-0.4,1.1-1,1.9-1.8,2.5s-1.9,0.9-3.1,0.9c-2,0-3.5-0.7-4.4-2c-0.8-1-1.1-2.4-1.1-3.9
		c0-1.9,0.5-3.4,1.5-4.5s2.2-1.6,3.8-1.6c1.7,0,3,0.6,4,1.7s1.5,2.9,1.4,5.2h-7.6c0,0.9,0.3,1.6,0.7,2.1c0.5,0.5,1.1,0.7,1.8,0.7
		c0.5,0,0.9-0.1,1.2-0.4C204.7,101.3,205,100.9,205.1,100.3z M205.3,97.2c0-0.9-0.2-1.6-0.7-2c-0.4-0.5-1-0.7-1.6-0.7
		c-0.7,0-1.2,0.2-1.6,0.7c-0.4,0.5-0.6,1.2-0.6,2H205.3z"
    />
    <path
      class="st0"
      fill="#004899"
      d="M221.8,103.9h-3v-5.8c0-1.2-0.1-2-0.2-2.4c-0.1-0.4-0.3-0.6-0.6-0.8c-0.3-0.2-0.6-0.3-1-0.3
		c-0.5,0-1,0.1-1.4,0.4s-0.7,0.7-0.9,1.1c-0.2,0.5-0.2,1.3-0.2,2.6v5.2h-3V92.5h2.8v1.7c1-1.3,2.2-2,3.8-2c0.7,0,1.3,0.1,1.8,0.4
		c0.6,0.2,1,0.5,1.3,0.9s0.5,0.8,0.6,1.3s0.2,1.2,0.2,2v7.1H221.8z"
    />
    <path
      class="st0"
      fill="#004899"
      d="M230.7,92.5v2.4h-2.1v4.6c0,0.9,0,1.5,0.1,1.6c0,0.2,0.1,0.3,0.3,0.4c0.1,0.1,0.3,0.2,0.5,0.2
		c0.3,0,0.7-0.1,1.2-0.3l0.3,2.3c-0.7,0.3-1.5,0.5-2.4,0.5c-0.5,0-1-0.1-1.5-0.3c-0.4-0.2-0.8-0.4-1-0.7c-0.2-0.3-0.3-0.7-0.4-1.2
		c-0.1-0.4-0.1-1.1-0.1-2.1v-5h-1.4v-2.4h1.4v-2.3l3-1.8v4.1H230.7z"
    />
    <path
      class="st0"
      fill="#004899"
      d="M232.4,100.7l3-0.5c0.1,0.6,0.4,1,0.8,1.3c0.4,0.3,0.9,0.5,1.7,0.5s1.4-0.1,1.8-0.4c0.3-0.2,0.4-0.5,0.4-0.8
		c0-0.2-0.1-0.4-0.2-0.6c-0.2-0.1-0.5-0.3-1-0.4c-2.4-0.5-4-1-4.7-1.5c-0.9-0.6-1.4-1.5-1.4-2.6c0-1,0.4-1.8,1.2-2.5s2-1,3.7-1
		c1.6,0,2.7,0.3,3.5,0.8s1.3,1.3,1.6,2.2l-2.8,0.5c-0.1-0.4-0.4-0.8-0.7-1s-0.8-0.4-1.5-0.4c-0.8,0-1.4,0.1-1.7,0.3
		c-0.2,0.2-0.3,0.4-0.3,0.6s0.1,0.4,0.3,0.6c0.3,0.2,1.2,0.5,2.8,0.9s2.7,0.8,3.4,1.4c0.6,0.5,1,1.3,1,2.3c0,1.1-0.4,2-1.3,2.7
		c-0.9,0.8-2.2,1.1-3.9,1.1c-1.6,0-2.8-0.3-3.7-0.9C233.3,102.6,232.7,101.8,232.4,100.7z"
    />
    <path
      class="st0"
      fill="#004899"
      d="M267.4,103.9h-3.5l-1.4-3.6h-6.3l-1.3,3.6h-3.4l6.1-15.7h3.4L267.4,103.9z M261.5,97.7l-2.2-5.8l-2.1,5.8
		H261.5z"
    />
    <path
      class="st0"
      fill="#004899"
      d="M272.6,103.9h-3V92.5h2.8v1.6c0.5-0.8,0.9-1.3,1.3-1.5c0.4-0.3,0.8-0.4,1.3-0.4c0.7,0,1.4,0.2,2,0.6l-0.9,2.6
		c-0.5-0.3-1-0.5-1.4-0.5s-0.8,0.1-1.1,0.3c-0.3,0.2-0.5,0.7-0.7,1.3c-0.2,0.6-0.3,1.9-0.3,3.8L272.6,103.9L272.6,103.9z"
    />
    <path
      class="st0"
      fill="#004899"
      d="M285.5,100.3l3,0.5c-0.4,1.1-1,1.9-1.8,2.5s-1.9,0.9-3.1,0.9c-2,0-3.5-0.7-4.4-2c-0.8-1-1.1-2.4-1.1-3.9
		c0-1.9,0.5-3.4,1.5-4.5s2.2-1.6,3.8-1.6c1.7,0,3,0.6,4,1.7s1.5,2.9,1.4,5.2h-7.6c0,0.9,0.3,1.6,0.7,2.1c0.5,0.5,1.1,0.7,1.8,0.7
		c0.5,0,0.9-0.1,1.2-0.4C285.1,101.3,285.4,100.9,285.5,100.3z M285.7,97.2c0-0.9-0.2-1.6-0.7-2c-0.4-0.5-1-0.7-1.6-0.7
		c-0.7,0-1.2,0.2-1.6,0.7s-0.6,1.2-0.6,2H285.7z"
    />
    <path
      class="st0"
      fill="#004899"
      d="M294,96l-2.7-0.5c0.3-1.1,0.8-1.9,1.6-2.5c0.8-0.5,1.9-0.8,3.4-0.8c1.3,0,2.4,0.2,3,0.5
		c0.7,0.3,1.1,0.7,1.4,1.2s0.4,1.4,0.4,2.7v3.5c0,1,0,1.7,0.1,2.2s0.3,1,0.5,1.5h-3c-0.1-0.2-0.2-0.5-0.3-0.9c0-0.2-0.1-0.3-0.1-0.3
		c-0.5,0.5-1.1,0.9-1.7,1.1c-0.6,0.3-1.2,0.4-1.9,0.4c-1.2,0-2.1-0.3-2.8-1c-0.7-0.6-1-1.4-1-2.4c0-0.6,0.2-1.2,0.5-1.7
		s0.7-0.9,1.3-1.2c0.6-0.3,1.4-0.5,2.4-0.7c1.4-0.3,2.4-0.5,2.9-0.7v-0.3c0-0.6-0.1-1-0.4-1.3c-0.3-0.2-0.8-0.4-1.6-0.4
		c-0.5,0-1,0.1-1.3,0.3C294.5,95.1,294.2,95.4,294,96z M298.1,98.4c-0.4,0.1-1,0.3-1.8,0.5s-1.4,0.4-1.6,0.5
		c-0.4,0.3-0.6,0.6-0.6,1.1c0,0.4,0.2,0.8,0.5,1.1c0.3,0.3,0.7,0.5,1.2,0.5s1.1-0.2,1.6-0.5c0.4-0.3,0.6-0.6,0.7-1
		c0.1-0.3,0.1-0.8,0.1-1.5v-0.7H298.1z"
    />
  </g>
  <g>
    <g>
      <g>
        <path
          class="st0"
          fill="#004899"
          d="M67,26.3H46.4c0-3.4-0.4-5.7-1.2-6.8c-1.2-1.7-4.6-2.6-10.2-2.6c-5.4,0-9,0.5-10.7,1.5s-2.6,3.1-2.6,6.5
				c0,3,0.8,5,2.3,5.9c1.1,0.7,2.6,1.1,4.4,1.2l4.2,0.3c8.9,0.6,14.5,1,16.7,1.2c7.1,0.7,12.2,2.6,15.3,5.6c2.5,2.4,4,5.5,4.5,9.3
				c0.3,2.3,0.4,4.9,0.4,7.8c0,6.6-0.6,11.5-1.9,14.6c-2.3,5.7-7.5,9.2-15.5,10.7c-3.4,0.6-8.5,1-15.4,1c-11.6,0-19.6-0.7-24.2-2.1
				c-5.6-1.7-9.3-5.1-11-10.3C0.5,67.2,0,62.4,0,55.7h20.6c0,0.7,0,1.3,0,1.7c0,3.6,1,5.9,3.1,6.9c1.4,0.7,3.1,1.1,5.2,1.1h7.6
				c3.9,0,6.3-0.2,7.4-0.6c1.9-0.7,3.1-1.9,3.7-3.6c0.3-1,0.5-2.3,0.5-4c0-3.6-1.3-5.8-4-6.6c-1-0.3-5.6-0.7-13.8-1.3
				c-6.6-0.5-11.2-0.9-13.7-1.4C9.8,46.6,5.3,44,3.1,40.1c-2-3.4-3-8.4-3-15.2c0-5.2,0.5-9.3,1.6-12.4S4.5,7,6.9,5.4
				c3.5-2.5,7.9-3.9,13.3-4.4c4.5-0.4,9.5-0.6,15-0.6c8.7,0,14.8,0.5,18.5,1.5c9,2.4,13.5,9.2,13.5,20.3
				C67.2,23.1,67.1,24.4,67,26.3z"
        />
      </g>
    </g>
    <g>
      <g>
        <path
          class="st0"
          fill="#004899"
          d="M157.8,82.4V0h32.3h5.1h3.9c5.7,0,10,0.5,13,1.4c6.8,2.1,11.4,6.5,13.7,13.1c1.2,3.5,1.8,8.7,1.8,15.6
				c0,8.4-0.7,14.4-2,18c-2.7,7.2-8.1,11.4-16.3,12.5c-1,0.2-5.1,0.3-12.4,0.4l-3.7,0.1h-13.3v21.3
				C179.9,82.4,157.8,82.4,157.8,82.4z M179.9,42h13.8c4.4-0.2,7.1-0.5,8-1c1.3-0.7,2.2-2.2,2.6-4.3c0.3-1.4,0.4-3.6,0.4-6.4
				c0-3.5-0.3-6.1-0.8-7.8c-0.8-2.4-2.7-3.8-5.7-4.3c-0.6-0.1-2-0.1-4.3-0.1h-14V42z"
        />
      </g>
    </g>
    <g>
      <g>
        <path
          class="st0"
          fill="#004899"
          d="M274.9,68.2h-29.7l-4,14.2h-23L243,0h33.5l25.1,82.4h-22.5L274.9,68.2z M270.5,52.1l-10.4-35.7L250,52.1
				H270.5z"
        />
      </g>
    </g>
    <g>
      <g>
        <path
          class="st1"
          fill="#FDC300"
          d="M127.1,11.6c9.1,0,17.3,4.2,22.7,10.8l4.8-10.3c-7.5-7-17.7-11.4-28.9-11.4c-17.5,0-32.4,10.6-38.6,25.5
				h-9.3L72.3,38h12c-0.1,1.1-0.1,2.2-0.1,3.3c0,1.4,0.1,2.7,0.2,4h-6l-5.5,11.8h14.6c6.3,14.6,21.1,24.8,38.3,24.8
				c8.7,0,16.7-2.6,23.4-7V60.4c-5.4,6.1-13.2,10-22,10c-10.2,0-19.2-5.3-24.5-13.3h30.6l5.5-11.8H98.2c-0.2-1.4-0.3-2.9-0.3-4.4
				c0-1,0.1-2,0.1-3h44.2l5.5-11.8h-45.8C106.9,17.5,116.3,11.6,127.1,11.6z"
        />
      </g>
      <g>
        <path
          class="st0"
          fill="#004899"
          d="M127.1,11.9c8.7,0,16.9,3.9,22.4,10.7l0.4,0.4l0.2-0.5l4.8-10.3L155,12l-0.2-0.2
				c-7.9-7.4-18.2-11.5-29.1-11.5c-8.5,0-16.7,2.5-23.7,7.2c-6.8,4.6-12.1,11-15.2,18.5l0.3-0.2h-9.3h-0.2L77.5,26L72,37.8l-0.2,0.5
				h0.6h12L84,37.9c-0.1,1.2-0.1,2.3-0.1,3.3c0,1.3,0.1,2.7,0.2,4l0.4-0.4h-6h-0.2L78.2,45l-5.5,11.8l-0.4,0.7h0.6h14.6l-0.3-0.2
				c6.6,15.2,21.7,25,38.6,25c8.5,0,16.6-2.5,23.6-7.1l0.2-0.1v-0.2V60.4v-0.9l-0.6,0.7c-5.5,6.3-13.4,9.8-21.7,9.8
				c-9.8,0-18.8-4.9-24.2-13.1l-0.3,0.5h30.6h0.2l0.1-0.2l5.5-11.8l0.2-0.5h-0.6H98.2l0.4,0.3c-0.2-1.4-0.3-2.9-0.3-4.3
				c0-1,0-2,0.1-2.9L98,38.3h44.2h0.2l0.1-0.2l5.5-11.8l0.2-0.5h-0.6h-45.8l0.3,0.5C107.3,17.5,116.9,11.9,127.1,11.9z M101.8,26.6
				h45.8l-0.3-0.5l-5.4,11.8l0.3-0.2H98h-0.3V38c-0.1,1-0.1,2-0.1,3c0,1.5,0.1,2.9,0.3,4.4v0.3h0.3h40.6l-0.3-0.5L132.9,57l0.3-0.2
				h-30.6h-0.7l0.4,0.5c5.5,8.4,14.8,13.4,24.8,13.4c8.5,0,16.6-3.7,22.2-10.1l-0.6-0.2v14.5l0.2-0.3c-6.8,4.6-14.9,7-23.2,7
				c-16.6,0-31.5-9.6-38-24.6l-0.1-0.2h-0.2H72.8l0.3,0.5l5.6-11.8l-0.3,0.2h6h0.4v-0.4c-0.1-1.3-0.2-2.7-0.2-4c0-1,0-2.1,0.1-3.3
				v-0.4h-0.4h-12l0.3,0.5l5.5-11.8l-0.3,0.2h9.3h0.2l0.1-0.2c3-7.4,8.2-13.7,14.9-18.2c6.9-4.6,15-7.1,23.3-7.1
				c10.7,0,20.9,4,28.6,11.3l-0.1-0.4l-4.8,10.3l0.6-0.1c-5.7-7-14-10.9-23-10.9c-10.5,0-20.3,5.7-25.6,14.8l-0.3,0.5h0.8V26.6z"
        />
      </g>
    </g>
  </g>
</svg>
