<?xml version="1.0" encoding="utf-8"?>
<!-- Generator: Adobe Illustrator 23.1.1, SVG Export Plug-In . SVG Version: 6.00 Build 0)  -->
<svg version="1.1" id="Calque_1" xmlns="http://www.w3.org/2000/svg" xmlns:xlink="http://www.w3.org/1999/xlink" x="0px" y="0px"
	 viewBox="0 0 489.6 166.5" style="enable-background:new 0 0 489.6 166.5;" xml:space="preserve">
  <path
    d="M49.7,0c0,8.8,0,17.7,0,26.5c-1.6,0.6-3.3,1-4.8,1.7c-1.3,0.6-2.7,1.3-3.8,2.2c-3.8,2.8-4.6,7-2.3,11.2
	c2.1,3.8,5.4,6.2,9.3,7.7c1.2,0.5,1.6,1,1.6,2.4c-0.1,8.7,0,17.4,0,26c0,0.4,0,0.9,0,1.5c-2.9-1.1-5.6-2.1-8.4-3.2
	c-5.6-2.2-11.2-4.3-16.2-7.7c-11.7-7.8-16.9-18.8-16-32.8c0.8-12.5,7.5-21.2,17.8-27.7c6.3-4,13-6.5,20.4-7.5c0.2,0,0.3-0.1,0.5-0.2
	C48.4,0,49,0,49.7,0z"
  />
  <path
    d="M0,108c0.3-0.2,0.7-0.3,1-0.6c6.3-4.5,12.7-8.9,19-13.4c0.4-0.3,0.9-0.6,1.3-0.9c6.8,10.1,16,16.4,28.3,17.7
	c0,8.8,0,17.6,0,26.6c-2.6-0.3-5-0.6-7.5-1c-17.6-3.2-31.2-12.5-41.4-27c-0.2-0.3-0.5-0.6-0.7-0.9C0,108.3,0,108.2,0,108z"
  />
  <path
    d="M116.5,166.5c-0.1-40.3-0.3-80.5-0.4-120.8c8.9,0,17.7,0,26.6,0c0,3.1,0,6.2,0,9.5c1.4-1.2,2.5-2.3,3.8-3.3
	c7.1-5.5,15.2-7.7,24.1-7.2c9.3,0.5,17.7,3.7,25,9.6c7.4,6,11.9,14,14.2,23.2c3.4,13.6,1.5,26.5-5.7,38.6
	c-6,10.2-15.3,15.9-26.7,18.2c-2.6,0.5-5.3,0.6-8,0.8c-0.4,0-1.1-0.3-1.4-0.7c-6-8.8-12-17.6-18-26.4c0-0.1-0.1-0.1-0.1-0.2
	c2.3,0.7,4.7,1.6,7.1,2.2c7.3,1.7,14.2,1,20.2-3.9c7.8-6.2,10.1-16.9,5.7-26.1c-6.9-14.3-24.1-15-33.8-7.3c-1.9,1.6-3.6,3.5-5.2,5.4
	c-0.9,1-1.2,2.1-1.1,3.5c0.2,3.8,0.2,7.6,0.2,11.4c0,7.6,0,15.3,0,22.9c0,12.4-0.1,24.8-0.2,37.2c0,4.2-0.1,8.3-0.2,12.5
	c0,0.3,0,0.5-0.1,0.9C134,166.5,125.4,166.5,116.5,166.5z"
  />
  <path
    d="M407.1,45.9c3.8,0,7.6,0,11.6,0c0-11,0-21.8,0-32.8c8.5-0.2,16.9-0.4,25.4-0.6c0,11.1,0,22.2,0,33.3c6.4,0,12.7,0,19.2,0
	c0,8,0,15.9,0,24c-6.3,0-12.7,0-19.2,0c0,0.6,0,1.1,0,1.5c0,10.4,0.1,20.9,0,31.3c0,3.2,1.3,5.4,3.7,7.3c2.7,2.1,5.9,2.6,9.3,2.5
	c1.1,0,2.1-0.2,3.3-0.3c0,7.3,0,14.4,0,21.7c-5.2,1-10.4,1.6-15.6,1.3c-4.5-0.2-8.8-1-12.8-3.1c-6.5-3.3-10.2-8.9-11.7-15.8
	c-0.8-3.5-1.3-7.2-1.3-10.8c-0.2-11.3-0.1-22.6-0.1-34c0-0.5,0-1,0-1.6c-3.9,0-7.7,0-11.6,0C407.1,61.9,407.1,53.9,407.1,45.9z"
  />
  <path
    d="M345.3,45.9c6.2,0,12.3,0,18.4,0c0,8,0,15.9,0,24c-6.1,0-12.2,0-18.3,0c0,0.6,0,1.1,0,1.5c0,10.6,0,21.1,0,31.7
	c0,2.1,0.7,3.8,2,5.3c2.9,3.3,6.7,4.2,10.8,4c1,0,2.1-0.2,3.2-0.3c0,7.2,0,14.4,0,21.7c-7.7,1.4-15.4,2.2-23,0.2
	c-9.1-2.3-14.6-8.4-16.9-17.3c-1.1-4-1.5-8.1-1.5-12.2c0-11,0-22.1,0-33.1c0-0.5,0-0.9,0-1.5c-4.2,0-8.2,0-12.4,0c0-8.1,0-16,0-24
	c4.1,0,8.2,0,12.3,0c0-11,0-21.8,0-32.8c8.5-0.2,16.9-0.4,25.5-0.6C345.3,23.6,345.3,34.7,345.3,45.9z"
  />
  <path
    d="M224.6,13.1c8.5-0.2,16.9-0.4,25.5-0.6c0,0.6,0,1.1,0,1.6c0,29.5,0,58.9,0,88.4c0,4.4,2.3,7,5.9,8.8c2.9,1.4,6.1,1.4,9.3,1
	c0.3,0,0.5-0.1,0.9-0.1c0,7.2,0,14.4,0,21.8c-2.6,0.3-5.2,0.8-7.8,1c-5.5,0.5-10.9,0.4-16.3-1.2c-8.7-2.6-13.7-8.6-16-17.2
	c-1-3.9-1.4-7.9-1.4-11.9c0-30.1,0-60.2,0-90.3C224.6,14,224.6,13.6,224.6,13.1z"
  />
  <path
    d="M61.2,53.8c9.5,3.5,18.7,7.1,27.1,12.7c7.2,4.7,11.6,11.2,13.5,19.6c2.1,9,2.1,17.8-1.2,26.5c-3.4,8.6-9.5,14.8-17.8,18.7
	c-6.4,3-13.1,4.8-20.1,5.7c-0.5,0.1-0.9,0.1-1.5,0.1c0-0.4-0.1-0.8-0.1-1.2c0-8.2,0-16.4,0-24.6c0-0.9,0.3-1.2,1.1-1.4
	c3.8-0.9,7.3-2.3,9.9-5.4c2.9-3.5,3.1-7.3,1.4-11.4c-1.1-2.7-2.9-4.9-5.5-6.3c-2-1.1-4.1-2.1-6.1-3c-0.6-0.3-0.9-0.5-0.9-1.2
	c0-9.4,0-18.7,0-28.1C61.1,54.3,61.1,54.1,61.2,53.8z"
  />
  <path
    d="M275.3,46.3c8.7,0,17.4,0,26.1,0c0,28.9,0,57.8,0,86.8c-8.7,0-17.4,0-26.1,0C275.3,104.2,275.3,75.3,275.3,46.3z"
  />
  <path
    d="M374.7,133.1c0-29,0-57.8,0-86.7c8.7,0,17.4,0,26.1,0c0,28.9,0,57.8,0,86.7C392.1,133.1,383.5,133.1,374.7,133.1z"
  />
  <path
    d="M78.4,36.2c-5.1-4.1-10.5-7.2-16.7-9c-0.3-0.1-0.6-0.5-0.6-0.8c0-8.5,0-17,0-25.5c0-0.1,0.1-0.1,0.2-0.4
	C75.9,3.3,87.1,11.6,97,22.3C90.7,27,84.6,31.6,78.4,36.2z"
  />
  <path
    d="M303.6,24.1c0,8.3-6.8,15.1-15.3,15c-8.2,0-15-6.8-15-15.1c0-8.5,6.8-15.2,15.4-15.2C296.9,8.9,303.6,15.8,303.6,24.1z"
  />
  <path
    d="M372.9,23.9c0.1-8.6,6.8-15.1,15.6-15.1c8,0,14.6,7,14.6,15.4c-0.1,8.3-6.9,14.9-15.4,14.9
	C379.5,39.1,372.9,32.2,372.9,23.9z"
  />
  <path
    d="M489.6,24c0,8.5-6.8,15.3-15.3,15.3c-8.5,0-15.4-6.9-15.4-15.4c0-8.6,6.9-15.3,15.6-15.3C482.9,8.5,489.6,15.4,489.6,24z
	 M474.3,11c-7.1,0-12.9,5.7-12.9,12.8c0,7.1,5.7,12.9,12.8,12.9c7,0,12.9-5.8,12.9-12.7C487.2,16.8,481.5,11,474.3,11z"
  />
  <path
    d="M470.9,26.4c0,1.9,0,3.7,0,5.5c-1,0-1.8,0-2.8,0c0-5.3,0-10.6,0-15.9c0.1,0,0.3-0.1,0.4-0.1c2.6,0,5.1-0.1,7.7,0
	c3.6,0.2,5.6,2.8,5,6.2c-0.4,2-1.7,3.1-3.7,3.8c1.4,2,2.8,3.9,4.3,6.1c-1.1,0-2,0.1-2.9,0c-0.3,0-0.7-0.3-0.9-0.6
	c-1-1.3-1.9-2.6-2.8-3.9c-0.5-0.8-1.1-1.2-2-1.1C472.5,26.4,471.8,26.4,470.9,26.4z M471,23.9c1.9-0.1,3.8-0.1,5.6-0.4
	c1.3-0.2,1.9-1.2,1.8-2.5c0-1.2-0.6-2.2-1.8-2.3c-1.8-0.2-3.7-0.2-5.6-0.3C471,20.3,471,21.9,471,23.9z"
  />
</svg>
