<?xml version="1.0" encoding="utf-8"?>
<!-- Generator: Adobe Illustrator 23.1.1, SVG Export Plug-In . SVG Version: 6.00 Build 0)  -->
<svg version="1.1" id="Calque_1" xmlns="http://www.w3.org/2000/svg" xmlns:xlink="http://www.w3.org/1999/xlink" x="0px" y="0px"
	 viewBox="0 0 4733.8 1463.1" style="enable-background:new 0 0 4733.8 1463.1;" xml:space="preserve">
  <g>
    <path
      d="M4721.2,646.7c-6.7-1.7-13.8-2.5-20.7-2.5c-37.7-0.2-75.3,0-113-0.2c-10.5,0-19.6,3.4-27.6,10c-10,8.3-16.8,18.8-21.5,30.8
		c-14.1,35.2-28.2,70.5-42.4,105.7c-10.8,26.9-21.6,53.7-33.4,83c-2.1-5.4-3.5-8.3-4.5-11.4c-20.7-58.7-41.5-117.4-62.1-176.1
		c-3.7-10.5-8.9-20.1-17-27.9c-8.7-8.4-18.6-13.9-31.1-13.9c-51,0-102-0.1-153,0.1c-5.3,0-10.7,0.7-15.8,1.9
		c-12.2,2.9-17.2,10.7-14.8,22.9c1,5.2,3.1,10.2,5.1,15.1c60.2,149.1,120.4,298.2,180.8,447.3c2.5,6,2.3,11.1-0.2,17
		c-21.9,51.5-43.6,103-65.3,154.6c-1.9,4.6-3.8,9.3-5.1,14.1c-3.2,12.1,1.1,19.4,13.4,22c6.8,1.4,13.9,2,20.8,2
		c33.3,0.2,66.7-0.1,100,0.2c12.8,0.1,23.3-4.5,32.3-13.2c8.6-8.2,14.4-18.2,19-29.1c87.8-206.5,175.7-413,263.5-619.5
		c1.7-4,3.3-8,4.3-12.2C4735.7,656.4,4731.9,649.5,4721.2,646.7z"
    />
    <path
      d="M4112.8,476.7c-1.1-14.7-6.1-21-20.8-23.8c-8.1-1.6-16.5-1.9-24.8-1.9c-42.3-0.2-84.7-0.1-127-0.1c-3.7,0-7.3,0.1-11,0.5
		c-13.3,1.6-21.7,10.3-22.9,23.6c-0.4,4-0.2,8-0.2,12c0,105.3,0,210.7,0,316c0,44,0,88,0,132c0,63,0.1,126,0.2,189
		c0,4.3,0.6,8.6,1.2,12.9c1.1,7.9,6,12.6,13.7,13.8c6.6,1,13.3,1.4,19.9,1.4c45.3,0.1,90.7,0.1,136,0c4.3,0,8.7,0,13-0.6
		c13.7-1.9,20.7-9,22.2-22.8c0.6-5.3,0.8-10.6,0.8-16c0-208.7,0-417.3,0-626C4113,483.3,4113.1,480,4112.8,476.7z"
    />
    <path
      d="M3826.6,664.5c-4.3-13.5-12.8-19-27-19.1c-16.3-0.1-32.7,0-49-0.1c-2.8,0-5.7-0.4-8.6-0.6c-0.2-3-0.5-4.9-0.5-6.9
		c0-27.3,0.1-54.7-0.1-82c0-7-0.5-14-1.4-20.9c-1-7.7-5.6-12.8-13.6-13.8c-4.9-0.6-10-1.1-14.9-0.3c-39.8,6.2-79.6,12.5-119.3,19.5
		c-8,1.4-16,4.8-23.3,8.6c-13.1,6.9-20,17.9-19.6,33.3c0.4,17.7,0.1,35.3,0.1,53c0,3.2-0.4,6.4-0.6,10.3c-12.3,0-23.6-0.1-34.9,0
		c-24.8,0.2-34,9-34.2,33.6c-0.2,23-0.2,46,0.1,69c0.1,5.6,0.7,11.3,2.2,16.7c2.9,10.9,9.6,16.1,20.7,17.1c4.3,0.4,8.7,0.2,13,0.3
		c7.3,0,14.5,0,22.7,0c0.2,3.4,0.3,5,0.3,6.6c-0.1,67-0.3,134-0.2,200.9c0,17.6,0,35.4,1.7,52.9c2.9,31.5,15.1,59.2,38,81.6
		c24.6,24.2,55.3,35.4,88.8,39.3c46.3,5.5,91.7-0.5,136.6-11.8c14.8-3.7,14.9-4.2,15.2-19.7c0.4-26.8-2.6-53.2-7.4-79.5
		c-1.9-10.4-4.8-20.7-8.1-30.8c-2.2-6.8-3.8-6.9-11.2-6.8c-7,0.1-14,0-20.9-0.9c-14.9-1.9-23.4-11.4-23.3-27.1
		c0.4-64.3,0.2-128.6,0.2-192.9c0-2.6,0.4-5.1,0.6-8.3c3.8-0.2,7-0.4,10.3-0.5c14.3,0,28.7,0,43,0c22.7,0,28.5-5.4,28.8-28.1
		c0.3-23.3,0.4-46.7-0.1-70C3830.3,679.5,3828.9,671.7,3826.6,664.5z"
    />
    <path
      d="M3323.4,833.8c-20.3-10.7-41.3-20-61.8-30.4c-9.8-5-19.5-10.3-28.4-16.7c-11.1-8-9.4-21.1,3.3-26.7
		c5.4-2.4,11.5-4.1,17.3-4.2c15.6-0.3,31.3-0.4,46.9,1.1c23.2,2.1,46.3,5.4,69.4,8.7c10.6,1.5,17.4-2.4,21.9-11.5
		c2.2-4.5,4.7-8.9,6.1-13.6c3.4-11.5,7.1-23,9.2-34.7c3-16,4.8-32.2,3.5-48.7c-0.8-10.9-5.7-17.2-16.3-19.3
		c-13.7-2.7-27.3-6.2-41.1-8c-36.1-4.7-72.4-4.9-108.8-4.1c-33.8,0.7-67,5.3-99.6,14.2c-31.7,8.7-61.7,21.3-87.5,42.2
		c-22.1,17.8-38.9,39.7-45.3,67.7c-11,47.7-3.2,92,27.6,131c15.3,19.4,34.5,34.3,56,46.1c17.8,9.7,36.3,18.1,54.7,26.8
		c13.2,6.2,26.9,11.6,40.1,18c6.8,3.3,13.5,7.5,19.1,12.4c7.5,6.6,7.3,17.1-0.3,23.7c-3.9,3.4-8.9,6.1-13.9,7.4
		c-8.7,2.2-17.7,3.8-26.6,4.1c-47.8,1.8-95.2-1.4-141.7-13.7c-18.1-4.8-22.1-2.3-26.5,15.8c-0.3,1.3-0.5,2.6-0.7,3.9
		c-3.4,19.5-4.5,39.1-2.9,58.7c1.1,14.2,3.2,28.4,4.9,42.6c0.7,6,4.1,9.5,9.9,11.1c6.4,1.8,12.7,4.2,19.1,5.8
		c58.4,14.8,118,20.5,189.7,22.3c12.7-0.9,37-1.9,61.1-4.7c27.9-3.3,54.9-10.6,80-23.7c34.4-18,58.6-44.9,69.5-82.4
		c4-13.9,6.1-28.7,7.2-43.2c3.9-50.4-12.5-93.6-48.1-129.6C3370.6,862.5,3348,846.7,3323.4,833.8z"
    />
    <path
      d="M2920,678.2c-2.1-17.6-13.1-29.3-30.4-32.4c-5.9-1-11.9-1.6-17.9-1.6c-40-0.1-80-0.1-120,0c-4.3,0-8.6,0.4-12.9,1
		c-12.7,1.8-20.7,9.2-22.8,21.7c-1.5,8.8-2,17.9-2,26.8c-0.1,78.3,0,156.6-0.3,235c0,8.2-1.3,16.7-3.9,24.4
		c-5.6,16.2-19.4,24.1-37.8,23.1c-16.5-0.9-27.8-9.8-31.6-26.8c-1.9-8.3-2.5-17.1-2.5-25.7c-0.2-78.7-0.1-157.3-0.1-236
		c0-19.8-9.6-33.6-28.3-40.1c-5.6-1.9-11.7-3.3-17.5-3.4c-44.3-0.3-88.7-0.3-133-0.1c-14.3,0.1-24.6,7.2-30.6,20.3
		c-4.4,9.6-6,19.7-6,30.1c0,104.7-0.3,209.3,0.3,314c0.1,16.5,2.4,33.3,6.2,49.4c10.1,42.4,34.8,72.8,77,87.2
		c14.6,5,29.8,7.7,45.1,7.8c85.3,0.3,170.7,1.2,256-0.2c47-0.8,80.2-25.5,99.2-68.6c9.2-21,13.9-43.2,14.1-66
		c0.5-54.7,0.1-109.3,0.1-164c0.1,0,0.3,0,0.4,0c0-53.7,0-107.3,0-161C2920.6,688.1,2920.6,683.1,2920,678.2z"
    />
    <path
      d="M2360,664.9c0-17-4.2-21.2-21.2-21.3c-1,0-2,0-3,0c-55,0.1-110,0-164.9,0.4c-23.3,0.1-46.6,0.6-69.9,1.8
		c-20.4,1.1-40.2,5.5-58.9,14.1c-27.3,12.6-44.5,33.6-49.9,63.2c-2.3,12.4-3.3,25.1-3.3,37.7c-0.4,54.3-0.2,108.6-0.2,162.9
		c0,59,0,118,0.1,176.9c0,6.6,0.3,13.4,1.4,19.9c2.6,15.2,11.2,25.5,26.4,29.2c6.1,1.5,12.5,2.2,18.7,2.3c41.7,0.2,83.3,0.1,125,0.1
		c2.3,0,4.7-0.1,7-0.2c15.3-1.1,24.1-8.6,26.8-23.4c1.2-6.8,1.7-13.9,1.7-20.8c0.1-75.3,0.1-150.6,0.1-225.9c0-5.7,0-11.3,0.4-17
		c1.6-24.4,12.6-43.1,34.3-55c12.3-6.8,25.1-12.6,39.2-14.1c16.9-1.8,33.8-3,50.7-4.3c7.3-0.5,14.7-0.1,21.9-0.9
		c10.7-1.2,16.6-7.7,17.5-18.4c0.2-2.3,0.1-4.7,0.1-7C2360,731.5,2360,698.2,2360,664.9z"
    />
    <path
      d="M1954.8,483.5c-0.9-11-5.8-17.4-16.6-19.7c-8.1-1.7-16.5-2.3-24.8-2.3c-85-0.2-170-0.1-254.9-0.1c-84.6,0-169.3,0-253.9,0
		c-5.7,0-11.4,0-17,0.4c-19.6,1.7-26.3,9-26.6,28.8c0,1.3,0,2.7,0,4c0,34.7,0,69.3,0,104c0,4.3,0.1,8.7,0.5,13
		c1,9.7,5.3,14.4,14.9,15.9c5.2,0.8,10.6,0.9,15.9,0.9c39.7,0.1,79.3,0,119,0.1c4.6,0,9.4,0.3,13.9,1.1c6.8,1.2,9.9,4.5,10.7,11.3
		c0.6,4.9,0.6,10,0.6,15c0,153.6,0,307.3,0.1,460.9c0,5.3,0.4,10.6,1.1,15.9c1.2,9.4,6.8,15.1,15.8,17c5.5,1.2,11.2,2.1,16.8,2.1
		c25,0.3,50,0.4,75,0.3c29,0,58,0.1,87-0.5c7.2-0.1,14.5-1.9,21.4-4c8.3-2.6,13.2-8.9,14.4-17.6c0.8-5.9,1.2-11.9,1.2-17.9
		c0.1-152.3,0-304.6,0.1-456.9c0-3.3-0.1-6.7,0-10c0.4-11.6,3.8-15.2,15.5-16.5c4-0.4,8-0.4,12-0.4c43.3,0,86.6,0.1,130-0.1
		c24-0.1,28.1-4.3,28.1-27.8c0-35.3,0-70.6,0-106C1955,490.8,1955.1,487.2,1954.8,483.5z"
    />
    <path
      class="st0"
      style="fill:#62CE02;"
      d="M854.9,1181.6c-78.4-1.4-141.2,65.5-140.9,140.8c0.3,79.2,66.8,140.8,140.3,140.8
		c76.3,0,141.1-62.2,141.4-140.7C995.9,1244.9,931.6,1180.2,854.9,1181.6z"
    />
    <path
      class="st0"
      style="fill:#62CE02;"
      d="M371.6,1181.6c-75.7-1.8-140.6,61.6-141.3,139.3c-0.8,76.9,62.7,141.7,139.8,142.2
		c78.1,0.5,141.5-64.3,141.8-140.2C512.2,1244.5,447.2,1180.3,371.6,1181.6z"
    />
    <path
      class="st0"
      style="fill:#62CE02;"
      d="M1188.6,474.4c-16.4-8.2-34-11.7-52.1-11.8c-50.3-0.3-100.7-0.1-151-0.2c-4.2,0-8.5-0.4-14.3-0.8
		c0-5.4,0-9.4,0-13.4c0-30.7,0-61.3,0.1-92c0.1-25.1-2.7-49.9-8.1-74.3c-18.3-82.4-60.3-150.3-125.9-203.3
		C783,35.1,721.1,9.2,651.6,2.1c-41.1-4.2-81.8-2.6-122,7.4c-94.9,23.7-168.9,77-221.1,159.7c-35.3,55.9-52.9,117.4-53.6,183.6
		c-0.4,32.7,0,65.3-0.1,98c0,10.9-0.6,11.4-11.1,11.6c-2.3,0-4.7,0-7,0c-44.7,0-89.3-0.1-134,0.1c-11.3,0.1-22.6,0.7-33.8,2.1
		c-15.4,2-29.8,7.2-42.5,16.2c-24,16.9-30,41-24.2,68.1c16.9,78,34.6,155.9,52,233.8c13.5,60.4,27,120.8,40.5,181.2
		c8.7,38.6,17,77.3,26.2,115.9c5.7,23.9,18.5,43.3,39.8,56.5c17,10.5,35.8,14.2,55.4,14.2c264.3,0.1,528.6,0.1,792.9,0.1
		c1.3,0,2.7,0.1,4,0c17-1.2,33.7-3.7,48.9-12.2c25.6-14.4,39-37.4,45.2-65.2c23.2-103.9,46.4-207.8,69.6-311.8
		c15.9-71.1,32.3-142.1,47.4-213.4C1230.9,515.7,1220,490.1,1188.6,474.4z M770.2,679.5c0,3-0.3,6-0.9,8.9c-0.8,4.3-3.4,7.3-7.8,8
		c-4.6,0.7-9.2,1.5-13.9,1.5c-20.3,0.2-40.7,0-61,0.1c-13.8,0-14.2,0.3-14.2,13.9c0,77.7,0,155.3-0.1,233c0,4.6-0.1,9.4-0.9,13.9
		c-1.5,8.1-5.9,12.1-14,13.4c-3.6,0.6-7.3,1-10.9,1c-28-0.2-56-0.2-83.9-0.8c-11.3-0.3-14.7-4-16.2-15c-0.6-4.6-0.6-9.3-0.6-14
		c0-76.3,0-152.7,0-229c0-16.5,0-16.5-16.7-16.5c-17.7,0-35.3,0.1-53,0c-19.6-0.1-22.5-3.1-22.5-22.7c0-16-0.1-32,0-48
		c0.1-15.4,5-20.5,20.4-20.5c46-0.1,92,0,138,0v0c43.3,0,86.7,0,130,0c2.7,0,5.3,0,8,0c15.3,0.4,20.1,5.1,20.2,20.7
		C770.4,644.8,770.3,662.2,770.2,679.5z M846.6,449c0,13.4-0.2,13.5-13.3,13.5c-73.6,0-147.2,0-220.9,0c-73,0-145.9,0-218.9,0
		c-14.3,0-14.4,0-14.4-14.3c0-33.6-0.7-67.3,0.2-100.9c2.2-84.7,38.8-150.9,110-197.1c28.8-18.7,60.6-30,95.1-33.5
		c90.9-9.3,163.7,23.3,218.3,95.9c24.7,32.8,39,70.5,42,111.6c1.8,25.2,1.5,50.5,1.8,75.8C846.8,416.3,846.6,432.6,846.6,449z"
    />
  </g>
</svg>
