<?xml version="1.0" encoding="utf-8"?>
<!-- Generator: Adobe Illustrator 23.1.1, SVG Export Plug-In . SVG Version: 6.00 Build 0)  -->
<svg version="1.1" id="Calque_1" xmlns="http://www.w3.org/2000/svg" xmlns:xlink="http://www.w3.org/1999/xlink" x="0px" y="0px"
	 viewBox="0 0 163.5 138" style="enable-background:new 0 0 163.5 138;" xml:space="preserve">
  <g>
    <path
      d="M39.7,39.6h86.1c16.8,0,22.3,8.4,23,32.7c0.1-1.2,0.1-2.4,0.1-3.6c0-29-4.9-38.8-23.1-38.8H39.7
		c-22.2,0-25.1,13.8-25.1,38.8c0,1.2,0,2.3,0.1,3.4C15.3,51.2,19.4,39.6,39.7,39.6z"
    />
    <path d="M59.2,11c0,6.1,4.9,11,11,11c6.1,0,11-4.9,11-11c0-6.1-4.9-11-11-11C64.1,0,59.2,4.9,59.2,11z" />
    <path d="M82.3,11c0,6.1,4.9,11,11,11c6.1,0,11-4.9,11-11c0-6.1-4.9-11-11-11C87.2,0,82.3,4.9,82.3,11z" />
    <path
      d="M119.1,26.1c0,2.2-1.8,4-4,4H96.1c-2.2,0-4-1.8-4-4l0,0c0-2.2,1.8-4.1,4-4.1H115C117.3,22,119.1,23.8,119.1,26.1
		L119.1,26.1z"
    />
    <path
      d="M71.4,26.1c0,2.2-1.8,4.1-4.1,4.1H48.5c-2.3,0-4.1-1.8-4.1-4.1l0,0c0-2.2,1.8-4.1,4.1-4.1h18.9
		C69.6,22,71.4,23.8,71.4,26.1L71.4,26.1z"
    />
    <path
      d="M83.4,138c21.2,0,42.7,0,52.4,0c9.7,0,18.9-3.7,23.6-10.5c4.7-6.8,5.6-15,1.2-27.1c-4.5-12.1-11.6-28.7-16.4-40.5
		c-4.7-11.8-27.5-12.3-44.1-12.3c-16.5,0-23.3,0-38.2,0s-36.8-0.3-41.2,9.7c-4.5,10-13.9,34.2-18,44s-3.2,22.6,1.3,26.8
		c4.5,4.2,7.6,10,26,10C48.2,138,83.4,138,83.4,138z"
    />
  </g>
</svg>
