<?xml version="1.0" encoding="utf-8"?>
<svg xmlns="http://www.w3.org/2000/svg">
<symbol id="arrow-share-full" viewBox="0 0 32 23.37">
<path d="M20.34,20.76v-4.21c0-0.59-0.47-1.06-1.04-1.06c-8.63,0-15.53,3.46-19.29,7.88c2.5-8.69,9.42-15.3,19.58-18.28l0.05-0.03
	l0.19-0.1l0.16-0.11l0.13-0.16l0.11-0.17l0.06-0.18l0.04-0.22l0.01-0.06V0L32,10.85L20.34,20.76z"/>

</symbol>
<symbol id="arrow-share-line" viewBox="0 0 32 30">
<g>
	<path d="M31.71,11.5L19.6,0.24c-0.26-0.24-0.63-0.3-0.95-0.16c-0.32,0.14-0.53,0.47-0.53,0.82v4.84C6.77,9.31,0,17.99,0,29.1
		C0,29.6,0.4,30,0.88,30s0.88-0.4,0.88-0.9c0-6.68,9.25-10.88,16.35-11.21v4.57c0,0.35,0.2,0.67,0.51,0.81
		c0.12,0.06,0.25,0.08,0.38,0.08c0.2,0,0.41-0.07,0.57-0.21l12.11-10.29c0.2-0.17,0.31-0.41,0.32-0.67
		C32.01,11.93,31.9,11.68,31.71,11.5z M19.89,20.53v-3.57c0-0.5-0.4-0.9-0.88-0.9c-7.31,0-13.16,2.93-16.35,6.68
		c2.12-7.37,7.98-12.96,16.59-15.49l0.05-0.02l0.16-0.09l0.13-0.09l0.11-0.13l0.09-0.14l0.05-0.15l0.04-0.18l0.01-0.05V2.94
		l9.88,9.19L19.89,20.53z"/>
</g>

</symbol>
<symbol id="assurance" viewBox="0 0 32 32">
<g>
	<path d="M24.47,11.69V0.94c0-0.52-0.42-0.94-0.94-0.94H0.94C0.42,0,0,0.42,0,0.94v26.35c0,0.52,0.42,0.94,0.94,0.94h12.74
		c1.98,2.39,4.84,3.76,7.97,3.76C27.36,32,32,27.36,32,21.65C32,17,28.88,12.94,24.47,11.69z M1.88,1.88h20.71v9.93
		c-0.31-0.03-0.63-0.05-0.94-0.05c-5.45,0-9.88,4.43-9.88,9.88c0,1.67,0.41,3.27,1.19,4.71H1.88V1.88z M21.65,30.12
		c-2.69,0-5.16-1.24-6.78-3.39l-0.05-0.04l-0.15-0.13l-0.14-0.09l-0.17-0.06l-0.18-0.04l-0.07-0.01h-0.07
		c-0.88-1.41-1.34-3.02-1.34-4.71c0-4.93,4.01-8.94,8.94-8.94c0.34,0,0.69,0.02,1.03,0.06c0.12,0.28,0.35,0.51,0.67,0.58
		c3.93,0.8,6.78,4.29,6.78,8.3C30.12,26.32,26.32,30.12,21.65,30.12z"/>
	<path d="M7.06,6.59h12.24c0.26,0,0.47-0.21,0.47-0.47s-0.21-0.47-0.47-0.47H7.06c-0.26,0-0.47,0.21-0.47,0.47S6.8,6.59,7.06,6.59z"/>
	<path d="M7.06,10.35h12.24c0.26,0,0.47-0.21,0.47-0.47c0-0.26-0.21-0.47-0.47-0.47H7.06c-0.26,0-0.47,0.21-0.47,0.47
		C6.59,10.14,6.8,10.35,7.06,10.35z"/>
	<path d="M7.06,14.12h5.65c0.26,0,0.47-0.21,0.47-0.47c0-0.26-0.21-0.47-0.47-0.47H7.06c-0.26,0-0.47,0.21-0.47,0.47
		C6.59,13.91,6.8,14.12,7.06,14.12z"/>
	<path d="M9.88,16.94H7.06c-0.26,0-0.47,0.21-0.47,0.47c0,0.26,0.21,0.47,0.47,0.47h2.82c0.26,0,0.47-0.21,0.47-0.47
		C10.35,17.15,10.14,16.94,9.88,16.94z"/>
	<path d="M5.18,5.65c-0.26,0-0.47,0.21-0.47,0.47c0,0.26,0.21,0.47,0.47,0.47s0.47-0.21,0.47-0.47C5.65,5.86,5.44,5.65,5.18,5.65z"/>
	<path d="M5.18,9.41c-0.26,0-0.47,0.21-0.47,0.47c0,0.26,0.21,0.47,0.47,0.47s0.47-0.21,0.47-0.47C5.65,9.62,5.44,9.41,5.18,9.41z"/>
	<path d="M5.18,13.18c-0.26,0-0.47,0.21-0.47,0.47c0,0.26,0.21,0.47,0.47,0.47s0.47-0.21,0.47-0.47
		C5.65,13.39,5.44,13.18,5.18,13.18z"/>
	<circle cx="5.18" cy="17.41" r="0.47"/>
	<path d="M25.02,18.19l-4.08,6.12l-2.73-2.61c-0.19-0.18-0.49-0.17-0.67,0.01c-0.18,0.19-0.17,0.49,0.01,0.67l3.14,3
		c0.09,0.08,0.21,0.13,0.33,0.13l0.05,0c0.14-0.02,0.26-0.09,0.34-0.21l4.39-6.59c0.14-0.22,0.09-0.51-0.13-0.65
		C25.46,17.91,25.17,17.97,25.02,18.19z"/>
</g>

</symbol>
<symbol id="authentication" viewBox="0 0 32 30">
<g>
	<path d="M26.66,17.98c-0.22-0.14-0.51-0.07-0.65,0.14l-2.98,4.65l-1.94-1.93c-0.18-0.18-0.48-0.18-0.67,0s-0.18,0.48,0,0.66
		l2.35,2.34c0.09,0.09,0.21,0.14,0.33,0.14l0.05,0c0.14-0.02,0.27-0.09,0.35-0.21l3.3-5.14C26.95,18.4,26.88,18.12,26.66,17.98z"/>
	<path d="M26.44,13.14c-0.64-0.23-1.3-0.38-1.97-0.45V2.92c0-0.25-0.1-0.49-0.28-0.66C24.01,2.08,23.77,2,23.52,1.98
		C20.38,2.01,14.88,1.6,13.4,0.41C13.07,0.15,12.65,0,12.23,0c-0.42,0-0.83,0.15-1.17,0.41c-1.48,1.19-7,1.61-10.12,1.57
		C0.71,2,0.46,2.08,0.28,2.25C0.1,2.43,0,2.67,0,2.92v15.04c0,2.82,1.41,5.44,3.77,7l6.9,4.57c0.45,0.3,0.96,0.46,1.5,0.47h0l0.07,0
		c0.56,0,1.1-0.16,1.57-0.47l3.77-2.5c0.52,0.51,1.11,0.96,1.75,1.33c1.28,0.72,2.73,1.11,4.21,1.11c4.67,0,8.47-3.77,8.47-8.42
		C32,17.53,29.77,14.35,26.44,13.14z M12.76,27.97c-0.16,0.11-0.36,0.18-0.54,0.16h0h0c-0.18,0-0.35-0.06-0.5-0.16l-6.9-4.57
		c-1.84-1.22-2.93-3.25-2.93-5.45V3.85c2.39-0.04,8.27-0.31,10.35-1.97c2.09,1.66,7.97,1.93,10.35,1.97v9.31
		c-3.97,0.46-7.06,3.82-7.06,7.89c0,1.51,0.44,2.99,1.25,4.26L12.76,27.97z M23.53,27.59c-1.15,0-2.28-0.3-3.27-0.86
		c-0.69-0.39-1.3-0.9-1.81-1.52l-0.11-0.09l-0.15-0.12l-0.16-0.07l-0.18-0.05l-0.17,0h-0.05c-0.75-1.14-1.16-2.47-1.16-3.84
		c0-3.61,2.76-6.59,6.29-6.97c0.17,0.25,0.44,0.42,0.77,0.42c0.78,0,1.54,0.13,2.27,0.4c2.59,0.94,4.33,3.41,4.33,6.15
		C30.12,24.66,27.16,27.59,23.53,27.59z"/>
	<path d="M12.8,22.18l3.71-8.94h2.18c0.26,0,0.47-0.21,0.47-0.47s-0.21-0.47-0.47-0.47H16.4l-3-3.41h3.12l2.74,3.13
		c0.17,0.2,0.47,0.22,0.67,0.05c0.2-0.17,0.22-0.46,0.04-0.66l-2.89-3.29c-0.09-0.1-0.22-0.16-0.35-0.16H7.99
		c-0.12,0-0.24,0.05-0.33,0.14l-4.37,4.34l-0.1,0.15l-0.04,0.18l0,0l0.01,0.05l0.02,0.12l0.05,0.08l0.04,0.06l8.75,9.23l0,0
		l0.06,0.04l0.05,0.03l0.05,0.03h0l0.18,0.04l0.18-0.04l0,0l0.04-0.03l0.01-0.01l0.05-0.03l0.05-0.03l0-0.01l0.06-0.09L12.8,22.18
		L12.8,22.18L12.8,22.18z M8.22,13.24l2.73,6.59L4.7,13.24H8.22z M12.36,20.78l-3.12-7.53h6.25L12.36,20.78z M9.57,12.31l2.79-3.17
		l2.79,3.17H9.57z M8.18,8.9h3.14l-3,3.41H4.75L8.18,8.9z"/>
</g>

</symbol>
<symbol id="badge-expert" viewBox="0 0 26 32">
<g>
	<path d="M12,20.8c0.34,0.04,0.67,0.06,1.01,0.06c4.24,0,7.92-3.09,8.44-7.27c0.28-2.27-0.4-4.49-1.92-6.25
		c-0.18-0.21-0.49-0.23-0.7-0.06c-0.21,0.17-0.24,0.48-0.06,0.68c1.33,1.55,1.93,3.51,1.69,5.52c-0.24,1.93-1.23,3.65-2.81,4.86
		c-1.57,1.2-3.53,1.74-5.53,1.51c-1.99-0.23-3.77-1.2-5.01-2.72c-1.24-1.53-1.79-3.43-1.56-5.36C5.79,9.82,6.78,8.1,8.36,6.9
		c1.57-1.2,3.54-1.74,5.53-1.51c0.28,0.03,0.52-0.16,0.56-0.42C14.47,4.7,14.27,4.45,14,4.42c-2.26-0.26-4.48,0.35-6.26,1.71
		s-2.91,3.32-3.18,5.5c-0.27,2.19,0.36,4.34,1.77,6.07C7.73,19.44,9.75,20.54,12,20.8z"/>
	<path d="M17.89,6.6c0.17-0.21,0.13-0.52-0.09-0.68s-0.53-0.13-0.7,0.08s-0.13,0.52,0.09,0.68S17.72,6.81,17.89,6.6z"/>
	<path d="M21.03,22.5c3.12-2.38,4.97-6,4.97-9.89C26,5.66,20.17,0,13,0C5.83,0,0,5.66,0,12.61c0,3.88,1.85,7.5,4.97,9.89l-3.02,5.18
		c-0.21,0.35-0.16,0.79,0.1,1.1c0.27,0.31,0.71,0.42,1.1,0.29l3.93-1.37l0.98,3.58c0.1,0.37,0.42,0.65,0.81,0.71L9.02,32
		c0.33,0,0.65-0.16,0.83-0.44L13,26.95l3.14,4.62c0.19,0.27,0.5,0.44,0.83,0.44l0.16-0.01c0.39-0.06,0.7-0.34,0.8-0.71l0.98-3.58
		l3.93,1.37c0.39,0.13,0.83,0.02,1.1-0.29c0.27-0.31,0.31-0.75,0.1-1.1L21.03,22.5z M2,12.61C2,6.73,6.93,1.94,13,1.94
		s11,4.79,11,10.67c0,3.57-1.83,6.89-4.89,8.88c-0.29,0.19-0.43,0.5-0.43,0.82c-3.47,1.92-7.97,1.91-11.43-0.03l0-0.06l-0.02-0.19
		l-0.07-0.17l-0.09-0.17l-0.14-0.13l-0.11-0.11C3.8,19.45,2,16.15,2,12.61z M9.42,28.69l-0.69-2.51c-0.07-0.26-0.25-0.48-0.5-0.61
		s-0.54-0.15-0.8-0.05l-2.42,0.84l1.86-3.19c1.62,0.88,3.42,1.39,5.28,1.51L9.42,28.69z M18.57,25.52c-0.26-0.09-0.55-0.07-0.8,0.05
		c-0.25,0.13-0.43,0.35-0.5,0.61l-0.69,2.51l-2.73-4.01c1.86-0.12,3.66-0.63,5.28-1.51l1.86,3.19L18.57,25.52z"/>
	<path d="M10.71,12.89c-0.39-0.38-1.02-0.38-1.41,0s-0.39,0.99,0,1.37l2.5,2.42c0.19,0.18,0.44,0.28,0.71,0.28l0.11-0.01
		c0.3-0.03,0.57-0.2,0.73-0.44l3.5-5.33c0.3-0.45,0.16-1.05-0.31-1.34c-0.47-0.29-1.08-0.15-1.38,0.3l-2.83,4.31L10.71,12.89z"/>
</g>

</symbol>
<symbol id="badge-trusted" viewBox="0 0 25 32">
<g>
	<path d="M25,12.61C25,5.65,19.39,0,12.5,0S0,5.65,0,12.61c0,4.29,2.2,8.31,5.77,10.62v7.81c0,0.36,0.2,0.69,0.51,0.86
		c0.31,0.17,0.69,0.15,0.99-0.05l5.24-3.52l5.24,3.52C17.9,31.95,18.08,32,18.27,32c0.16,0,0.31-0.04,0.45-0.11
		c0.31-0.17,0.51-0.5,0.51-0.86v-7.81C22.8,20.91,25,16.9,25,12.61z M13.03,26.34c-0.32-0.22-0.74-0.22-1.07,0l-4.27,2.87V23.7
		c1.51,0.66,3.15,1.02,4.81,1.02c1.66,0,3.3-0.36,4.81-1.02v5.51L13.03,26.34z M17.79,21.84l-0.04,0.04l-0.22,0.19l-0.06,0.08
		l-0.11,0.23l-0.03,0.13l-0.02,0.09c-3,1.46-6.64,1.46-9.64,0l-0.02-0.09l-0.03-0.13l-0.11-0.24l-0.05-0.08l-0.22-0.2l-0.04-0.03
		c-3.26-1.9-5.29-5.44-5.29-9.24c0-5.88,4.74-10.67,10.58-10.67s10.58,4.79,10.58,10.67C23.08,16.4,21.05,19.94,17.79,21.84z"/>
	<path d="M18.78,7.33c-0.17-0.21-0.47-0.23-0.68-0.06c-0.2,0.17-0.23,0.48-0.06,0.68c1.28,1.55,1.86,3.51,1.62,5.52
		c-0.23,1.93-1.18,3.65-2.7,4.86c-1.51,1.2-3.4,1.74-5.31,1.51c-1.91-0.23-3.62-1.2-4.82-2.72c-1.19-1.53-1.72-3.43-1.5-5.36
		c0.23-1.93,1.18-3.65,2.7-4.86c1.51-1.2,3.4-1.74,5.31-1.51c0.26,0.03,0.5-0.16,0.53-0.42c0.03-0.27-0.16-0.51-0.42-0.54
		c-2.17-0.26-4.31,0.35-6.02,1.71c-1.71,1.36-2.8,3.32-3.06,5.5c-0.26,2.19,0.35,4.34,1.7,6.07c1.35,1.73,3.29,2.82,5.46,3.08
		c0.32,0.04,0.65,0.06,0.97,0.06c4.08,0,7.62-3.09,8.11-7.27C20.88,11.3,20.23,9.08,18.78,7.33z"/>
	<path d="M17.21,6.6c0.16-0.21,0.13-0.52-0.08-0.68C16.91,5.76,16.61,5.79,16.45,6c-0.16,0.21-0.13,0.52,0.08,0.68
		C16.74,6.85,17.04,6.81,17.21,6.6z"/>
</g>

</symbol>
<symbol id="bag" viewBox="0 0 27 32">
<g>
	<path d="M24.98,7.76h-4.17V6.3c0-3.48-2.81-6.3-6.27-6.3c-0.41,0-0.81,0.04-1.21,0.12C12.94,0.04,12.54,0,12.13,0
		C8.67,0,5.86,2.83,5.86,6.3v1.45H2.02L0.01,28.84c-0.07,0.78,0.19,1.54,0.73,2.14C1.33,31.63,2.18,32,3.08,32h20.83
		c0.9,0,1.76-0.37,2.34-1.02c0.54-0.6,0.8-1.36,0.73-2.15L24.98,7.76z M19.84,6.3v1.45H18.4V6.3c0-2.17-1.09-4.08-2.75-5.21
		C18.04,1.6,19.84,3.74,19.84,6.3z M13.33,1.11c2.34,0.55,4.1,2.67,4.1,5.19v1.45h-8.2V6.3C9.23,3.78,10.99,1.67,13.33,1.11z
		 M6.82,6.3c0-2.56,1.8-4.7,4.2-5.21C9.36,2.22,8.27,4.14,8.27,6.3v1.45H6.82V6.3z M24.83,29.68c-0.22,0.25-0.56,0.38-0.92,0.38
		H3.08c-0.36,0-0.7-0.14-0.92-0.38c-0.12-0.13-0.26-0.36-0.23-0.65L3.78,9.7h19.45l1.84,19.32C25.1,29.32,24.96,29.54,24.83,29.68z"/>
	<path fill="currentColor" d="M15.05,14.53l0.62,0.27c0.63,0.27,0.79,0.38,0.79,0.65c0,0.46-0.43,1.98-0.53,2.28l-1.38,4.28L12.37,16
		c-0.14-0.39-0.2-0.71-0.2-0.85c0-0.2,0.11-0.38,0.62-0.47l0.53-0.09v-0.14H7.55v0.14l0.2,0.05c0.9,0.21,1.02,0.36,2,2.77l3.12,7.81
		h0.84l3.11-7.81c0.77-1.92,0.97-2.22,1.78-2.61l0.53-0.25v-0.09h-4.07V14.53z"/>
	<path d="M18.14,24.98c-0.2,0.26-0.58,0.31-0.84,0.1c-0.26-0.2-0.3-0.58-0.1-0.84c0.2-0.26,0.58-0.31,0.84-0.1
		C18.29,24.34,18.34,24.72,18.14,24.98z"/>
</g>

</symbol>
<symbol id="bell" viewBox="0 0 26 32">
<path d="M25.55,25.14l-2.03-3.73V11.29c0-2.91-1.49-5.57-3.98-7.14c-0.34-0.22-0.75-0.34-1.18-0.35c-0.45-0.01-0.74-0.36-0.86-0.69
	C16.83,1.25,15.02,0,13,0S9.17,1.25,8.5,3.12C8.38,3.44,8.09,3.79,7.64,3.81C7.21,3.82,6.8,3.94,6.45,4.15
	c-2.49,1.57-3.98,4.24-3.98,7.14v10.12l-2.03,3.73c-0.46,0.53-0.58,1.28-0.3,1.93c0.3,0.71,0.99,1.16,1.77,1.16h6.4
	C8.76,30.38,10.69,32,13,32s4.24-1.62,4.69-3.76h6.4c0.78,0,1.47-0.46,1.77-1.16C26.13,26.42,26.01,25.68,25.55,25.14z M13,30.12
	c-1.25,0-2.3-0.79-2.69-1.88h5.39C15.3,29.33,14.25,30.12,13,30.12z M4.39,11.29c0-2.26,1.16-4.34,3.09-5.56l0.21-0.05
	C8.86,5.66,9.88,4.9,10.3,3.75c0.41-1.12,1.49-1.87,2.7-1.87s2.3,0.75,2.7,1.87c0.42,1.14,1.44,1.9,2.61,1.93l0.2,0.05
	c1.94,1.22,3.1,3.29,3.1,5.55v10.35h0.01c0,0.15,0.02,0.3,0.1,0.44l2.19,4.04l0.17,0.22H1.91l0.17-0.22l2.11-3.99
	c0.17-0.32,0.26-0.68,0.25-1.04L4.39,11.29z"/>

</symbol>
<symbol id="box-clock" viewBox="0 0 32 31">
<g>
	<path d="M29.09,16.5V4.83c0-0.42-0.27-0.79-0.66-0.92L16.79,0.03l-0.08-0.01L16.52,0l-0.2,0.01l-0.08,0L0.73,3.89L0.67,3.92
		L0.49,4.01l-0.15,0.1L0.22,4.24L0.11,4.4L0.05,4.56L0.01,4.76L0,4.83v15.51c0,0.42,0.27,0.79,0.66,0.92l11.63,3.87l0,0l0.01,0
		l0.27,0.04l0.04,0.01h0h0h0l0.23-0.03l2.86-0.71C16.48,28.2,19.82,31,23.76,31C28.3,31,32,27.3,32,22.76
		C32,20.32,30.94,18.07,29.09,16.5z M16.02,22.36l-2.93,0.73V9.09l14.06-3.51V15.8c-1.05-0.51-2.2-0.79-3.39-0.79
		C19.61,15.01,16.23,18.27,16.02,22.36z M16.45,1.96l3.25,1.08L6.81,6.27L3.56,5.18L16.45,1.96z M21.41,3.62l4.11,1.37L12.63,8.2
		L8.52,6.84L21.41,3.62z M1.94,5.66l10.18,3.39v13.98L1.94,19.64V5.66z M23.76,29.06c-3.31,0-6.07-2.58-6.29-5.88l-0.02-0.08l0-0.09
		l-0.05-0.11l-0.07-0.14l-0.15-0.19l-0.08-0.08l-0.1-0.08c0.19-3.58,3.15-6.43,6.77-6.43c1.21,0,2.36,0.33,3.39,0.93v0.04l0.01,0.07
		l0.04,0.19l0.06,0.17l0.1,0.14l0.13,0.15l0.04,0.05c1.6,1.2,2.52,3.04,2.52,5.04C30.06,26.24,27.23,29.06,23.76,29.06z"/>
	<path d="M26.22,21.82l-2.27,0.76v-3.69c0-0.27-0.22-0.48-0.48-0.48c-0.27,0-0.49,0.22-0.49,0.48v4.85c0,0.27,0.22,0.49,0.49,0.49
		c0.27,0,0.48-0.22,0.48-0.49v-0.13l2.58-0.86c0.25-0.08,0.39-0.36,0.31-0.61C26.75,21.87,26.48,21.73,26.22,21.82z"/>
</g>

</symbol>
<symbol id="box" viewBox="0 0 32 28">
<path d="M32,5.28c0-0.4-0.26-0.76-0.64-0.88L18.45,0.04c-0.03-0.01-0.05,0-0.08-0.01C18.31,0.01,18.26,0,18.19,0
	c-0.07,0-0.14,0-0.2,0.01c-0.02,0-0.05,0-0.07,0L0.71,4.37C0.69,4.38,0.67,4.4,0.65,4.4C0.58,4.42,0.53,4.45,0.47,4.49
	c-0.05,0.03-0.1,0.06-0.14,0.09C0.28,4.62,0.25,4.67,0.21,4.72c-0.04,0.05-0.07,0.09-0.1,0.14C0.08,4.91,0.07,4.97,0.05,5.02
	C0.03,5.09,0.02,5.14,0.01,5.21C0.01,5.23,0,5.25,0,5.28v17.43c0,0.4,0.26,0.76,0.64,0.88l12.91,4.36c0,0,0,0,0,0l0,0
	c0.06,0.02,0.11,0.02,0.17,0.03C13.76,27.98,13.8,28,13.85,28c0,0,0,0,0,0c0,0,0,0,0,0c0,0,0,0,0,0c0.08,0,0.15-0.01,0.23-0.03
	l17.21-4.36c0.02-0.01,0.04-0.02,0.06-0.03c0.06-0.02,0.12-0.05,0.18-0.08c0.05-0.03,0.1-0.06,0.14-0.09
	c0.05-0.04,0.08-0.09,0.12-0.13c0.04-0.05,0.07-0.09,0.1-0.14c0.03-0.05,0.04-0.11,0.06-0.16c0.02-0.06,0.03-0.12,0.04-0.19
	c0-0.02,0.01-0.04,0.01-0.07V5.28z M18.11,1.89l4.01,1.35L7.41,6.97L3.41,5.62L18.11,1.89z M23.75,3.8l4.82,1.63L13.87,9.15
	L9.05,7.52L23.75,3.8z M14.32,25.98V10l15.8-4v15.99L14.32,25.98z M1.88,6.09l11.5,3.88v15.95l-11.5-3.88V6.09z"/>

</symbol>
<symbol id="chrono" viewBox="0 0 29 32">
<g>
	<path d="M23.04,6.45l0.92-1.26l0.51,0.36c0.09,0.06,0.19,0.09,0.3,0.09c0.16,0,0.31-0.07,0.41-0.2c0.17-0.22,0.11-0.52-0.11-0.68
		l-1.86-1.29c-0.23-0.16-0.54-0.11-0.71,0.11c-0.16,0.22-0.11,0.52,0.11,0.68l0.52,0.36L22.2,5.89c-1.96-1.21-4.24-1.97-6.69-2.13
		V1.95h1.27c0.56,0,1.01-0.44,1.01-0.98S17.34,0,16.78,0l-4.57,0c-0.56,0-1.01,0.44-1.01,0.98s0.45,0.98,1.01,0.98l1.27,0v1.81
		c-2.44,0.17-4.72,0.92-6.68,2.13L5.88,4.62l0.52-0.36C6.63,4.1,6.68,3.79,6.52,3.57C6.36,3.35,6.04,3.31,5.81,3.46L3.96,4.76
		C3.73,4.92,3.68,5.22,3.84,5.44c0.1,0.13,0.25,0.2,0.41,0.2c0.1,0,0.21-0.03,0.3-0.09l0.51-0.36l0.91,1.25
		C2.36,9.02,0,13.17,0,17.86C0,25.66,6.5,32,14.5,32c8,0,14.5-6.35,14.5-14.15C29,13.17,26.64,9.02,23.04,6.45z M14.5,30.05
		c-6.88,0-12.47-5.47-12.47-12.19S7.62,5.66,14.5,5.66s12.47,5.47,12.47,12.19C26.97,24.58,21.38,30.05,14.5,30.05z"/>
	<path d="M22.24,17.37h-6.74l0,0c-0.11-0.21-0.28-0.37-0.49-0.48l0-7.81c0-0.27-0.23-0.49-0.51-0.49c-0.28,0-0.51,0.22-0.51,0.49
		l0,7.81c-0.36,0.18-0.62,0.54-0.62,0.97c0,0.61,0.5,1.1,1.12,1.1c0.44,0,0.81-0.25,0.99-0.61h0h6.74c0.28,0,0.51-0.22,0.51-0.49
		S22.52,17.37,22.24,17.37z"/>
</g>

</symbol>
<symbol id="clock" viewBox="0 0 32 32">
<g>
	<path d="M16,0C7.18,0,0,7.18,0,16c0,8.82,7.18,16,16,16c8.82,0,16-7.18,16-16C32,7.18,24.82,0,16,0z M16,30.12
		C8.22,30.12,1.88,23.79,1.88,16C1.88,8.22,8.22,1.88,16,1.88c7.79,0,14.12,6.33,14.12,14.12C30.12,23.79,23.78,30.12,16,30.12z"/>
	<path d="M16,4.24C9.51,4.24,4.24,9.51,4.24,16S9.51,27.76,16,27.76c6.49,0,11.76-5.28,11.76-11.76S22.49,4.24,16,4.24z M16,26.82
		c-5.97,0-10.82-4.86-10.82-10.82c0-5.97,4.85-10.82,10.82-10.82c5.97,0,10.82,4.85,10.82,10.82C26.82,21.97,21.97,26.82,16,26.82z"/>
	<path d="M20.71,15.53h-3.38c-0.09-0.25-0.25-0.47-0.46-0.64l1.93-5.8c0.08-0.25-0.05-0.51-0.3-0.6c-0.25-0.08-0.51,0.05-0.59,0.3
		l-1.93,5.8c-0.77,0.01-1.39,0.64-1.39,1.41c0,0.78,0.63,1.41,1.41,1.41c0.61,0,1.13-0.39,1.33-0.94h3.38
		c0.26,0,0.47-0.21,0.47-0.47S20.97,15.53,20.71,15.53z"/>
	<path d="M16,7.53c0.26,0,0.47-0.21,0.47-0.47c0-0.26-0.21-0.47-0.47-0.47c-0.26,0-0.47,0.21-0.47,0.47
		C15.53,7.32,15.74,7.53,16,7.53z"/>
	<path d="M16,24.47c-0.26,0-0.47,0.21-0.47,0.47s0.21,0.47,0.47,0.47c0.26,0,0.47-0.21,0.47-0.47S16.26,24.47,16,24.47z"/>
	<circle cx="24.94" cy="16" r="0.47"/>
	<circle cx="7.06" cy="16" r="0.47"/>
</g>

</symbol>
<symbol id="exit" viewBox="0 0 24 32">
<g>
	<path d="M23,9.41h-5.69c-0.55,0-1,0.42-1,0.94c0,0.52,0.45,0.94,1,0.94H22v18.83H2V11.29h4.68c0.55,0,1-0.42,1-0.94
		c0-0.52-0.45-0.94-1-0.94H1c-0.55,0-1,0.42-1,0.94v20.71C0,31.58,0.45,32,1,32h22c0.55,0,1-0.42,1-0.94V10.35
		C24,9.83,23.55,9.41,23,9.41z"/>
	<path d="M7.39,6.52l3.48-3.3V16c0,0.52,0.45,0.94,1,0.94s1-0.42,1-0.94V3.18l3.74,3.47c0.2,0.18,0.45,0.27,0.7,0.27
		c0.26,0,0.52-0.09,0.71-0.28c0.39-0.37,0.38-0.97-0.01-1.33l-5.44-5.04l-0.03-0.02c-0.08-0.07-0.18-0.14-0.29-0.18l-0.01,0
		l-0.04-0.01C12.11,0.02,12,0,11.9,0l-0.1,0.01l-0.25,0.05l-0.1,0.03c-0.11,0.05-0.21,0.1-0.29,0.19l0,0l0,0L5.97,5.19
		C5.58,5.56,5.59,6.16,5.98,6.52C6.37,6.89,7,6.89,7.39,6.52z"/>
</g>

</symbol>
<symbol id="express" viewBox="0 0 32 28">
<g>
	<path d="M4.93,10.45H1.44c-0.26,0-0.48,0.21-0.48,0.47c0,0.26,0.21,0.47,0.48,0.47h3.49c0.26,0,0.48-0.21,0.48-0.47
		C5.4,10.66,5.19,10.45,4.93,10.45z"/>
	<path d="M4.93,18.49H1.44c-0.26,0-0.48,0.21-0.48,0.47s0.21,0.47,0.48,0.47h3.49c0.26,0,0.48-0.21,0.48-0.47S5.19,18.49,4.93,18.49
		z"/>
	<path d="M4.48,14.72c0-0.26-0.21-0.47-0.48-0.47H0.48C0.21,14.25,0,14.46,0,14.72c0,0.26,0.21,0.47,0.48,0.47H4
		C4.26,15.2,4.48,14.99,4.48,14.72z"/>
	<path d="M26.94,5.65l0.69-0.97l0.39,0.28c0.08,0.06,0.18,0.09,0.28,0.09c0.15,0,0.29-0.07,0.39-0.2c0.16-0.21,0.11-0.51-0.11-0.66
		l-1.57-1.12c-0.21-0.15-0.51-0.11-0.67,0.11c-0.16,0.21-0.11,0.51,0.11,0.66l0.41,0.29l-0.71,0.99c-1.65-1.03-3.55-1.68-5.59-1.84
		V1.89h0.98c0.53,0,0.96-0.42,0.96-0.94C22.5,0.42,22.07,0,21.54,0h-3.87c-0.53,0-0.96,0.42-0.96,0.94c0,0.52,0.43,0.94,0.96,0.94
		h0.98v1.39c-2.04,0.16-3.93,0.81-5.58,1.83l-0.7-0.99l0.4-0.29c0.21-0.15,0.26-0.45,0.11-0.66c-0.16-0.21-0.45-0.26-0.67-0.11
		l-1.57,1.12c-0.21,0.15-0.26,0.45-0.11,0.66c0.09,0.13,0.24,0.2,0.39,0.2c0.1,0,0.2-0.03,0.28-0.09l0.39-0.28l0.69,0.97
		c-3.07,2.26-5.07,5.88-5.07,9.97C7.21,22.44,12.77,28,19.61,28S32,22.44,32,15.61C32,11.53,30,7.91,26.94,5.65z M19.61,26.11
		c-5.78,0-10.48-4.71-10.48-10.5c0-5.79,4.7-10.5,10.48-10.5s10.48,4.71,10.48,10.5C30.09,21.4,25.39,26.11,19.61,26.11z"/>
	<path d="M26.17,15.14h-5.72l-0.03,0.01c-0.08-0.14-0.2-0.26-0.34-0.34V7.98c0-0.26-0.21-0.47-0.48-0.47s-0.48,0.21-0.48,0.47v6.82
		c-0.28,0.17-0.47,0.46-0.47,0.81c0,0.53,0.43,0.95,0.95,0.95c0.35,0,0.65-0.2,0.81-0.49l0.03,0.01h5.72c0.26,0,0.48-0.21,0.48-0.47
		S26.43,15.14,26.17,15.14z"/>
</g>

</symbol>
<symbol id="handshake" viewBox="0 0 32 26">
<g>
	<path d="M26.71,20.5c-2.75,2.91-6.66,4.58-10.71,4.58c-4.59,0-8.97-2.15-11.71-5.76c-0.16-0.21-0.45-0.25-0.66-0.1
		c-0.21,0.15-0.25,0.44-0.1,0.64C6.45,23.71,11.11,26,16,26c4.32,0,8.47-1.78,11.41-4.88c0.18-0.19,0.17-0.48-0.03-0.65
		C27.19,20.3,26.89,20.31,26.71,20.5z"/>
	<path d="M28.53,18.93c-0.22-0.14-0.51-0.07-0.65,0.14l-0.12,0.18c-0.14,0.21-0.08,0.5,0.14,0.64l0.25,0.07
		c0.15,0,0.31-0.07,0.4-0.21l0.12-0.19C28.82,19.35,28.75,19.07,28.53,18.93z"/>
	<path d="M27.83,0.29c-0.31-0.33-0.8-0.37-1.18-0.15l-2.09,0.76c-1.16,0.48-1.59,0.92-1.08,2.32c-0.16,0.01-0.32,0.01-0.46,0.01
		c-1.25,0-2.13-0.16-3.07-0.33c-1.22-0.22-2.49-0.45-4.47-0.25c-1.23,0.12-2.14,0.64-2.58,0.95c-1.09,0.06-1.77-0.01-2.48-0.07
		c-0.52-0.05-1.05-0.1-1.73-0.1c-0.17,0-0.31-0.01-0.45-0.02L8.3,3.3c0.5-1.36,0.07-1.8-1.13-2.29L5.04,0.23l-0.01,0
		C4.93,0.2,4.84,0.19,4.75,0.18L4.66,0.17c-0.09,0-0.18,0.03-0.27,0.06L4.31,0.26L4.13,0.38L4.02,0.47L4,0.48
		C1.42,3.34,0,7.01,0,10.82c0,1.24,0.15,2.47,0.44,3.66l0.01,0.03l0.04,0.1l0.11,0.2l0.08,0.08l0.17,0.14l0.11,0.06l0.22,0.07
		l0.08,0.02l1.82,0.19c0.2,0.02,0.37,0.04,0.53,0.04c0.76,0,1.12-0.31,1.41-1.13l0.03,0.02c0.53,0.44,1.08,0.95,1.67,1.48
		c2.15,1.97,4.58,4.2,7.91,5.11l0.25,0.03l0.08-0.01c0.17,0.04,0.34,0.06,0.51,0.06c0.64,0,1.29-0.21,1.81-0.55
		c0.31,0.14,0.64,0.22,0.99,0.22c0.93,0,1.73-0.54,2.14-1.32c0.21,0.06,0.42,0.1,0.64,0.1c1.12,0,2.06-0.78,2.35-1.83l0.14,0.01
		c1.35,0,2.45-1.12,2.45-2.5c0-0.15-0.02-0.29-0.04-0.43l0.84-0.36c0.28,0.72,0.65,0.99,1.36,0.99c0.16,0,0.33-0.01,0.52-0.04
		l1.84-0.19l0.14-0.04l0.04,0c0.43,0,0.82-0.29,0.92-0.72C31.87,13.17,32,12,32,10.82C32,6.92,30.52,3.17,27.83,0.29z M2.16,13.43
		c-0.17-0.85-0.27-1.72-0.27-2.6c0-3.16,1.11-6.19,3.13-8.64l1.47,0.54l0.03,0.01L6.09,3.68l0,0l0,0l0,0L6.06,3.8L6.01,4.04
		l0.03,0.17l0.03,0.17L6.09,4.4C5.42,5.43,4.73,7.19,4.47,9.11c-0.14,1.01-0.2,1.82-0.22,2.42l-0.08,0.04l-0.16,0.07l-0.15,0.1
		l-0.13,0.13L3.64,12l-0.07,0.17l-0.04,0.09l-0.24,1.28L2.16,13.43z M23.54,15.76c-0.16,0-0.28-0.08-0.34-0.14l-0.06-0.04l0,0
		c-0.22-0.36-0.66-0.51-1.06-0.39l-2.86-2.31c-0.2-0.16-0.5-0.14-0.66,0.06c-0.17,0.2-0.14,0.49,0.06,0.65l2.8,2.26
		c-0.05,0.22-0.02,0.47,0.11,0.68c0.07,0.11,0.11,0.25,0.11,0.38c0,0.37-0.25,0.67-0.57,0.67c-0.17,0-0.29-0.08-0.36-0.15
		l-0.15-0.09c-0.15-0.25-0.42-0.42-0.72-0.44l-2.59-2.14c-0.2-0.16-0.49-0.14-0.66,0.05c-0.17,0.19-0.14,0.48,0.06,0.65l2.3,1.9
		c-0.1,0.18-0.15,0.4-0.11,0.62l0.02,0.16c0,0.37-0.26,0.67-0.57,0.67l-0.15-0.03c-0.08-0.17-0.2-0.33-0.38-0.44
		c-0.09-0.05-0.18-0.07-0.27-0.09l-0.07-0.08l-2.19-1.7c-0.2-0.16-0.5-0.12-0.66,0.07c-0.16,0.2-0.13,0.49,0.08,0.65l1.87,1.45
		l-0.04,0.04c-0.12,0.22-0.56,0.46-0.98,0.46l-0.15-0.02c-0.1-0.03-0.21-0.03-0.31-0.03c-2.82-0.81-5.05-2.84-7-4.64
		c-0.65-0.59-1.25-1.15-1.86-1.65c-0.09-0.07-0.18-0.12-0.29-0.16c-0.14-0.05-0.38-0.18-0.47-0.28l-0.02-0.06l-0.05-0.16l-0.07-0.17
		l-0.07-0.1c0.01-0.59,0.06-1.48,0.22-2.63c0.25-1.8,0.88-3.38,1.42-4.25C7.21,5.13,7.79,5.27,8.7,5.27c0.59,0,1.05,0.04,1.55,0.09
		c0.53,0.05,1.07,0.1,1.75,0.1l-0.84,0.91c-0.08,0.07-1.9,1.65-0.95,3.15c0.92,1.46,2.94,0.96,3.06,0.93
		c0.05-0.02,1.34-0.46,1.96-1.47c0.42-0.57,1.11-1.22,1.41-1.23c0.38-0.01,0.96,0.41,1.24,0.68c2.06,2.62,2.7,3.24,2.96,3.42
		c0.31,0.26,1.76,1.47,3.03,2.1c-0.07,0.25-0.04,0.52,0.12,0.75c0.08,0.12,0.12,0.26,0.12,0.41C24.11,15.46,23.85,15.76,23.54,15.76
		z M24.57,13.24c-0.92-0.38-2.33-1.42-3.16-2.13l-0.08-0.07l-0.04-0.01c-0.32-0.27-1.59-1.8-2.71-3.22c-0.11-0.11-1.12-1.08-2-1
		c-0.91,0.05-1.92,1.35-2.14,1.65c-0.46,0.75-1.45,1.1-1.45,1.1c-0.03,0.01-1.42,0.36-1.98-0.53c-0.53-0.84,0.76-1.97,0.81-2.01
		l1.49-1.6l0.01,0c0.21-0.01,0.4-0.09,0.55-0.23c0.01-0.01,0.73-0.6,1.8-0.71c1.71-0.17,2.74,0.02,3.94,0.23
		c0.98,0.18,1.99,0.36,3.41,0.36c0.67,0,1.43-0.04,2.06-0.27c0.74,0.93,1.2,2.68,1.46,3.71c0.34,1.33,0.31,2.36,0.2,3.08l-0.02,0.02
		l-0.18,0.17c-0.06,0.08-0.1,0.18-0.12,0.27l-0.02,0.05l0,0l0,0c-0.07,0.28-0.17,0.4-0.21,0.44L24.57,13.24z M28.48,13.43
		l-0.24-1.27l0,0v0l-0.02-0.05c-0.03-0.1-0.06-0.19-0.11-0.28l-0.15-0.15l-0.1-0.1l-0.14-0.07c0.1-0.8,0.08-1.88-0.26-3.21
		c-0.42-1.61-0.9-3.22-1.74-4.18l0-0.01l0.03-0.17l-0.04-0.18l-0.03-0.17l0-0.01l0-0.01l-0.42-0.95l1.6-0.59
		c2.1,2.47,3.26,5.56,3.26,8.79c0,0.83-0.1,1.65-0.24,2.46L28.48,13.43z"/>
</g>

</symbol>
<symbol id="heart-full" viewBox="0 0 32 30">
<path d="M24.8,0.04C24.53,0.01,24.26,0,23.98,0C20.6,0,17.55,2.05,16,5.36C14.45,2.05,11.4,0,8.02,0C7.74,0,7.47,0.01,7.2,0.04
	C3.16,0.45,0.14,4.11,0,8.75c-0.07,2.33,0.78,4.66,2.37,6.56l11.48,13.68C14.4,29.63,15.18,30,16,30c0.82,0,1.6-0.37,2.14-1.02
	l11.48-13.68c1.6-1.9,2.44-4.23,2.37-6.56C31.86,4.11,28.84,0.45,24.8,0.04z"/>

</symbol>
<symbol id="heart-line" viewBox="0 0 32 30">
<path d="M24.8,0.04C24.53,0.01,24.26,0,23.98,0C20.6,0,17.55,2.05,16,5.36C14.45,2.05,11.4,0,8.02,0C7.75,0,7.47,0.01,7.2,0.04
	C3.16,0.45,0.14,4.11,0,8.75c-0.07,2.33,0.78,4.66,2.37,6.56l11.48,13.68C14.4,29.63,15.18,30,16,30c0.82,0,1.6-0.37,2.14-1.02
	l11.48-13.68c1.59-1.9,2.44-4.23,2.37-6.56C31.87,4.11,28.84,0.45,24.8,0.04z M28.09,14.02L16.61,27.69c-0.33,0.39-0.89,0.39-1.22,0
	L3.91,14.02c-1.26-1.5-1.96-3.4-1.9-5.22C2.09,5.78,4.01,2.37,7.4,2.03C7.6,2.01,7.81,2,8.02,2c2.61,0,4.98,1.64,6.19,4.27
	C14.55,7,15.23,7.45,16,7.45c0.77,0,1.45-0.45,1.78-1.18l0,0C18.99,3.64,21.37,2,23.98,2c0.21,0,0.42,0.01,0.63,0.03
	C27.99,2.37,29.91,5.78,30,8.8C30.05,10.62,29.36,12.52,28.09,14.02z"/>

</symbol>
<symbol id="home-full" viewBox="0 0 34 30.99">
<g>
	<path d="M33.57,11.16l-16-11l-0.02-0.01l-0.22-0.09l-0.14-0.05L17,0l-0.19,0l-0.14,0.05l-0.22,0.09l-0.02,0.01l-16,11
		c-0.46,0.31-0.57,0.94-0.26,1.39c0.19,0.28,0.51,0.43,0.83,0.43c0.2,0,0.39-0.06,0.57-0.18L17,2.2l15.43,10.61
		c0.17,0.12,0.37,0.18,0.57,0.18c0.32,0,0.63-0.15,0.83-0.43C34.14,12.1,34.02,11.47,33.57,11.16z"/>
	<path d="M29.56,13.15l-12-8c-0.34-0.22-0.77-0.22-1.11,0l-12,8C4.17,13.34,4,13.65,4,13.98v14c0,1.65,1.35,3,3,3h7h6h7
		c1.65,0,3-1.35,3-3v-14C30,13.65,29.83,13.34,29.56,13.15z M20.5,29.98c0,0.28-0.22,0.5-0.5,0.5h-6c-0.28,0-0.5-0.22-0.5-0.5v-12
		c0-0.28,0.22-0.5,0.5-0.5h6c0.28,0,0.5,0.22,0.5,0.5V29.98z"/>
</g>

</symbol>
<symbol id="home-line" viewBox="0 0 32 29">
<g>
	<path d="M27.82,12.31L16.52,4.82c-0.32-0.21-0.73-0.21-1.04,0L4.18,12.31c-0.26,0.17-0.42,0.47-0.42,0.78v13.1
		c0,1.55,1.27,2.81,2.82,2.81h6.59c0.34,0,0.63-0.19,0.8-0.47h4.05c0.16,0.27,0.45,0.47,0.8,0.47h6.59c1.56,0,2.82-1.26,2.82-2.81
		v-13.1C28.24,12.78,28.08,12.48,27.82,12.31z M18.35,27.27c-0.14,0.08-0.25,0.19-0.33,0.32h-4.05c-0.08-0.14-0.19-0.24-0.33-0.32
		V17.3h4.71V27.27z M26.35,26.19c0,0.52-0.42,0.94-0.94,0.94h-6.12v-10.3c0-0.26-0.21-0.47-0.47-0.47h-5.65
		c-0.26,0-0.47,0.21-0.47,0.47v10.3H6.59c-0.52,0-0.94-0.42-0.94-0.94v-12.6L16,6.73l10.35,6.86V26.19z"/>
	<path d="M31.59,10.45L16.53,0.15c0,0-0.01,0-0.01-0.01c-0.06-0.04-0.14-0.06-0.21-0.09c-0.04-0.02-0.08-0.04-0.13-0.05
		C16.12-0.01,16.06,0,16,0c-0.06,0-0.12-0.01-0.18,0c-0.05,0.01-0.09,0.04-0.13,0.05c-0.07,0.03-0.14,0.05-0.21,0.09
		c0,0-0.01,0-0.01,0.01L0.41,10.45c-0.43,0.29-0.54,0.88-0.24,1.3c0.18,0.26,0.48,0.41,0.78,0.41c0.18,0,0.37-0.05,0.53-0.16
		L16,2.06l14.53,9.93c0.16,0.11,0.35,0.16,0.53,0.16c0.3,0,0.59-0.14,0.78-0.41C32.13,11.32,32.02,10.74,31.59,10.45z"/>
</g>

</symbol>
<symbol id="info">
  <g fill="none" fill-rule="evenodd">
    <circle cx="16" cy="16" r="14.86" stroke="#C47552" stroke-width="2.29"/>
    <path fill="#C47552" fill-rule="nonzero" d="M14.68 10.64V7.36h2.64v3.28h-2.64zm0 14v-12h2.64v12h-2.64z"/>
  </g>

</symbol>
<symbol id="lock" viewBox="0 0 30 32">
<g>
	<path d="M24.5,20.37c-0.22-0.14-0.52-0.08-0.66,0.15l-3.04,4.75l-1.98-1.97c-0.19-0.19-0.49-0.19-0.68,0s-0.19,0.49,0,0.68
		l2.4,2.39c0.09,0.09,0.21,0.14,0.34,0.14c0.02,0,0.03,0,0.05,0c0.14-0.02,0.27-0.1,0.35-0.22l3.36-5.25
		C24.79,20.81,24.72,20.51,24.5,20.37z"/>
	<path d="M24.96,15.61V12.9c0-1.58-1.29-2.87-2.88-2.87H20.4V6.69C20.4,3,16.96,0,12.72,0S5.04,3,5.04,6.69v3.34H2.88
		c-1.59,0-2.88,1.29-2.88,2.87l0,15.2c-0.06,0.72,0.18,1.41,0.68,1.95c0.58,0.62,1.46,1,2.36,1h14.39c1.21,0.62,2.55,0.96,3.92,0.96
		c4.76,0,8.64-3.86,8.64-8.6C30,20.04,27.99,17.01,24.96,15.61z M6.96,6.69c0-2.63,2.58-4.78,5.76-4.78s5.76,2.14,5.76,4.78v3.34
		H6.96V6.69z M2.1,28.75c-0.14-0.15-0.2-0.31-0.18-0.58V12.9c0-0.53,0.43-0.96,0.96-0.96h19.2c0.53,0,0.96,0.43,0.96,0.96v2.57
		c-0.55-0.11-1.11-0.18-1.68-0.18c-4.5,0-8.16,3.64-8.16,8.12c0,2.17,0.88,4.23,2.38,5.73H3.05C2.68,29.13,2.32,28.99,2.1,28.75z
		 M21.36,30.09c-1.17,0-2.32-0.3-3.33-0.88c-0.24-0.14-0.52-0.15-0.76-0.08h-0.22c-1.8-1.34-2.89-3.47-2.89-5.73
		c0-3.95,3.23-7.16,7.2-7.16c0.59,0,1.16,0.07,1.73,0.21c0,0,0,0,0,0.01c0.01,0.05,0.02,0.11,0.04,0.15
		c0.02,0.05,0.06,0.09,0.09,0.14c0.04,0.05,0.07,0.11,0.12,0.16c0.03,0.03,0.08,0.05,0.12,0.08c0.06,0.05,0.12,0.09,0.2,0.12
		c0.01,0,0.01,0.01,0.02,0.01c2.64,0.96,4.41,3.48,4.41,6.28C28.08,27.09,25.07,30.09,21.36,30.09z"/>
</g>

</symbol>
<symbol id="menu-search" viewBox="0 0 32 24">
<g>
	<path d="M29.79,19.25c-0.18-0.29-0.49-0.43-0.81-0.42l-1.18-1.91c2.53-1.65,4.21-4.48,4.21-7.7C32,4.14,27.82,0,22.68,0
		s-9.32,4.14-9.32,9.22c0,5.08,4.18,9.22,9.32,9.22c1.56,0,3.02-0.38,4.31-1.05l1.19,1.92c-0.15,0.28-0.16,0.62,0.02,0.91l2.08,3.35
		c0.18,0.28,0.48,0.44,0.8,0.44c0.17,0,0.33-0.04,0.49-0.14c0.44-0.26,0.58-0.83,0.31-1.27L29.79,19.25z M15.22,9.22
		c0-4.07,3.35-7.37,7.46-7.37s7.46,3.31,7.46,7.37c0,4.07-3.35,7.37-7.46,7.37S15.22,13.28,15.22,9.22z"/>
	<path d="M0.93,12.92h8.26c0.52,0,0.93-0.41,0.93-0.92c0-0.51-0.42-0.92-0.93-0.92H0.93C0.42,11.08,0,11.49,0,12
		C0,12.51,0.42,12.92,0.93,12.92z"/>
	<path d="M11.06,16.61H0.93C0.42,16.61,0,17.02,0,17.53c0,0.51,0.42,0.92,0.93,0.92h10.12c0.51,0,0.93-0.41,0.93-0.92
		C11.99,17.02,11.57,16.61,11.06,16.61z"/>
	<path d="M0.93,7.39h8.26c0.52,0,0.93-0.41,0.93-0.92c0-0.51-0.42-0.92-0.93-0.92H0.93C0.42,5.55,0,5.96,0,6.47
		C0,6.98,0.42,7.39,0.93,7.39z"/>
</g>

</symbol>
<symbol id="pin-full" viewBox="0 0 24 32">
<g>
	<path d="M12,0C5.38,0,0,5.49,0,12.24c0,6.52,10.85,18.93,11.31,19.45C11.49,31.89,11.74,32,12,32s0.51-0.11,0.69-0.31
		C13.15,31.16,24,18.76,24,12.24C24,5.49,18.62,0,12,0z M12,16.47c-2.29,0-4.15-1.9-4.15-4.24S9.71,8,12,8
		c2.29,0,4.15,1.9,4.15,4.24S14.29,16.47,12,16.47z"/>
</g>

</symbol>
<symbol id="pin" viewBox="0 0 24 32">
<g>
	<path d="M12,0C5.38,0,0,5.49,0,12.24c0,6.52,10.85,18.93,11.31,19.45C11.49,31.89,11.74,32,12,32s0.51-0.11,0.69-0.31
		C13.15,31.16,24,18.76,24,12.24C24,5.49,18.62,0,12,0z M12,29.63C8.63,25.66,1.85,16.72,1.85,12.24C1.85,6.53,6.4,1.88,12,1.88
		s10.15,4.64,10.15,10.35C22.15,16.72,15.37,25.66,12,29.63z"/>
	<path d="M12,8c-2.29,0-4.15,1.9-4.15,4.24s1.86,4.24,4.15,4.24c2.29,0,4.15-1.9,4.15-4.24S14.29,8,12,8z M12,15.53
		c-1.78,0-3.23-1.48-3.23-3.29S10.22,8.94,12,8.94s3.23,1.48,3.23,3.29S13.78,15.53,12,15.53z"/>
</g>

</symbol>
<symbol id="present" viewBox="0 0 30 32">
<g>
	<path d="M29,6.4h-2.08c0.37-0.48,0.58-1.06,0.58-1.77C27.5,2.08,25.38,0,22.77,0c-0.35,0-0.74,0.09-1.15,0.25
		C21.19,0.1,20.74,0,20.23,0C18.55,0,16.36,1.99,15,4.09C13.64,1.99,11.44,0,9.77,0c-0.5,0-0.96,0.1-1.39,0.25
		C7.97,0.09,7.58,0,7.23,0C4.62,0,2.5,2.08,2.5,4.63c0,0.75,0.34,1.33,0.87,1.77H1c-0.55,0-1,0.44-1,0.98v5.91
		c0,0.54,0.45,0.98,1,0.98h1v15.75C2,31.12,2.9,32,4,32h22c1.1,0,2-0.88,2-1.97V14.28h1c0.55,0,1-0.44,1-0.98V7.38
		C30,6.84,29.55,6.4,29,6.4z M14,30.03V13.78h2v16.25H14z M13.5,12.8V8.37h3v4.43H13.5z M6.81,4.63c0-0.68,0.14-2.58,1.58-3.33
		c1.85,0.86,4.32,3.31,5.1,5.1H8.91C7.72,6.05,6.81,5.5,6.81,4.63z M21.62,1.3c1.44,0.75,1.58,2.65,1.58,3.33
		c0,0.59-0.16,1.31-1.13,1.77h-5.54C17.3,4.61,19.77,2.16,21.62,1.3z M14.93,6.4L15,6.21l0.07,0.19H14.93z M26.5,4.63
		c0,0.59-0.16,1.31-1.13,1.77h-1.75c0.37-0.48,0.58-1.06,0.58-1.77c0-1.58-0.51-2.83-1.37-3.64C24.86,1.02,26.5,2.64,26.5,4.63z
		 M20.21,0.99C18.49,2.1,16.7,3.96,15.82,5.6c-0.08-0.18-0.16-0.37-0.26-0.55C16.71,3.09,18.79,1.01,20.21,0.99z M14.44,5.05
		c-0.1,0.19-0.18,0.37-0.26,0.55C13.3,3.96,11.51,2.1,9.79,0.99C11.21,1.01,13.29,3.09,14.44,5.05z M3.5,4.63
		c0-1.99,1.64-3.61,3.67-3.64C6.31,1.8,5.81,3.05,5.81,4.63c0,0.75,0.34,1.33,0.87,1.77H5.61C4.41,6.05,3.5,5.5,3.5,4.63z M2,8.37
		h10.5v4.43H3.85C3.67,12.51,3.37,12.31,3,12.31H2V8.37z M4,13.78h9v16.25H4V13.78z M17,30.03V13.78h9v16.25H17z M28,12.31h-1
		c-0.37,0-0.67,0.2-0.85,0.49H17.5V8.37H28V12.31z"/>
</g>

</symbol>
<symbol id="price-drop" viewBox="0 0 32 32">
<g>
	<path d="M25.41,32c-0.24,0-0.48-0.09-0.67-0.28l-5.65-5.65c-0.27-0.27-0.35-0.67-0.2-1.03c0.15-0.35,0.49-0.58,0.87-0.58h1.88V16
		c0-0.52,0.42-0.94,0.94-0.94h5.65c0.52,0,0.94,0.42,0.94,0.94v8.47h1.88c0.38,0,0.72,0.23,0.87,0.58c0.15,0.35,0.07,0.76-0.2,1.03
		l-5.65,5.65C25.89,31.91,25.65,32,25.41,32z M22.04,26.35l3.38,3.38l3.38-3.38h-0.55c-0.52,0-0.94-0.42-0.94-0.94v-8.47h-3.76v8.47
		c0,0.52-0.42,0.94-0.94,0.94H22.04z"/>
	<path d="M14.12,28.23C6.33,28.23,0,21.9,0,14.12S6.33,0,14.12,0c6.98,0,12.85,5,13.94,11.89c0.08,0.51-0.27,1-0.78,1.08
		c-0.5,0.09-1-0.27-1.08-0.78c-0.95-5.97-6.03-10.3-12.08-10.3c-6.75,0-12.24,5.49-12.24,12.24c0,6.75,5.49,12.24,12.24,12.24
		c0.54,0,1.09-0.04,1.63-0.11c0.51-0.07,0.99,0.29,1.06,0.81c0.07,0.52-0.29,0.99-0.81,1.06C15.37,28.19,14.74,28.23,14.12,28.23z"/>
	<path d="M14.1,24.13c-4.22,0-8.16-2.69-9.54-6.91c-0.83-2.55-0.62-5.27,0.59-7.65s3.28-4.16,5.83-4.99
		c4.72-1.54,9.78,0.54,12.04,4.95c0.12,0.23,0.03,0.51-0.2,0.63c-0.23,0.12-0.52,0.03-0.63-0.21c-2.05-3.99-6.63-5.88-10.91-4.48
		C8.96,6.21,7.09,7.82,5.99,9.99c-1.1,2.17-1.29,4.63-0.53,6.94c1.56,4.76,6.7,7.38,11.46,5.81c0.38-0.12,0.76-0.28,1.12-0.45
		c0.24-0.11,0.52-0.01,0.63,0.22c0.11,0.23,0.01,0.51-0.22,0.63c-0.4,0.19-0.82,0.36-1.24,0.5C16.18,23.97,15.13,24.13,14.1,24.13z"/>
	<path d="M13.3,19.49c-1.51-0.27-2.82-1.25-3.09-2.92l1.81-0.39c0.13,1.13,1.02,1.67,2.15,1.67c1.1,0,1.73-0.43,1.73-1.41
		c0-1.98-5-1.46-5-4.79c0-1.47,1.09-2.46,2.4-2.74V7.21h1.48v1.67c1.05,0.17,1.93,0.7,2.48,1.71l-1.51,0.89
		c-0.36-0.68-0.99-0.99-1.68-0.99c-0.74,0-1.32,0.45-1.32,1.1c0,1.85,5,1.32,5,4.82c0,1.76-1.32,2.94-2.98,3.13v1.69H13.3V19.49z"/>
</g>

</symbol>
<symbol id="search" viewBox="0 0 32 32">
<g>
	<path d="M31.72,30.39l-6.59-6.59c-0.24-0.24-0.58-0.31-0.9-0.23l-3.04-3.04c2.02-2.18,3.27-5.09,3.27-8.3
		C24.47,5.49,18.98,0,12.24,0C5.49,0,0,5.49,0,12.24c0,6.75,5.49,12.23,12.24,12.23c3.2,0,6.12-1.25,8.3-3.27l3.04,3.04
		c-0.08,0.31-0.01,0.65,0.23,0.9l6.59,6.59c0.18,0.18,0.42,0.28,0.67,0.28c0.24,0,0.48-0.09,0.67-0.28
		C32.09,31.36,32.09,30.76,31.72,30.39z M12.24,22.59c-5.71,0-10.35-4.64-10.35-10.35c0-5.71,4.64-10.35,10.35-10.35
		s10.35,4.64,10.35,10.35C22.59,17.94,17.94,22.59,12.24,22.59z"/>
</g>

</symbol>
<symbol id="share-content" viewBox="0 0 32 32">
<path d="M27.23,22.59c-1.51,0-2.83,0.71-3.71,1.78L9.35,17.25c0.11-0.4,0.19-0.81,0.19-1.25c0-0.43-0.08-0.85-0.19-1.25l14.17-7.13
	c0.88,1.08,2.2,1.78,3.71,1.78C29.86,9.41,32,7.3,32,4.71S29.86,0,27.23,0s-4.77,2.11-4.77,4.71c0,0.43,0.08,0.85,0.19,1.25
	L8.48,13.08C7.6,12,6.28,11.29,4.77,11.29C2.14,11.29,0,13.41,0,16c0,2.6,2.14,4.71,4.77,4.71c1.51,0,2.83-0.71,3.71-1.78
	l14.17,7.13c-0.11,0.4-0.19,0.81-0.19,1.25c0,2.59,2.14,4.71,4.77,4.71S32,29.89,32,27.29S29.86,22.59,27.23,22.59z M27.23,1.88
	c1.58,0,2.86,1.27,2.86,2.82s-1.28,2.82-2.86,2.82s-2.86-1.27-2.86-2.82S25.65,1.88,27.23,1.88z M4.77,18.82
	c-1.58,0-2.86-1.27-2.86-2.82c0-1.56,1.28-2.82,2.86-2.82c1.58,0,2.86,1.27,2.86,2.82C7.63,17.56,6.35,18.82,4.77,18.82z
	 M27.23,30.12c-1.58,0-2.86-1.27-2.86-2.82c0-1.56,1.28-2.82,2.86-2.82s2.86,1.27,2.86,2.82C30.09,28.85,28.81,30.12,27.23,30.12z"/>

</symbol>
<symbol id="shoe" viewBox="0 0 30 32">
<g>
	<path d="M29.99,28.34c0.15-1.72-1.84-3.93-3.81-5.88l-0.2-0.2c-0.44-0.49-1.44-3.73-2.1-6.44l-0.03-0.11l-2.85-7.7
		c-0.06-0.25-0.33-1.43-0.44-2.52c-0.08-0.85-0.51-1.27-0.85-1.48c-0.68-0.41-1.44-0.23-1.77-0.12c-0.74,0.11-1.3,0.47-1.68,0.81
		c-0.86-0.49-1.94-1.34-1.97-2.17c-0.02-0.53-0.07-2.15-1.04-2.4c-0.16-0.05-1.65-0.5-3.28,0.53C9.72,0.84,9.44,0.97,9.11,1.13
		C7.99,1.67,6.48,2.39,4.16,5c-0.33-0.05-0.68,0.06-0.9,0.35L2.32,6.6C1.48,7.03,0.25,7.81,0.04,8.72c-0.09,0.4-0.01,0.8,0.24,1.12
		c0.55,0.72,11.57,12.21,13.81,14.53c0.22,0.21,5.45,5.16,8.41,6.45c1.41,0.62,2.86,1.18,4.18,1.18c1.04,0,2.01-0.34,2.82-1.27
		c0.08-0.09,0.14-0.19,0.18-0.3c0.11-0.29,0.17-0.77,0.05-1.26C29.87,28.92,29.96,28.65,29.99,28.34z M28.04,27.8l-0.19,0.08
		c-0.75-0.46-1.89-1.13-2.86-1.71c0.21-0.49,0.29-1.19,0.28-1.93C27.26,26.25,27.87,27.3,28.04,27.8z M18.27,5.78l0.24-0.06
		l0.16-0.04l0,0.01c0.06,0.65,0.18,1.32,0.28,1.84c-0.5-0.34-1.1-0.67-1.82-0.97l0.15-0.16C17.3,6.39,17.67,5.85,18.27,5.78z
		 M12.41,2.61c0.05,1.45,1.15,2.56,2.15,3.27c-0.92-0.27-2.01-0.77-2.52-1.67c-0.35-0.62-0.37-1.38-0.08-2.27
		c0.14-0.02,0.28-0.03,0.39-0.03C12.37,2.05,12.4,2.28,12.41,2.61z M9.93,2.84c0.32-0.15,0.63-0.31,0.93-0.49
		c-0.15,0.86-0.04,1.64,0.35,2.32c1.14,2.01,4.26,2.41,4.73,2.45c1.69,0.55,2.77,1.31,3.45,1.97l1.11,3.01
		C20.01,12,19.11,12,18.95,12.16c-0.21,0.21-0.21,0.54,0,0.75c0.21,0.21,1.64,0.27,1.84,0.06l0.02-0.03l0.51,1.37
		c-0.5-0.08-1.26-0.07-1.41,0.08c-0.21,0.21-0.21,0.54,0,0.75c0.19,0.19,1.39,0.26,1.75,0.11l0.4,1.08l0.04,0.15
		c-0.5-0.06-1.15-0.04-1.28,0.09c-0.21,0.21-0.21,0.54,0,0.75c0.16,0.16,1.04,0.23,1.54,0.16c0.08,0.32,0.17,0.66,0.27,1.01
		c-0.35,0-0.68,0.03-0.77,0.12c-0.21,0.21-0.21,0.54,0,0.75c0.12,0.12,0.62,0.19,1.08,0.19c0.4,1.34,0.87,2.69,1.33,3.5
		c0.1,1.18,0.08,2.19-0.07,2.63c-0.57-0.34-0.99-0.59-1.04-0.62c-0.08-0.05-0.18-0.08-0.27-0.07c-0.09,0.01-0.5,0.04-0.79,0.09
		c-0.55-0.28-2.91-2.07-4.29-3.81c-0.4-0.5-1.02-1.31-1.77-2.3c-1.19-1.56-2.69-3.53-4.17-5.38c0.14-3.39-2-8.3-2.93-10.24
		C9.28,3.16,9.62,2.99,9.93,2.84z M8.11,3.9c0.81,1.71,2.45,5.51,2.75,8.5c-0.93-1.13-1.82-2.17-2.55-2.92
		C6.95,8.07,6,7.13,5.36,6.52C6.47,5.24,7.36,4.43,8.11,3.9z M23.25,29.08c-2.66-1.16-7.81-6.04-7.84-6.06
		C10.65,18.06,3.62,10.71,2.07,9.01c0.29-0.24,0.8-0.57,1.29-0.81C3.49,8.13,3.6,8.04,3.69,7.92l0.58-0.76
		c0.12,0.01,0.23,0,0.35-0.03c0.63,0.6,1.6,1.55,3,3c2.09,2.16,5.42,6.54,7.63,9.43c0.76,0.99,1.38,1.82,1.78,2.32
		c1.12,1.4,4.41,4.35,5.14,4.17c0.11-0.03,0.39-0.06,0.61-0.08c0.22,0.13,0.71,0.42,1.3,0.77l0,0c1.04,0.62,2.41,1.43,3.26,1.95
		c0,0.32,0.14,0.63,0.42,0.82l0.13,0.14C27.08,30.39,25.88,30.23,23.25,29.08z"/>
	<path d="M18.24,10.7c0.21-0.21,0.21-0.54,0-0.75s-0.54-0.21-0.75,0c-0.21,0.21-0.21,0.54,0,0.75C17.7,10.91,18.03,10.91,18.24,10.7
		z"/>
</g>

</symbol>
<symbol id="star-line" viewBox="0 0 32 30">
<g>
	<path d="M25.48,29.96l-9.31-4.82c-0.11-0.06-0.24-0.06-0.34,0l-9.31,4.82c-0.27,0.14-0.59-0.09-0.54-0.4l1.78-10.19
		c0.02-0.12-0.02-0.25-0.11-0.33l-7.53-7.23c-0.22-0.22-0.1-0.6,0.21-0.64l10.42-1.49c0.12-0.02,0.23-0.09,0.28-0.2l4.65-9.27
		c0.14-0.28,0.53-0.28,0.67,0l4.65,9.27c0.06,0.11,0.16,0.19,0.28,0.2l10.42,1.49c0.31,0.04,0.43,0.42,0.21,0.64l-7.53,7.23
		c-0.09,0.09-0.13,0.21-0.11,0.33l1.78,10.19C26.07,29.87,25.75,30.1,25.48,29.96z M16.17,23.1l6.9,3.57
		c0.27,0.14,0.59-0.09,0.54-0.4l-1.31-7.55c-0.02-0.12,0.02-0.25,0.11-0.33l5.55-5.33c0.22-0.22,0.1-0.6-0.21-0.64l-7.68-1.1
		c-0.12-0.02-0.23-0.09-0.28-0.2l-3.45-6.89c-0.14-0.28-0.53-0.28-0.67,0l-3.45,6.89c-0.05,0.11-0.16,0.19-0.28,0.2l-7.68,1.1
		c-0.31,0.04-0.43,0.42-0.21,0.64l5.55,5.33c0.09,0.09,0.13,0.21,0.11,0.33l-1.31,7.55c-0.05,0.3,0.27,0.54,0.54,0.4l6.9-3.57
		C15.94,23.05,16.06,23.05,16.17,23.1z"/>
</g>

</symbol>
<symbol id="t-shirt" viewBox="0 0 32 31">
<g>
	<path d="M31.66,11.99c0.38-0.31,0.45-0.87,0.16-1.27l-2.5-3.49c-1.53-2.14-3.42-3.96-5.61-5.42l-2.49-1.66l-0.08-0.03l-0.17-0.07
		l-0.19-0.04L20.71,0l-0.11,0.02l-0.11,0.02l-0.24,0.1l-0.06,0.03c-0.09,0.06-0.17,0.14-0.24,0.23l-0.02,0.02L19.9,0.48L19.83,0.6
		c-0.37,0.27-1.74,0.8-3.59,0.8c-1.91,0-3.64-0.57-4.09-0.87L12.1,0.46l-0.02-0.04l-0.03-0.03l-0.22-0.22l-0.01-0.01
		c-0.09-0.06-0.19-0.1-0.3-0.12l-0.1-0.01L11.29,0l-0.08,0.02l-0.19,0.04l-0.18,0.07l-0.08,0.03L8.14,1.91
		C6.05,3.3,4.24,5.05,2.78,7.09l-2.6,3.63c-0.29,0.4-0.22,0.95,0.16,1.27l5.65,4.7c0.14,0.12,0.31,0.19,0.48,0.21L5.65,30
		c-0.02,0.26,0.08,0.51,0.25,0.7C6.08,30.89,6.33,31,6.59,31H16h9.41c0.26,0,0.51-0.11,0.69-0.3s0.27-0.44,0.25-0.7l-0.82-13.1
		c0.17-0.02,0.34-0.09,0.48-0.21L31.66,11.99z M19.71,2.72c-0.08,0.11-0.16,0.22-0.25,0.31c-0.64,0.64-1.67,0.96-3.04,0.96H16.4
		c-1.94,0-3.3-0.47-4.03-1.33c1.36,0.45,3.04,0.62,3.87,0.62C17.34,3.29,18.65,3.09,19.71,2.72z M6.53,14.7l-4.32-3.59l2.09-2.92
		c0.58-0.81,1.22-1.55,1.91-2.25l0.55,0.55c0.48,0.47,0.72,1.13,0.69,1.8l-0.35,5.91l-0.24,0.17L6.53,14.7z M16,29.12H7.59
		l0.88-14.03c0.02-0.34-0.15-0.65-0.42-0.83L8.4,8.34C8.45,7.4,8.1,6.48,7.44,5.82L6.9,5.28c0.71-0.66,1.47-1.27,2.28-1.81
		l1.86-1.24c0.44,1.25,1.74,2.69,5.35,2.7h0.02c1.64,0,2.88-0.42,3.71-1.24c0.31-0.31,0.65-0.78,0.86-1.44l1.69,1.12
		c0.86,0.57,1.66,1.22,2.42,1.92l-0.53,0.53C23.9,6.48,23.55,7.4,23.6,8.34l0.35,5.92c-0.28,0.18-0.44,0.49-0.42,0.83l0.88,14.03H16
		z M25.47,14.7l-0.33-0.33l-0.24-0.17l-0.35-5.91c-0.04-0.67,0.21-1.32,0.68-1.8l0.54-0.54c0.73,0.74,1.41,1.53,2.03,2.38l1.99,2.78
		L25.47,14.7z"/>
</g>

</symbol>
<symbol id="tag-full" viewBox="0 0 28.42 31.15">
<g>
	<path d="M25.89,1.63c-0.2-1.09-1.25-1.8-2.33-1.6l-9.98,1.14L0,20.97l14.84,10.18l13.57-19.79L25.89,1.63z M22.65,7.4
		c-0.62,0.91-1.87,1.14-2.78,0.52c-0.91-0.62-1.14-1.87-0.52-2.78c0.62-0.91,1.87-1.14,2.78-0.52C23.04,5.24,23.27,6.49,22.65,7.4z"/>
</g>

</symbol>
<symbol id="tag-line" viewBox="0 0 32 32">
<g>
	<path d="M32,5.14c-0.01-1.77-2.99-2.53-4.93-2.84c-0.33-1.53-1.82-2.54-3.31-2.26l-9.7,1.1c-0.28,0.03-0.53,0.18-0.69,0.41
		L0.17,20.66c-0.15,0.21-0.2,0.47-0.15,0.72c0.05,0.25,0.19,0.47,0.41,0.62l14.43,9.83C15.01,31.94,15.2,32,15.4,32l0.18-0.02
		c0.25-0.05,0.48-0.19,0.62-0.4l13.19-19.1c0.16-0.23,0.21-0.52,0.14-0.79l-1.11-4.21c0.24-0.04,0.48-0.09,0.69-0.14
		C31.04,6.87,32.01,6.13,32,5.14z M27.54,11.75L15.15,29.69L2.32,20.96l9.41-13.62l0,0C11.81,7.4,11.91,7.43,12,7.43
		c0.15,0,0.31-0.07,0.4-0.21C12.56,7,12.5,6.7,12.28,6.54l2.44-3.53l9.33-1.06c0.52-0.1,1.03,0.25,1.15,0.84l1.05,4
		c-0.61,0.05-1.23,0.09-1.85,0.09c-0.2,0-0.4-0.01-0.6-0.03c-0.01-0.09-0.01-0.18-0.02-0.28c-0.12-0.63-0.48-1.18-1.01-1.55
		c-1-0.68-2.33-0.51-3.14,0.34L19.57,5.4l-0.12,0.17l-0.08,0.09c-0.76,1.1-0.47,2.6,0.63,3.35c0.41,0.28,0.88,0.42,1.37,0.42
		c0.15,0,0.3-0.01,0.45-0.04c0.64-0.12,1.19-0.48,1.56-1.01c0.12-0.18,0.21-0.37,0.28-0.56c0.23,0.02,0.46,0.03,0.69,0.03h0.05
		c0.7,0,1.4-0.05,2.09-0.11L27.54,11.75z M20.01,6.53c0.68,0.54,1.61,0.94,2.66,1.15l-0.09,0.16h0c-0.22,0.32-0.55,0.53-0.93,0.6
		c-0.38,0.07-0.77-0.01-1.09-0.23C20,7.83,19.8,7.14,20.01,6.53z M20.63,5.79c0.23-0.14,0.49-0.22,0.75-0.22
		c0.28,0,0.57,0.08,0.82,0.25c0.31,0.21,0.51,0.52,0.59,0.88C21.93,6.53,21.17,6.22,20.63,5.79z M28.18,6.54l-0.84-3.21
		c2.19,0.4,3.68,1.11,3.69,1.81c0,0.46-0.8,0.93-2.14,1.25C28.67,6.45,28.43,6.5,28.18,6.54z"/>
	<path d="M13.88,7.64c-0.22-0.15-0.52-0.1-0.68,0.12c-0.15,0.22-0.1,0.52,0.13,0.67l0.8,0.55c0.08,0.06,0.18,0.08,0.27,0.08
		c0.15,0,0.31-0.07,0.4-0.21c0.15-0.22,0.1-0.52-0.13-0.67L13.88,7.64z"/>
	<path d="M16.29,9.27c-0.22-0.15-0.52-0.1-0.68,0.12c-0.15,0.22-0.1,0.52,0.13,0.67l0.8,0.55c0.08,0.06,0.18,0.08,0.27,0.08
		c0.15,0,0.31-0.07,0.4-0.21c0.15-0.22,0.1-0.52-0.13-0.67L16.29,9.27z"/>
	<path d="M18.69,10.91c-0.22-0.15-0.52-0.09-0.68,0.13s-0.09,0.52,0.13,0.67l0.8,0.55c0.08,0.06,0.18,0.08,0.27,0.08
		c0.16,0,0.31-0.07,0.4-0.21c0.15-0.22,0.1-0.52-0.13-0.67L18.69,10.91z"/>
	<path d="M21.1,12.55c-0.22-0.15-0.52-0.09-0.68,0.13c-0.15,0.22-0.09,0.52,0.13,0.67l0.8,0.55c0.08,0.06,0.18,0.08,0.27,0.08
		c0.15,0,0.31-0.07,0.4-0.21c0.15-0.22,0.09-0.52-0.13-0.67L21.1,12.55z"/>
	<path d="M23.5,14.19c-0.22-0.15-0.52-0.09-0.68,0.13c-0.15,0.22-0.09,0.52,0.13,0.67l0.8,0.55c0.08,0.06,0.18,0.08,0.27,0.08
		c0.16,0,0.31-0.07,0.4-0.21c0.15-0.22,0.09-0.52-0.13-0.67L23.5,14.19z"/>
</g>

</symbol>
<symbol id="talk" viewBox="0 0 32 31">
<g>
	<path d="M27.29,0H4.71C2.11,0,0,2.1,0,4.67v13.82c0,2.58,2.11,4.67,4.71,4.67h0.44v5.97c0,0.75,0.45,1.43,1.15,1.72
		C6.53,30.95,6.78,31,7.03,31c0.48,0,0.95-0.18,1.31-0.53l7.52-7.3h11.43c2.59,0,4.71-2.1,4.71-4.67V4.67C32,2.1,29.89,0,27.29,0z
		 M30.12,18.49c0,1.55-1.27,2.8-2.82,2.8H15.49h0h-0.01l-0.08,0.02c-0.09,0.01-0.19,0.02-0.28,0.06l-0.21,0.14l-0.09,0.06
		l-0.01,0.01h0l-7.79,7.56v-6.9c0-0.52-0.42-0.93-0.94-0.93H4.71c-1.56,0-2.82-1.26-2.82-2.8V4.67c0-1.55,1.27-2.8,2.82-2.8h22.59
		c1.56,0,2.82,1.26,2.82,2.8V18.49z"/>
	<path d="M11.86,10.65c-0.66,0-1.13,0.49-1.13,1.18c0,0.67,0.45,1.18,1.11,1.18c0.7,0,1.13-0.5,1.13-1.18
		C12.97,11.13,12.52,10.65,11.86,10.65z"/>
	<path d="M16.7,10.65c-0.66,0-1.13,0.49-1.13,1.18c0,0.67,0.45,1.18,1.11,1.18c0.7,0,1.13-0.5,1.13-1.18
		C17.81,11.13,17.36,10.65,16.7,10.65z"/>
	<path d="M21.54,10.65c-0.66,0-1.13,0.49-1.13,1.18c0,0.67,0.45,1.18,1.11,1.18c0.7,0,1.13-0.5,1.13-1.18
		C22.65,11.13,22.2,10.65,21.54,10.65z"/>
</g>

</symbol>
<symbol id="thumb-up" viewBox="0 0 32 31">
<g>
	<path d="M30.02,12.91l-0.24-0.08c-1.02-0.44-2.52-0.54-4.1-0.64c-1.36-0.09-3.22-0.21-3.69-0.61c-0.98-0.84-0.84-1.11-0.03-2.57
		c0.48-0.88,1.09-1.97,1.47-3.48c0.37-1.45,0.1-2.9-0.74-3.98C21.91,0.55,20.71,0,19.31,0c-1.22,0-1.71,0.99-2.59,2.8
		c-0.41,0.83-0.91,1.85-1.63,3.16c-0.53,0.95-2.26,2.27-3.65,3.33c-0.34,0.26-0.67,0.51-0.98,0.76c-1.1,0.86-1.79,1.73-2.4,2.49
		c-0.13,0.16-0.25,0.31-0.37,0.45c-0.02-1.57-0.54-1.88-2.15-1.98l-3.07-0.07H2.44l0,0c-0.2,0-0.39,0.08-0.55,0.19L1.78,11.2
		L1.71,11.3l-0.14,0.21l-0.01,0.01c-1.94,4.73-2.09,10.68-0.38,15.53c0.41,1.16,0.9,1.8,1.43,2.48c0.24,0.31,0.49,0.63,0.76,1.05
		l0.01,0.01l0.18,0.2l0.06,0.05l0.18,0.1l0.08,0.03C3.97,30.98,4.06,31,4.15,31h0h0h0l0.01,0l0.2-0.02l2.41-0.56
		c1.41-0.3,1.75-0.69,1.72-2.04c0.25-0.03,0.52-0.08,0.8-0.15c0.26-0.06,0.72-0.15,0.84-0.15c1.02,0.15,2.08,0.39,3.21,0.63
		c2.22,0.48,4.63,1,7.11,1c1.42,0,2.86-0.17,4.3-0.62c0.94-0.29,1.77-1,2.19-1.85c0.25-0.52,0.35-1.07,0.29-1.62
		c0.53-0.39,0.96-0.99,1.19-1.67c0.15-0.46,0.19-0.91,0.13-1.34c1.02-0.4,1.61-1.26,1.78-2.12c0.12-0.62,0.02-1.22-0.24-1.75
		c0.91-0.42,1.56-1.16,1.81-2.1C32.28,15.21,31.54,13.74,30.02,12.91z M6.37,27.55l0.26,0.82l0.01,0.16
		c-0.08,0.02-0.17,0.04-0.26,0.06l-1.8,0.42c-0.16-0.22-0.32-0.43-0.47-0.63c-0.48-0.62-0.83-1.08-1.14-1.95
		c-1.49-4.24-1.42-9.39,0.14-13.61l2.35,0.05c0.12,0.01,0.25,0.02,0.36,0.02l0,0.19l-0.11,2.2c-0.01,0.25,0.08,0.47,0.22,0.64
		c-0.44,1.56-0.55,4.27,0.01,7.01c0.32,1.55,0.66,2.72,0.91,3.51C6.45,26.66,6.23,27.11,6.37,27.55z M30.08,16.17
		c-0.13,0.51-0.71,1.1-1.9,1.1c-0.45,0-0.84,0.32-0.92,0.76c-0.08,0.44,0.16,0.88,0.58,1.04c0.58,0.23,0.72,0.7,0.65,1.07
		c-0.04,0.19-0.23,0.83-1.22,0.83c-0.36,0-0.69,0.21-0.85,0.53c-0.16,0.32-0.11,0.71,0.11,0.99c0.23,0.29,0.18,0.65,0.1,0.89
		c-0.15,0.46-0.49,0.79-0.73,0.85c-0.25,0.07-0.46,0.25-0.58,0.48s-0.13,0.51-0.04,0.75c0.13,0.34,0.13,0.66-0.02,0.96
		c-0.22,0.45-0.69,0.77-1.06,0.88c-3.49,1.08-7.03,0.32-10.45-0.43c-1.16-0.25-2.25-0.49-3.33-0.65c-0.46-0.07-1.01,0.05-1.54,0.18
		c-0.23,0.05-0.59,0.13-0.71,0.13h0c-0.1-0.01-0.2,0.01-0.29,0.03c-0.25-0.74-0.65-2.02-1.02-3.82c-0.52-2.56-0.44-5.12-0.05-6.52
		c0.25-0.05,0.47-0.19,0.61-0.4c0.9-0.66,1.52-1.41,2.11-2.14c0.57-0.72,1.17-1.46,2.1-2.19c0.3-0.24,0.63-0.49,0.96-0.74
		c1.69-1.29,3.43-2.62,4.15-3.91c0.75-1.34,1.26-2.4,1.68-3.24c0.37-0.76,0.76-1.55,0.96-1.74c0.79,0.01,1.42,0.3,1.83,0.83
		c0.47,0.61,0.62,1.49,0.4,2.37c-0.33,1.28-0.84,2.21-1.3,3.04c-0.67,1.21-1.35,2.45-0.48,3.85c-1.04-0.21-1.86-0.42-1.88-0.42
		c-0.26-0.06-0.51,0.09-0.57,0.34s0.09,0.5,0.34,0.57c0.1,0.02,1.66,0.41,3.22,0.68c0.99,0.69,2.75,0.81,4.62,0.93
		c1.4,0.09,2.99,0.19,3.61,0.55l0.07,0.02C29.91,15.05,30.23,15.61,30.08,16.17z"/>
</g>

</symbol>
<symbol id="translation" viewBox="0 0 32 32">
<g>
	<path d="M13.07,27.83c-3.41,0-6.53-1.98-8-5l1.77-0.37l-3.11-3.44l-1.44,4.4l1.85-0.39c1.57,3.45,5.09,5.73,8.93,5.73
		c0.26,0,0.47-0.21,0.47-0.46C13.54,28.03,13.33,27.83,13.07,27.83z"/>
	<path d="M18.93,4.99c3.48,0,6.63,2.04,8.07,5.14l-1.69,0.34l2.96,3.33l1.43-4.21l-1.76,0.35c-1.54-3.54-5.08-5.88-9-5.88
		c-0.26,0-0.47,0.21-0.47,0.46S18.67,4.99,18.93,4.99z"/>
	<path d="M11.67,6.74c0.26,0,0.47-0.21,0.47-0.46s-0.21-0.46-0.47-0.46h-2.8V4.64c0-0.26-0.21-0.46-0.47-0.46
		c-0.26,0-0.47,0.21-0.47,0.46v1.17h-2.8c-0.26,0-0.47,0.21-0.47,0.46s0.21,0.46,0.47,0.46h4.81C9.5,7.51,8.98,8.24,8.38,8.9
		C8.07,8.55,7.77,8.19,7.5,7.8C7.35,7.6,7.06,7.54,6.85,7.69C6.64,7.84,6.59,8.13,6.74,8.34c0.31,0.43,0.64,0.85,1,1.24
		c-0.84,0.81-1.79,1.52-2.82,2.07c-0.23,0.12-0.31,0.4-0.19,0.63c0.08,0.16,0.25,0.24,0.41,0.24l0.22-0.06
		c1.11-0.59,2.13-1.35,3.04-2.23c0.91,0.88,1.92,1.64,3.03,2.23l0.22,0.06c0.17,0,0.33-0.09,0.41-0.24
		c0.12-0.23,0.04-0.51-0.19-0.63c-1.03-0.55-1.98-1.27-2.82-2.08c0.77-0.85,1.44-1.8,1.97-2.83H11.67z"/>
	<path d="M16.81,13.91V2.78c0-1.53-1.26-2.78-2.8-2.78H2.8C1.26,0,0,1.25,0,2.78v11.13c0,1.53,1.26,2.78,2.8,2.78h11.21
		C15.55,16.7,16.81,15.45,16.81,13.91z M14.94,13.91c0,0.51-0.42,0.93-0.93,0.93H2.8c-0.51,0-0.93-0.42-0.93-0.93V2.78
		c0-0.51,0.42-0.93,0.93-0.93h11.21c0.51,0,0.93,0.42,0.93,0.93V13.91z"/>
	<path d="M29.2,15.3H17.99c-1.55,0-2.8,1.25-2.8,2.78v11.13c0,1.53,1.26,2.78,2.8,2.78H29.2c1.54,0,2.8-1.25,2.8-2.78V18.09
		C32,16.55,30.74,15.3,29.2,15.3z M30.13,29.22c0,0.51-0.42,0.93-0.93,0.93H17.99c-0.52,0-0.93-0.42-0.93-0.93V18.09
		c0-0.51,0.42-0.93,0.93-0.93H29.2c0.51,0,0.93,0.42,0.93,0.93V29.22z"/>
	<path d="M26.08,24.43L26.08,24.43l-2.06-4.68c-0.15-0.34-0.71-0.34-0.86,0l-2.06,4.67l0,0l-1.21,2.74c-0.1,0.24,0,0.51,0.24,0.61
		c0.23,0.1,0.51,0,0.61-0.24l1.09-2.47h3.5l1.09,2.47c0.08,0.17,0.25,0.28,0.43,0.28l0.19-0.04c0.24-0.1,0.34-0.38,0.24-0.61
		L26.08,24.43z M22.25,24.15l1.34-3.05l1.34,3.05H22.25z"/>
</g>

</symbol>
<symbol id="trousers" viewBox="0 0 19 32">
<g>
	<path d="M18.27,0.4c-0.46-0.36-1.05-0.49-1.62-0.35c-0.94,0.23-2.94,0.51-7.15,0.52C5.32,0.55,3.28,0.29,2.35,0.06
		C1.78-0.08,1.19,0.04,0.73,0.41C0.27,0.77,0,1.32,0,1.92v28.17l0,0.06C0,30.31,0.02,30.73,0.41,31.13C0.97,31.71,2.05,32,3.72,32
		c3.18,0,3.52-1.27,3.52-1.81L9.5,17.37l2.26,12.81c0,0.17,0.04,0.57,0.41,0.95c0.56,0.59,1.65,0.87,3.32,0.87
		c3.18,0,3.52-1.27,3.52-1.81V1.92C19,1.32,18.73,0.77,18.27,0.4z M9.48,2.49H9.5c3.37,0,5.84-0.18,7.37-0.52
		c-0.89,0.72-2.88,1.56-7.37,1.56H9.48C5,3.53,3.02,2.69,2.13,1.97C3.67,2.31,6.13,2.49,9.48,2.49z M8.56,11.72L5.37,29.86
		c-0.18,0.08-0.63,0.23-1.65,0.23c-1.09,0-1.61-0.14-1.82-0.23L1.89,9.65C4.06,9.25,5.7,7.51,5.7,5.43c0-0.26-0.21-0.48-0.48-0.48
		S4.75,5.16,4.75,5.43c0,1.56-1.22,2.86-2.86,3.24l0-5.69c1.45,0.96,3.85,1.47,7.13,1.51v6.59C8.79,11.22,8.61,11.44,8.56,11.72z
		 M15.48,30.08c-1.14,0-1.66-0.15-1.85-0.24l-3.19-18.12c-0.05-0.28-0.23-0.51-0.46-0.65v-6.6c3.28-0.05,5.67-0.55,7.12-1.51v5.69
		c-1.63-0.38-2.85-1.68-2.85-3.23c0-0.26-0.21-0.48-0.48-0.48S13.3,5.16,13.3,5.43c0,2.08,1.63,3.82,3.8,4.22v20.22
		C16.91,29.95,16.45,30.08,15.48,30.08z"/>
</g>

</symbol>
<symbol id="user-full" viewBox="0 0 27.88 34">
<g>
	<path d="M14.44,23c5.24,0,9.5-5.16,9.5-11.5S19.68,0,14.44,0c-5.24,0-9.5,5.16-9.5,11.5S9.2,23,14.44,23z"/>
	<path d="M25.72,26.46C22.56,24.87,18.38,24,13.94,24c-4.44,0-8.62,0.87-11.78,2.46c-1.66,0.83-2.48,2.61-2.05,4.43
		C0.55,32.75,2.12,34,4.02,34h19.84c1.9,0,3.47-1.25,3.91-3.11C28.2,29.07,27.38,27.29,25.72,26.46z"/>
</g>

</symbol>
<symbol id="user-line" viewBox="0 0 26 32">
<g>
	<path d="M13.47,21.65c4.88,0,8.86-4.86,8.86-10.82S18.35,0,13.47,0C8.58,0,4.61,4.86,4.61,10.82S8.58,21.65,13.47,21.65z
		 M13.47,1.88c3.86,0,6.99,4.01,6.99,8.94s-3.14,8.94-6.99,8.94s-6.99-4.01-6.99-8.94S9.61,1.88,13.47,1.88z"/>
	<path d="M23.98,24.9c-2.95-1.49-6.85-2.31-10.98-2.31S4.96,23.41,2.02,24.9c-1.54,0.78-2.31,2.46-1.91,4.17
		C0.52,30.82,1.98,32,3.75,32h18.5c1.77,0,3.23-1.18,3.64-2.93C26.3,27.36,25.53,25.68,23.98,24.9z M24.08,28.64
		c-0.16,0.68-0.74,1.48-1.83,1.48H3.75c-1.09,0-1.67-0.8-1.83-1.48s0-1.58,0.93-2.05c2.69-1.36,6.3-2.11,10.15-2.11
		c3.85,0,7.46,0.75,10.15,2.11C24.08,27.06,24.24,27.95,24.08,28.64z"/>
</g>

</symbol>
<symbol id="world" viewBox="0 0 32 32">
<g>
	<path d="M16,0C7.18,0,0,7.18,0,16s7.18,16,16,16c8.82,0,16-7.18,16-16S24.82,0,16,0z M28.43,9.32c0.15,0.48,0.17,0.89,0.07,1.12
		c-0.05,0.12-0.12,0.16-0.25,0.15c-0.5-0.04-0.92,0.09-1.25,0.38c-0.64,0.57-0.76,1.61-0.8,2.56c-0.01,0.38-0.17,0.65-0.45,0.8
		c-0.28,0.15-0.61,0.16-0.82,0.08c0.02-0.08,0.07-0.2,0.11-0.29c0.17-0.43,0.42-1.08,0.31-1.93c-0.24-1.71-2.01-1.67-2.96-1.65
		l-0.29,0c-0.25,0-0.48,0.09-0.64,0.26c-0.37,0.38-0.36,1.03-0.35,1.79c0.01,0.52,0.02,1.11-0.11,1.59
		c-0.15,0.59-1.89,0.41-2.83,0.31c-0.42-0.04-0.77-0.08-1.05-0.08c-0.12,0-0.23,0.01-0.32,0.02c-0.27,0-1.06-0.68-1.24-1.36
		c-0.07-0.27,0.01-0.3,0.07-0.33c0.39-0.17,0.71-0.13,1.13-0.08c0.57,0.07,1.28,0.16,2.17-0.4c0.41-0.26,0.64-0.57,0.7-0.92
		c0.09-0.59-0.32-1.08-0.72-1.56c-0.24-0.29-0.49-0.59-0.6-0.84c0.07-0.09,0.45-0.19,0.65-0.25c0.48-0.14,0.98-0.28,1.15-0.72
		c0.06-0.17,0.1-0.45-0.12-0.79c-0.08-0.13-0.06-0.19-0.05-0.22c0.09-0.26,0.61-0.54,0.95-0.66c0.42-0.07,4.47-0.65,6.19,0.96
		l0.01,0.01C27.58,7.9,28.04,8.59,28.43,9.32z M12.38,2.37c1.16-0.31,2.37-0.49,3.62-0.49c0.28,0,0.55,0.03,0.82,0.04
		c-0.87,0.48-0.97,1.3-1.04,1.99c-0.02,0.19-0.04,0.38-0.08,0.57C15.61,4.9,14.71,5.03,14.22,5c-0.24-0.1-1.1-0.5-1.67-1.21
		C12.28,3.44,12.29,2.87,12.38,2.37z M6.97,5.71c0.21,2.44-0.64,5.61-0.8,6.19c-0.26,0.34-0.88,1.41,0.01,3.35
		c0.42,0.92,0.6,1.58,0.53,2.01c-0.04,0.24-0.15,0.5-0.69,0.75C5.31,18.34,4.47,19.03,4.25,20c-0.11,0.46-0.11,1.17,0.51,1.92
		c0.57,0.69,1.33,1.24,2,1.72c0.65,0.47,1.27,0.92,1.47,1.33c0.29,0.59,0.45,2.2,0.25,2.96c-3.96-2.5-6.6-6.91-6.6-11.93
		c0-4.32,1.95-8.19,5.02-10.78C6.93,5.35,6.95,5.51,6.97,5.71z M16.41,29.84c-0.03-0.25,0.34-0.77,0.63-1.19
		c0.47-0.67,1-1.42,0.88-2.19c-0.06-0.41-0.27-0.91-0.48-1.44c-0.37-0.91-0.83-2.05-0.51-2.7c0.15-0.3,0.26-0.65,0.38-1.01
		c0.41-1.21,0.79-2.36,2.37-2.4c2.06-0.08,4.07,1.38,4.41,1.63c0.17,0.25,0.94,1.45,0.55,2.46c-0.16,0.41-0.32,0.86-0.48,1.34
		c-0.39,1.13-0.83,2.42-1.53,3.7c-0.13,0.23-0.33,0.47-0.58,0.7c-1.7,0.81-3.58,1.28-5.56,1.35L16.41,29.84z M23.81,27.75
		c0.52-1.09,0.9-2.15,1.22-3.1c0.16-0.47,0.31-0.91,0.47-1.31c0.63-1.62-0.65-3.34-0.71-3.41l-0.08-0.08
		c-0.1-0.08-2.49-1.91-5.06-1.87c-2.24,0.06-2.82,1.79-3.24,3.04c-0.11,0.33-0.22,0.65-0.34,0.89c-0.5,1.03,0.05,2.38,0.49,3.47
		c0.19,0.48,0.38,0.92,0.42,1.23c0.06,0.39-0.35,0.98-0.72,1.5c-0.44,0.63-0.86,1.23-0.79,1.83l0.04,0.15
		c-2.25-0.08-4.36-0.67-6.23-1.68c0.45-1.16,0.1-3.21-0.21-3.86c-0.3-0.62-0.98-1.11-1.77-1.68c-0.66-0.47-1.33-0.96-1.82-1.55
		c-0.3-0.36-0.4-0.74-0.32-1.11c0.14-0.6,0.72-1.1,1.25-1.34c0.73-0.33,1.13-0.81,1.23-1.46c0.1-0.63-0.09-1.42-0.61-2.54
		c-0.77-1.68-0.14-2.37-0.12-2.39l0.09-0.09l0.04-0.12c0.04-0.15,1.11-3.77,0.86-6.64C7.88,5.3,7.82,4.93,7.71,4.6
		c1.12-0.81,2.36-1.47,3.69-1.93c-0.04,0.57,0.03,1.2,0.42,1.7c0.82,1.04,2.08,1.52,2.14,1.54l0.14,0.03c0.03,0,0.1,0,0.19,0
		c0.57,0,2.11-0.11,2.34-1.28c0.04-0.21,0.07-0.43,0.09-0.65c0.08-0.78,0.13-1.2,0.97-1.42c0.41-0.11,0.56-0.33,0.62-0.5
		c2.67,0.44,5.08,1.63,7.02,3.35c-2.14-0.48-4.51-0.09-4.65-0.06l-0.07,0.02c-0.21,0.07-1.3,0.46-1.58,1.25
		c-0.08,0.22-0.12,0.57,0.11,1c-0.12,0.05-0.32,0.11-0.46,0.15c-0.47,0.13-1,0.28-1.22,0.71c-0.08,0.15-0.15,0.4-0.04,0.73
		c0.14,0.44,0.47,0.82,0.75,1.16c0.23,0.27,0.54,0.64,0.51,0.81c-0.01,0.07-0.11,0.17-0.27,0.27c-0.6,0.38-1.02,0.33-1.55,0.26
		c-0.47-0.06-0.99-0.12-1.62,0.15c-0.56,0.25-0.79,0.82-0.59,1.5c0.27,0.89,1.39,2.16,2.29,1.98c0.18-0.03,0.66,0.02,1.11,0.07
		c0.51,0.05,1.08,0.11,1.63,0.11c1.04,0,1.99-0.22,2.21-1.13c0.15-0.6,0.14-1.26,0.13-1.83c0-0.39-0.01-0.99,0.06-1.09l0.31,0
		c1.25-0.02,1.91,0.1,2.01,0.84c0.08,0.61-0.1,1.08-0.25,1.45c-0.15,0.39-0.41,1.05,0.23,1.42c0.5,0.29,1.24,0.27,1.81-0.04
		c0.58-0.32,0.91-0.88,0.94-1.59c0.01-0.37,0.06-1.51,0.48-1.89c0.08-0.08,0.23-0.17,0.55-0.15c0.43,0.04,0.79-0.14,1.03-0.46
		c0.58,1.54,0.91,3.2,0.91,4.94C30.12,20.9,27.61,25.22,23.81,27.75z"/>
</g>

</symbol></svg>