<?xml version="1.0" standalone="no"?>
<!DOCTYPE svg PUBLIC "-//W3C//DTD SVG 20010904//EN"
 "http://www.w3.org/TR/2001/REC-SVG-20010904/DTD/svg10.dtd">
<svg version="1.0" xmlns="http://www.w3.org/2000/svg"
 width="994.000000pt" height="994.000000pt" viewBox="0 0 994.000000 994.000000"
 preserveAspectRatio="xMidYMid meet">
<metadata>
Created by potrace 1.11, written by Peter Selinger 2001-2013
</metadata>
<g transform="translate(0.000000,994.000000) scale(0.100000,-0.100000)"
fill="#000000" stroke="none">
<path d="M8376 9366 c3 -9 10 -16 14 -16 28 0 250 -197 305 -271 84 -113 146
-227 148 -275 1 -19 5 -34 9 -34 4 0 7 -8 7 -17 0 -10 2 -49 6 -88 13 -148 15
-331 21 -1675 l5 -1385 41 -75 c67 -128 132 -197 274 -297 34 -24 67 -43 73
-43 6 0 11 -4 11 -10 0 -5 4 -10 9 -10 5 0 47 -17 93 -39 45 -21 101 -44 123
-52 22 -7 45 -16 50 -20 10 -7 70 -21 80 -20 3 1 20 -5 39 -13 18 -8 52 -16
75 -20 23 -3 47 -9 53 -12 6 -4 23 -8 37 -9 55 -4 56 -4 43 -17 -11 -11 -31
-16 -89 -21 -13 -1 -23 -4 -23 -7 0 -3 -11 -7 -25 -8 -133 -11 -495 -172 -601
-267 -6 -5 -30 -26 -54 -45 -24 -19 -48 -41 -54 -48 -6 -7 -18 -21 -27 -30
-22 -24 -70 -98 -101 -157 l-26 -50 -6 -1365 c-5 -1368 -10 -1752 -21 -1770
-3 -6 -8 -20 -10 -32 -5 -23 -12 -41 -42 -105 -9 -17 -14 -33 -12 -35 2 -2 -5
-14 -17 -26 -11 -12 -27 -35 -35 -50 -8 -14 -23 -38 -34 -52 -22 -28 -174
-179 -196 -195 -8 -6 -44 -32 -81 -58 -38 -26 -68 -50 -68 -52 0 -11 205 30
335 66 197 55 378 137 493 225 80 60 149 129 158 156 3 10 10 18 15 18 5 0 9
6 9 14 0 8 4 16 8 18 5 2 23 34 41 71 l32 68 -1 517 c-1 284 -1 526 -1 537 0
11 0 49 0 85 -1 36 -1 72 0 80 0 8 0 44 0 80 -1 36 -1 70 0 75 0 13 1 145 0
165 -2 53 12 1307 15 1360 20 312 86 455 328 714 36 39 83 89 102 111 l36 39
-27 23 c-80 67 -250 252 -262 286 -2 6 -12 19 -21 30 -21 22 -89 155 -95 185
-2 11 -8 30 -14 41 -45 84 -53 211 -55 941 -1 297 -5 468 -11 472 -7 5 -7 8 0
8 6 0 9 58 8 157 -1 87 -4 446 -7 798 -6 694 -8 785 -16 785 -3 0 -7 16 -8 36
-2 19 -12 61 -24 92 -26 70 -135 184 -245 255 -76 50 -272 147 -296 147 -7 0
-17 3 -21 8 -4 4 -12 8 -17 8 -5 1 -11 3 -14 4 -3 1 -8 3 -12 5 -5 1 -15 4
-23 8 -20 8 -171 50 -225 62 -5 2 -28 6 -50 9 -82 13 -100 17 -117 22 -13 4
-16 1 -12 -10z"/>
<path d="M1514 9338 c-3 -5 -9 -6 -13 -4 -4 3 -25 0 -47 -5 -50 -12 -72 -17
-109 -25 -35 -7 -163 -42 -185 -51 -8 -4 -17 -7 -20 -8 -3 -1 -18 -7 -33 -13
-16 -7 -31 -12 -34 -12 -4 0 -49 -20 -100 -45 -190 -92 -350 -226 -409 -342
-33 -66 -34 -70 -37 -143 -1 -30 -6 -60 -10 -67 -4 -6 -3 -14 3 -18 6 -4 8
-11 4 -17 -7 -12 -11 -264 -19 -1448 -5 -878 -12 -1371 -20 -1440 -12 -123
-37 -217 -70 -267 -8 -12 -15 -29 -15 -38 0 -9 -7 -18 -15 -21 -8 -4 -15 -10
-15 -16 0 -8 -40 -71 -72 -113 -36 -48 -135 -159 -176 -199 -29 -28 -52 -53
-52 -58 0 -8 74 -1 100 9 8 4 22 7 30 7 8 1 20 4 26 8 6 4 21 9 35 12 72 13
245 80 367 142 223 113 354 249 414 429 16 48 18 177 23 1405 7 1588 10 1684
50 1844 10 36 51 110 70 126 8 7 15 17 15 21 0 20 177 204 245 254 22 17 46
36 53 43 7 6 17 12 22 12 11 0 40 29 40 40 0 11 -40 9 -46 -2z"/>
<path d="M2498 7804 c-4 -3 -109 -8 -233 -9 -124 -1 -228 -5 -232 -8 -3 -3 5
-28 17 -54 47 -99 285 -583 491 -998 117 -236 213 -432 214 -435 0 -3 5 -12
10 -20 5 -8 39 -78 77 -155 37 -77 72 -145 78 -152 5 -7 10 -15 10 -19 0 -4
93 -194 206 -423 113 -229 240 -486 282 -571 42 -85 80 -158 85 -161 5 -4 7
-11 3 -17 -3 -6 -3 -12 2 -14 6 -2 310 -604 317 -628 3 -11 51 -106 60 -120 5
-8 10 -17 10 -20 0 -3 76 -157 168 -342 92 -185 167 -342 167 -348 0 -5 5 -10
10 -10 6 0 10 -9 10 -20 0 -11 5 -20 10 -20 6 0 10 -5 10 -11 0 -6 142 -295
317 -642 174 -348 332 -664 352 -704 20 -40 40 -71 45 -69 5 1 21 24 35 52 14
27 29 50 34 52 4 2 7 12 7 23 0 10 5 19 10 19 6 0 10 9 10 20 0 11 5 20 10 20
6 0 10 9 10 20 0 11 4 20 10 20 5 0 9 3 8 8 -1 4 29 70 67 147 38 77 70 142
70 145 1 3 36 77 79 165 116 237 190 389 191 395 7 24 50 106 57 111 5 3 9 8
8 10 0 2 7 22 16 44 10 22 17 43 16 48 -1 4 3 7 8 7 6 0 10 4 10 9 0 10 114
255 130 281 6 8 14 24 19 35 17 37 128 269 192 400 35 72 64 132 64 135 1 3
20 42 42 87 23 45 39 84 35 87 -3 3 0 6 6 6 7 0 12 9 12 20 0 11 5 20 10 20 6
0 10 4 10 10 0 5 27 66 60 134 33 69 60 129 60 135 0 6 5 11 10 11 6 0 10 9
10 20 0 11 5 20 10 20 6 0 10 5 10 11 0 7 25 64 57 128 99 204 186 386 188
391 2 9 97 205 106 220 5 8 13 24 18 35 5 11 49 103 99 205 49 102 93 195 96
208 4 12 12 22 17 22 5 0 9 7 9 14 0 8 15 46 34 83 45 91 269 554 351 728 40
84 122 255 253 525 31 63 56 117 57 120 1 3 28 59 60 125 33 66 58 123 57 128
-1 4 3 7 8 7 6 0 10 4 10 10 0 5 29 68 65 141 36 72 65 135 65 141 0 5 -17 8
-38 7 -21 -2 -43 0 -49 4 -7 4 -14 3 -17 -2 -4 -6 -18 -6 -36 -1 -17 5 -30 6
-30 2 0 -4 -26 -6 -57 -4 -32 1 -64 3 -70 3 -7 0 -71 -1 -142 -2 -71 -1 -134
2 -140 5 -6 4 -11 3 -11 -3 0 -6 -11 -6 -30 -1 -17 5 -30 6 -30 2 0 -6 -75 -7
-90 -1 -3 1 -9 0 -15 -1 -26 -5 -295 -1 -305 5 -5 3 -10 2 -10 -3 0 -5 -13 -7
-29 -4 -29 4 -31 1 -96 -134 -102 -210 -119 -248 -117 -256 1 -5 -2 -8 -6 -8
-4 0 -14 -17 -21 -37 -8 -21 -19 -45 -27 -53 -7 -8 -13 -19 -13 -23 0 -4 -11
-31 -24 -60 -63 -134 -114 -241 -163 -345 -30 -62 -54 -115 -54 -118 0 -2 -22
-49 -49 -104 -28 -55 -47 -100 -43 -100 4 0 2 -4 -4 -8 -14 -9 -105 -202 -96
-202 4 0 3 -4 -3 -8 -9 -6 -46 -78 -48 -92 0 -3 -19 -43 -43 -90 -23 -47 -42
-88 -43 -93 0 -4 -12 -27 -25 -51 -14 -24 -22 -47 -19 -50 4 -3 1 -6 -5 -6 -7
0 -12 -4 -12 -9 0 -5 -25 -61 -55 -126 -30 -64 -55 -120 -55 -126 0 -5 -4 -9
-10 -9 -5 0 -10 -7 -10 -16 0 -9 -10 -33 -22 -53 -13 -20 -22 -38 -22 -41 0
-3 -26 -61 -59 -130 -33 -69 -61 -131 -63 -139 -1 -8 -9 -18 -16 -22 -7 -5
-10 -9 -6 -9 3 0 -16 -44 -42 -99 -27 -54 -52 -110 -56 -125 -3 -14 -9 -26
-13 -26 -3 0 -12 -15 -20 -32 -19 -45 -68 -151 -136 -293 -57 -119 -109 -230
-187 -395 -116 -248 -130 -271 -144 -253 -7 10 -14 24 -14 31 0 6 -4 12 -10
12 -5 0 -10 4 -10 9 0 4 -36 84 -81 177 -100 209 -147 309 -189 399 -18 39
-64 135 -102 215 -39 80 -79 165 -91 190 -11 25 -47 101 -80 170 -56 118 -91
192 -167 355 -18 39 -59 126 -92 195 -32 69 -82 175 -111 235 -28 61 -56 113
-62 117 -5 4 -7 8 -3 8 4 0 -10 35 -31 78 -70 144 -96 197 -97 202 0 3 -25 55
-54 115 -30 61 -55 112 -55 115 -1 3 -18 41 -39 85 -101 210 -170 354 -189
395 -11 25 -44 95 -73 155 -65 136 -149 317 -194 413 l-34 73 -92 -2 c-51 -1
-97 2 -103 5 -6 4 -11 3 -11 -3 0 -6 -11 -6 -30 -1 -16 5 -30 6 -30 2 0 -4
-26 -6 -57 -4 -73 4 -56 4 -206 0 -70 -2 -128 1 -130 5 -1 5 -6 5 -9 1z"/>
<path d="M44 4928 c75 -49 190 -172 260 -277 69 -105 119 -191 110 -191 -4 0
0 -7 7 -16 7 -9 14 -21 16 -28 1 -6 12 -38 24 -71 38 -107 38 -109 44 -1210 6
-1119 14 -1830 20 -1905 5 -63 23 -128 41 -150 6 -8 14 -24 18 -36 8 -26 98
-120 161 -166 28 -21 56 -42 62 -48 7 -6 13 -8 13 -4 0 4 8 0 18 -8 45 -40
283 -145 402 -179 25 -7 50 -14 55 -15 64 -18 174 -42 225 -48 14 -2 41 -6 60
-10 l35 -8 -40 28 c-22 15 -41 31 -43 36 -2 4 -8 8 -13 8 -13 0 -78 50 -143
110 -109 100 -163 173 -231 310 -47 93 -57 126 -60 183 -2 20 -3 38 -4 40 -5
7 -11 711 -16 1707 -5 1156 -8 1294 -25 1364 -16 59 -48 125 -83 171 -47 61
-168 175 -186 175 -5 0 -14 7 -21 15 -7 8 -24 21 -39 28 -108 57 -214 107
-256 122 -27 9 -57 20 -65 23 -8 3 -17 6 -20 6 -7 1 -92 27 -110 34 -19 6 -20
7 -112 26 -42 9 -94 16 -114 16 l-37 0 47 -32z"/>
</g>
</svg>
