<?xml version="1.0" standalone="no"?>
<!DOCTYPE svg PUBLIC "-//W3C//DTD SVG 20010904//EN"
 "http://www.w3.org/TR/2001/REC-SVG-20010904/DTD/svg10.dtd">
<svg version="1.0" xmlns="http://www.w3.org/2000/svg"
 width="1056.000000pt" height="1056.000000pt" viewBox="0 0 1056.000000 1056.000000"
 preserveAspectRatio="xMidYMid meet">
<metadata>
Created by potrace 1.11, written by Peter Selinger 2001-2013
</metadata>
<g transform="translate(0.000000,1056.000000) scale(0.100000,-0.100000)"
fill="#000000" stroke="none">
<path d="M0 9665 c0 -59 2 -65 22 -70 13 -3 79 -17 148 -31 458 -94 643 -201
847 -489 199 -283 428 -785 986 -2165 63 -157 144 -357 180 -445 166 -409 364
-898 652 -1610 448 -1108 501 -1239 820 -2025 23 -58 108 -267 188 -465 80
-198 253 -625 385 -950 l238 -590 360 -3 359 -2 199 492 c109 271 227 563 262
648 34 85 113 279 174 430 61 151 138 340 170 420 33 80 138 341 235 580 219
541 436 1078 660 1630 95 234 248 612 340 840 424 1048 525 1297 652 1605 571
1390 756 1664 1318 1951 77 39 233 111 348 159 l207 88 0 34 0 33 -1720 0
-1720 0 0 -31 c0 -35 -27 -21 445 -227 381 -165 453 -200 546 -260 95 -62 141
-108 177 -175 26 -50 27 -58 27 -192 -1 -119 -6 -165 -34 -300 -49 -239 -136
-584 -266 -1051 -139 -500 -147 -525 -360 -1189 -92 -286 -211 -657 -265 -825
-54 -168 -173 -539 -265 -825 -92 -286 -215 -668 -272 -850 -58 -181 -109
-333 -113 -338 -3 -4 -193 495 -420 1110 -227 615 -492 1330 -588 1588 -95
259 -213 578 -262 710 -49 132 -155 418 -235 635 -80 217 -177 478 -215 580
-37 102 -100 271 -139 375 -241 650 -238 845 19 975 112 57 218 82 530 125
269 37 240 25 240 101 l0 64 -2430 0 -2430 0 0 -65z"/>
<path d="M9115 3234 c-280 -43 -550 -179 -745 -374 -165 -164 -287 -380 -340
-600 -119 -491 133 -1019 610 -1278 252 -137 561 -190 857 -146 420 62 778
326 963 709 93 192 94 195 98 496 3 264 3 268 -22 343 -130 387 -475 706 -886
821 -171 47 -353 57 -535 29z"/>
</g>
</svg>
